<?xml version="1.0" encoding="UTF-8" ?>
<!DOCTYPE svg PUBLIC "-//W3C//DTD SVG 1.1//EN" "http://www.w3.org/Graphics/SVG/1.1/DTD/svg11.dtd">
<svg width="512pt" height="512pt" viewBox="0 0 512 512" version="1.1" xmlns="http://www.w3.org/2000/svg">
<g id="currentColorff">
<path fill="currentColor" opacity="1.00" d=" M 243.27 48.43 C 278.59 46.25 314.46 53.17 346.30 68.66 C 378.17 84.07 405.99 107.76 426.29 136.77 C 443.64 161.41 455.52 189.88 460.75 219.56 C 468.62 263.47 461.92 309.88 441.65 349.64 C 424.95 382.72 399.23 411.16 368.02 431.13 C 336.83 451.27 300.10 462.70 262.99 463.83 C 234.34 464.82 205.49 459.79 178.89 449.11 C 148.16 436.83 120.49 417.06 98.85 392.04 C 76.91 366.80 61.16 336.20 53.55 303.62 C 43.88 262.65 46.97 218.73 62.57 179.61 C 78.39 139.48 107.12 104.62 143.36 81.27 C 173.10 61.96 207.88 50.53 243.27 48.43 M 246.24 80.30 C 215.11 81.99 184.50 92.16 158.60 109.52 C 130.00 128.53 107.13 156.06 93.82 187.72 C 80.98 217.92 77.04 251.77 82.29 284.15 C 87.20 314.97 100.65 344.36 120.65 368.32 C 142.49 394.64 172.12 414.46 204.87 424.37 C 236.54 434.02 270.95 434.49 302.85 425.63 C 336.59 416.39 367.29 396.65 389.93 370.01 C 413.81 342.11 428.63 306.58 431.41 269.94 C 434.02 237.53 427.45 204.41 412.46 175.53 C 396.47 144.46 371.02 118.34 340.35 101.59 C 311.80 85.83 278.78 78.43 246.24 80.30 Z" />
<path fill="currentColor" opacity="1.00" d=" M 250.42 155.66 C 257.37 152.93 265.86 155.92 269.62 162.36 C 271.48 165.19 272.07 168.61 272.01 171.95 C 271.97 199.98 272.04 228.01 271.97 256.04 C 272.16 264.16 265.18 271.57 257.09 271.95 C 248.24 272.79 239.77 264.96 240.02 256.05 C 239.98 227.68 240.00 199.31 240.01 170.95 C 239.80 164.31 244.18 157.91 250.42 155.66 Z" />
<path fill="currentColor" opacity="1.00" d=" M 251.38 320.51 C 257.62 319.10 264.44 320.69 269.40 324.75 C 275.07 329.26 278.13 336.82 277.14 344.02 C 276.26 351.54 271.00 358.37 263.94 361.11 C 257.28 363.86 249.26 362.88 243.48 358.57 C 237.05 354.04 233.62 345.72 234.95 337.97 C 236.16 329.51 243.02 322.26 251.38 320.51 Z" />
</g>
</svg>
