<?xml version="1.0" encoding="UTF-8" ?>
<!DOCTYPE svg PUBLIC "-//W3C//DTD SVG 1.1//EN" "http://www.w3.org/Graphics/SVG/1.1/DTD/svg11.dtd">
<svg width="512pt" height="512pt" viewBox="0 0 512 512" version="1.1" xmlns="http://www.w3.org/2000/svg">
<g id="#000000ff">
<path fill="currentColor" opacity="1.00" d=" M 234.52 27.76 C 260.65 24.59 287.67 28.48 311.70 39.29 C 337.81 50.92 360.31 70.43 375.57 94.60 C 386.77 112.23 394.07 132.32 396.82 153.03 C 398.52 164.94 398.09 176.99 398.15 188.99 C 398.16 198.33 398.12 207.68 398.16 217.03 C 398.17 228.61 403.22 239.38 408.70 249.31 C 416.24 263.14 426.36 275.74 431.06 290.97 C 437.54 311.02 436.43 333.44 427.77 352.67 C 419.89 370.52 405.65 385.54 388.06 394.05 C 379.03 398.53 369.15 401.02 359.17 402.18 C 331.22 405.90 303.18 409.11 275.00 410.50 C 237.92 412.53 200.81 408.96 164.03 404.53 C 150.84 402.44 137.21 402.20 124.59 397.45 C 103.29 389.86 85.64 373.03 76.64 352.34 C 65.84 328.19 67.15 299.09 79.96 275.96 C 86.45 264.48 94.07 253.63 99.82 241.74 C 103.37 234.31 106.22 226.33 106.40 218.01 C 106.53 201.64 106.31 185.27 106.51 168.90 C 107.18 133.24 121.72 98.14 146.32 72.34 C 169.36 47.84 201.11 31.73 234.52 27.76 M 236.44 59.78 C 211.51 63.21 187.88 75.25 170.45 93.41 C 150.65 113.68 138.96 141.61 138.49 169.95 C 138.34 185.94 138.52 201.94 138.40 217.93 C 138.28 228.51 135.74 238.94 131.73 248.69 C 125.70 263.49 116.60 276.72 108.52 290.43 C 100.04 305.04 99.04 323.66 105.80 339.13 C 111.42 352.33 122.73 363.02 136.35 367.63 C 144.89 370.53 154.00 370.71 162.85 372.11 C 200.30 376.83 238.10 380.64 275.89 378.43 C 303.73 376.87 331.45 373.69 359.06 369.85 C 374.81 367.71 389.07 357.57 396.58 343.61 C 405.43 327.67 405.41 307.25 396.56 291.32 C 393.06 285.23 389.27 279.31 385.67 273.29 C 375.57 256.77 366.56 238.56 366.20 218.80 C 366.06 203.21 366.21 187.61 366.12 172.02 C 366.06 158.48 363.60 144.95 358.81 132.29 C 349.54 107.59 331.36 86.39 308.38 73.44 C 286.79 61.07 261.06 56.30 236.44 59.78 Z" />
<path fill="currentColor" opacity="1.00" d=" M 200.31 429.47 C 205.31 427.57 211.24 428.47 215.51 431.66 C 218.17 433.62 219.81 436.56 221.88 439.06 C 228.38 446.86 237.94 452.12 248.08 453.10 C 260.15 454.49 272.67 449.84 280.98 440.99 C 284.49 437.48 286.60 432.44 291.31 430.25 C 297.73 426.86 306.28 428.48 310.88 434.13 C 315.27 439.31 315.93 447.35 312.14 453.04 C 304.07 465.34 292.13 475.07 278.41 480.40 C 263.63 486.21 246.89 486.90 231.69 482.29 C 215.39 477.43 200.90 466.54 191.88 452.10 C 187.12 444.02 191.43 432.48 200.31 429.47 Z" />
</g>
</svg>
