<?xml version="1.0" encoding="UTF-8" ?>
<!DOCTYPE svg PUBLIC "-//W3C//DTD SVG 1.1//EN" "http://www.w3.org/Graphics/SVG/1.1/DTD/svg11.dtd">
<svg width="512pt" height="512pt" viewBox="0 0 512 512" version="1.1" xmlns="http://www.w3.org/2000/svg">
<g id="#000000ff">
<path fill="currentColor" opacity="1.00" d=" M 179.56 48.77 C 184.34 48.18 189.17 47.99 194.00 48.00 C 235.99 48.01 277.98 47.99 319.97 48.01 C 337.86 48.01 355.77 52.74 371.18 61.86 C 392.75 74.44 409.36 95.24 416.72 119.10 C 419.97 129.40 421.42 140.21 421.33 150.99 C 421.32 244.32 421.37 337.64 421.31 430.96 C 421.42 448.22 407.84 464.01 390.93 466.95 C 380.00 469.31 368.69 465.67 359.89 459.13 C 331.27 440.73 302.64 422.32 274.02 403.91 C 270.32 401.48 266.48 399.06 262.09 398.14 C 254.91 396.37 247.13 397.92 241.01 402.01 C 209.96 421.97 178.92 441.93 147.86 461.86 C 137.93 468.24 124.94 469.42 114.04 464.87 C 100.45 459.54 90.67 445.71 90.69 431.04 C 90.64 337.35 90.68 243.66 90.67 149.97 C 90.48 127.61 97.94 105.27 111.65 87.60 C 127.91 66.29 152.93 51.91 179.56 48.77 M 181.57 80.79 C 155.59 84.43 132.86 104.22 125.58 129.40 C 121.66 141.55 122.84 154.43 122.67 166.97 C 122.69 254.66 122.63 342.34 122.70 430.02 C 122.30 434.50 128.10 437.30 131.45 434.37 C 159.86 416.19 188.19 397.89 216.58 379.69 C 222.38 375.99 228.04 371.91 234.54 369.49 C 248.67 363.83 265.01 364.09 278.99 370.08 C 285.52 372.82 291.25 377.06 297.23 380.80 C 323.61 397.77 350.01 414.70 376.37 431.69 C 378.55 433.01 380.57 434.71 383.03 435.51 C 386.28 436.17 389.57 433.30 389.30 429.98 C 389.37 337.33 389.31 244.67 389.34 152.02 C 389.48 143.91 388.51 135.74 385.98 128.02 C 379.02 105.96 360.28 88.11 337.87 82.34 C 327.18 79.26 315.98 80.11 305.01 80.00 C 267.68 80.00 230.36 80.00 193.03 80.00 C 189.20 79.99 185.36 80.21 181.57 80.79 Z" />
<path fill="currentColor" opacity="1.00" d=" M 190.31 165.44 C 233.55 165.20 276.80 165.38 320.05 165.35 C 328.05 165.16 335.32 171.94 335.92 179.88 C 336.68 186.69 332.41 193.52 326.12 196.11 C 322.62 197.63 318.72 197.32 315.00 197.34 C 275.65 197.33 236.31 197.33 196.96 197.34 C 191.84 197.55 186.23 197.39 182.14 193.86 C 175.66 189.08 174.07 179.20 178.60 172.58 C 181.19 168.62 185.58 165.87 190.31 165.44 Z" />
</g>
</svg>
