<?xml version="1.0" encoding="UTF-8" ?>
<!DOCTYPE svg PUBLIC "-//W3C//DTD SVG 1.1//EN" "http://www.w3.org/Graphics/SVG/1.1/DTD/svg11.dtd">
<svg width="512pt" height="512pt" viewBox="0 0 512 512" version="1.1" xmlns="http://www.w3.org/2000/svg">
<g id="#000000ff">
<path fill="currentColor" opacity="1.00" d=" M 177.31 48.66 C 178.50 48.31 179.72 48.09 180.97 48.01 C 230.63 47.97 280.29 48.05 329.96 47.97 C 331.56 47.96 333.15 48.22 334.69 48.67 C 336.68 48.97 338.68 49.17 340.65 49.62 C 342.29 49.96 343.95 50.27 345.59 50.63 C 346.91 50.94 348.23 51.25 349.54 51.61 C 350.55 52.01 351.56 52.41 352.57 52.81 C 353.06 52.89 354.04 53.03 354.53 53.10 C 355.51 53.70 356.49 54.30 357.47 54.91 C 357.97 54.96 358.97 55.08 359.47 55.13 C 361.11 56.03 362.77 56.89 364.43 57.75 C 365.77 58.39 367.12 59.04 368.47 59.68 C 370.55 60.78 372.55 62.02 374.59 63.20 C 381.21 67.49 387.44 72.39 392.75 78.25 C 398.84 83.71 403.63 90.42 407.78 97.43 C 408.98 99.45 410.22 101.46 411.30 103.56 C 411.81 104.55 412.34 105.53 412.87 106.52 C 412.93 107.01 413.06 108.00 413.12 108.50 C 413.66 109.47 414.21 110.45 414.75 111.42 C 415.06 112.48 415.39 113.53 415.74 114.57 C 415.86 115.04 416.11 115.97 416.24 116.44 C 416.61 117.44 416.97 118.45 417.34 119.47 C 417.67 120.47 418.01 121.47 418.36 122.47 C 418.74 123.77 419.06 125.09 419.41 126.40 C 419.80 128.35 420.03 130.34 420.33 132.31 C 421.09 134.89 421.03 137.61 421.22 140.27 C 421.68 141.46 421.94 142.69 422.00 143.96 C 422.00 202.63 422.00 261.31 422.00 319.98 C 421.89 358.42 422.22 396.88 421.83 435.31 C 421.18 437.37 420.82 439.51 420.28 441.61 C 420.18 442.09 419.97 443.04 419.86 443.52 C 419.30 444.48 418.75 445.44 418.20 446.40 C 417.75 447.48 417.29 448.56 416.86 449.66 C 413.30 454.74 408.80 459.36 403.64 462.81 C 401.54 463.72 399.49 464.74 397.48 465.81 C 397.01 465.93 396.06 466.15 395.59 466.26 C 394.27 466.68 392.93 467.05 391.61 467.45 C 386.61 468.34 381.39 468.35 376.39 467.45 C 375.06 467.05 373.72 466.68 372.40 466.25 C 371.93 466.15 370.97 465.95 370.49 465.85 C 369.52 465.31 368.54 464.78 367.57 464.27 C 362.13 462.01 357.67 458.08 352.55 455.25 C 347.77 452.42 343.39 448.97 338.55 446.25 C 333.78 443.41 329.39 439.97 324.55 437.25 C 319.78 434.42 315.39 430.98 310.55 428.25 C 305.78 425.42 301.39 421.97 296.54 419.25 C 292.08 416.57 287.91 413.43 283.45 410.75 C 277.92 407.70 273.09 403.54 267.45 400.69 C 266.46 400.18 265.47 399.67 264.49 399.16 C 263.55 399.01 262.61 398.85 261.67 398.70 C 258.01 397.59 253.98 397.59 250.32 398.71 C 249.38 398.86 248.45 399.01 247.51 399.16 C 246.53 399.67 245.55 400.18 244.56 400.69 C 239.23 403.39 234.60 407.23 229.45 410.25 C 224.61 412.97 220.23 416.41 215.46 419.25 C 210.61 421.96 206.23 425.41 201.45 428.25 C 196.30 431.12 191.70 434.87 186.55 437.75 C 182.09 440.43 177.92 443.57 173.45 446.25 C 168.61 448.97 164.23 452.41 159.46 455.25 C 155.36 457.51 151.66 460.43 147.61 462.77 C 145.53 463.72 143.49 464.74 141.48 465.82 C 141.01 465.93 140.06 466.15 139.59 466.26 C 138.27 466.68 136.94 467.05 135.61 467.45 C 130.61 468.34 125.39 468.35 120.39 467.45 C 119.06 467.04 117.72 466.68 116.40 466.25 C 115.92 466.16 114.96 465.96 114.48 465.86 C 113.52 465.31 112.55 464.76 111.58 464.22 C 111.07 464.01 110.03 463.58 109.51 463.37 C 106.49 461.93 104.03 459.64 101.49 457.51 C 98.91 454.31 95.72 451.52 94.25 447.56 C 93.58 446.19 92.89 444.82 92.18 443.48 C 92.07 443.01 91.83 442.07 91.71 441.60 C 91.18 439.51 90.82 437.37 90.17 435.31 C 89.78 407.89 90.11 380.45 90.00 353.02 C 90.00 295.66 90.00 238.31 90.00 180.96 C 90.12 167.88 89.75 154.79 90.19 141.72 C 91.24 139.18 90.99 136.39 91.22 133.72 C 91.90 131.32 92.16 128.85 92.59 126.41 C 92.94 125.07 93.29 123.73 93.71 122.42 C 93.87 121.96 94.19 121.05 94.36 120.60 C 94.68 119.21 94.95 117.82 95.23 116.42 C 95.79 115.44 96.34 114.47 96.90 113.49 C 96.94 112.99 97.04 111.98 97.08 111.48 C 97.69 110.50 98.30 109.51 98.91 108.53 C 98.97 108.04 99.09 107.05 99.15 106.55 C 99.87 105.18 100.57 103.80 101.25 102.41 C 102.40 100.44 103.63 98.53 104.74 96.54 C 108.59 90.31 112.77 84.18 118.24 79.25 C 125.28 71.76 133.31 65.06 142.42 60.23 C 143.47 59.74 144.51 59.24 145.56 58.74 C 146.06 58.49 147.06 58.00 147.56 57.75 C 149.22 56.89 150.88 56.03 152.53 55.14 C 153.02 55.08 154.01 54.95 154.50 54.88 C 155.47 54.33 156.45 53.79 157.42 53.24 C 158.48 52.93 159.53 52.61 160.57 52.27 C 161.03 52.13 161.96 51.86 162.42 51.72 C 163.73 51.30 165.07 50.95 166.41 50.60 C 168.05 50.25 169.70 49.95 171.35 49.62 C 173.31 49.17 175.31 48.97 177.31 48.66 M 186.35 165.64 C 185.89 165.77 184.98 166.01 184.52 166.14 C 180.68 168.25 178.15 171.78 176.02 175.50 C 175.99 179.15 175.98 182.81 176.04 186.46 C 178.04 190.80 181.23 194.52 185.38 196.93 C 185.86 197.03 186.84 197.23 187.33 197.32 C 188.54 197.69 189.78 197.92 191.05 197.99 C 233.70 198.03 276.36 197.95 319.02 198.03 C 320.60 198.05 322.19 197.79 323.69 197.25 C 324.67 197.14 325.64 197.04 326.62 196.95 C 330.76 194.52 333.96 190.81 335.96 186.46 C 336.01 182.81 336.01 179.15 335.97 175.50 C 333.76 172.01 331.73 167.95 327.43 166.72 C 326.43 166.17 325.44 165.62 324.45 165.06 C 279.96 164.91 235.46 165.07 190.97 164.97 C 189.40 164.97 187.86 165.23 186.35 165.64 Z" />
</g>
</svg>
