<?xml version="1.0" encoding="UTF-8" ?>
<!DOCTYPE svg PUBLIC "-//W3C//DTD SVG 1.1//EN" "http://www.w3.org/Graphics/SVG/1.1/DTD/svg11.dtd">
<svg width="512pt" height="512pt" viewBox="0 0 512 512" version="1.1" xmlns="http://www.w3.org/2000/svg">
<g id="#000000ff">
<path fill="currentColor" opacity="1.00" d=" M 244.53 26.55 C 252.15 26.93 259.85 26.92 267.48 26.55 C 271.65 27.57 275.96 27.17 280.20 27.23 C 282.71 28.43 285.52 28.22 288.23 28.30 C 290.15 29.03 292.21 29.23 294.25 29.43 C 296.22 30.00 298.26 30.22 300.30 30.36 C 301.61 30.77 302.94 31.14 304.27 31.50 C 311.13 32.55 317.72 34.74 324.43 36.40 C 325.43 36.75 326.44 37.09 327.45 37.42 C 328.44 37.76 329.44 38.10 330.44 38.43 C 331.44 38.74 332.44 39.04 333.44 39.34 C 335.02 40.23 336.70 40.92 338.46 41.39 C 340.04 42.25 341.71 42.93 343.46 43.40 C 345.04 44.22 346.67 44.98 348.44 45.31 C 354.80 48.47 361.14 51.68 367.54 54.78 C 369.75 56.39 372.13 57.75 374.66 58.81 C 375.58 59.43 376.50 60.08 377.42 60.73 C 378.84 61.65 380.24 62.61 381.68 63.52 C 382.69 64.20 383.72 64.87 384.76 65.51 C 385.13 65.82 385.87 66.44 386.24 66.75 C 387.32 67.35 388.38 67.98 389.45 68.61 C 390.77 69.59 392.05 70.61 393.36 71.62 C 395.53 73.18 397.45 75.08 399.73 76.52 C 400.90 77.58 402.06 78.66 403.25 79.70 C 406.89 81.56 409.06 85.20 412.19 87.71 C 416.74 90.25 419.84 94.66 423.56 98.22 C 425.24 102.05 429.17 104.07 431.53 107.40 C 434.34 111.26 437.54 114.81 440.37 118.64 C 441.38 119.93 442.40 121.22 443.37 122.54 C 443.99 123.55 444.62 124.56 445.23 125.58 C 446.34 127.17 447.41 128.79 448.53 130.38 C 449.16 131.37 449.82 132.35 450.50 133.32 C 451.38 134.68 452.30 136.02 453.21 137.37 C 453.67 138.43 454.14 139.48 454.62 140.53 C 455.47 141.85 456.36 143.14 457.23 144.45 C 460.30 150.86 463.54 157.19 466.70 163.56 C 467.02 165.33 467.77 166.97 468.60 168.57 C 469.08 170.30 469.78 171.97 470.61 173.57 C 471.08 175.31 471.76 176.99 472.66 178.56 C 472.94 179.55 473.25 180.54 473.57 181.53 C 473.93 182.55 474.31 183.56 474.70 184.58 C 475.62 187.93 476.35 191.35 477.62 194.60 C 478.63 198.95 479.67 203.29 480.57 207.66 C 481.49 210.97 481.86 214.39 482.57 217.75 C 482.76 219.78 482.93 221.85 483.73 223.77 C 483.80 226.46 483.49 229.29 484.78 231.78 C 484.73 235.72 484.58 239.70 485.46 243.58 C 485.23 251.54 485.05 259.55 485.45 267.51 C 484.42 271.68 484.83 275.98 484.78 280.22 C 483.50 282.70 483.80 285.52 483.72 288.21 C 482.95 290.13 482.76 292.19 482.57 294.24 C 481.97 296.22 481.76 298.29 481.67 300.35 C 481.23 301.65 480.86 302.96 480.49 304.27 C 479.23 311.58 477.28 318.76 475.00 325.81 C 474.94 326.20 474.83 326.97 474.77 327.35 C 474.35 328.35 473.94 329.36 473.55 330.38 C 473.25 331.41 472.95 332.43 472.66 333.47 C 471.76 335.03 471.07 336.70 470.62 338.45 C 469.78 340.03 469.07 341.69 468.61 343.43 C 467.80 345.05 466.99 346.69 466.68 348.49 C 463.51 354.84 460.30 361.16 457.21 367.55 C 455.65 369.76 454.24 372.09 453.19 374.60 C 452.32 375.98 451.38 377.32 450.50 378.70 C 449.80 379.66 449.13 380.64 448.47 381.64 C 447.79 382.67 447.13 383.71 446.50 384.76 C 446.20 385.14 445.62 385.89 445.32 386.27 C 443.68 388.68 441.88 390.98 440.30 393.43 C 438.77 395.59 436.90 397.49 435.49 399.73 C 434.42 400.89 433.35 402.05 432.31 403.24 C 430.30 407.48 425.45 409.43 423.57 413.76 C 420.43 417.14 417.16 420.41 413.78 423.55 C 410.06 425.31 407.83 428.93 404.78 431.55 C 402.84 432.52 401.25 434.00 399.68 435.48 C 397.49 436.94 395.58 438.78 393.43 440.31 C 390.98 441.89 388.68 443.68 386.27 445.33 C 385.89 445.62 385.14 446.20 384.76 446.49 C 383.72 447.13 382.69 447.79 381.68 448.48 C 380.24 449.39 378.84 450.35 377.42 451.28 C 376.48 451.93 375.55 452.59 374.61 453.22 C 372.09 454.26 369.75 455.64 367.54 457.22 C 361.15 460.32 354.81 463.52 348.46 466.69 C 346.68 467.02 345.04 467.77 343.45 468.61 C 341.71 469.07 340.05 469.77 338.47 470.61 C 336.70 471.06 335.01 471.75 333.45 472.69 C 323.87 475.74 314.22 478.65 304.34 480.57 C 301.03 481.48 297.61 481.85 294.26 482.58 C 292.21 482.76 290.15 482.97 288.21 483.71 C 285.52 483.78 282.72 483.56 280.23 484.78 C 275.99 484.83 271.68 484.42 267.52 485.46 C 259.86 485.12 252.14 485.14 244.48 485.45 C 240.32 484.43 236.03 484.82 231.80 484.78 C 229.61 483.70 227.14 483.75 224.77 483.63 C 222.49 482.91 220.10 482.74 217.74 482.62 C 216.09 482.16 214.41 481.82 212.73 481.52 C 211.05 481.15 209.37 480.83 207.69 480.53 C 204.66 479.88 201.62 479.33 198.61 478.64 C 195.07 477.18 191.33 476.39 187.59 475.65 C 186.57 475.28 185.55 474.93 184.52 474.61 C 181.05 472.80 177.28 471.73 173.54 470.68 C 172.00 469.74 170.34 469.03 168.59 468.62 C 166.97 467.78 165.30 467.02 163.50 466.68 C 157.14 463.52 150.82 460.28 144.41 457.21 C 143.11 456.35 141.84 455.47 140.55 454.62 C 139.49 454.15 138.44 453.68 137.39 453.21 C 136.02 452.31 134.68 451.38 133.31 450.50 C 132.34 449.82 131.36 449.16 130.37 448.52 C 128.79 447.41 127.18 446.35 125.57 445.29 C 123.25 443.60 120.98 441.85 118.57 440.31 C 116.41 438.78 114.52 436.89 112.27 435.49 C 111.11 434.43 109.96 433.36 108.78 432.32 C 105.68 430.83 103.78 427.85 101.26 425.64 C 96.20 421.83 91.10 417.60 87.72 412.19 C 85.17 409.09 81.62 406.85 79.65 403.28 C 76.86 400.06 74.20 396.73 71.61 393.35 C 70.61 392.05 69.59 390.77 68.64 389.45 C 67.98 388.43 67.33 387.43 66.70 386.41 C 66.03 385.36 65.37 384.31 64.73 383.25 C 64.42 382.88 63.80 382.14 63.49 381.77 C 62.85 380.72 62.19 379.69 61.52 378.68 C 60.62 377.32 59.69 375.98 58.79 374.63 C 58.32 373.57 57.85 372.52 57.39 371.47 C 56.53 370.16 55.63 368.88 54.78 367.57 C 51.71 361.15 48.47 354.82 45.30 348.45 C 44.97 346.67 44.21 345.02 43.39 343.43 C 42.93 341.69 42.23 340.03 41.34 338.47 C 40.59 335.64 39.82 332.79 38.14 330.35 C 38.12 329.97 38.07 329.21 38.04 328.83 C 34.10 317.63 31.37 305.98 29.43 294.26 C 29.24 292.22 29.04 290.16 28.29 288.24 C 28.21 285.54 28.48 282.72 27.23 280.23 C 27.83 274.44 26.00 268.78 26.82 263.03 C 26.53 256.68 27.12 250.32 26.50 244.00 C 27.34 239.97 27.32 235.85 27.23 231.76 C 28.48 229.28 28.21 226.46 28.29 223.78 C 29.03 221.84 29.24 219.77 29.43 217.73 C 31.11 206.45 34.22 195.48 37.33 184.53 C 37.71 183.57 38.08 182.60 38.44 181.64 C 38.74 180.61 39.03 179.58 39.32 178.56 C 40.22 176.99 40.93 175.32 41.38 173.57 C 42.21 171.96 42.93 170.31 43.37 168.56 C 44.22 166.97 45.00 165.33 45.30 163.55 C 48.48 157.20 51.67 150.86 54.77 144.48 C 56.34 142.26 57.76 139.93 58.81 137.42 C 59.68 136.03 60.61 134.68 61.49 133.30 C 62.19 132.33 62.88 131.36 63.55 130.38 C 64.21 129.33 64.87 128.28 65.50 127.22 C 65.81 126.86 66.44 126.14 66.75 125.77 C 67.35 124.68 67.98 123.60 68.62 122.53 C 69.59 121.21 70.62 119.93 71.62 118.63 C 73.18 116.46 75.09 114.55 76.52 112.27 C 77.57 111.10 78.64 109.95 79.68 108.77 C 81.56 105.12 85.18 102.93 87.71 99.81 C 90.23 95.25 94.66 92.16 98.21 88.45 C 102.57 86.58 104.51 81.70 108.77 79.69 C 109.95 78.64 111.10 77.57 112.27 76.51 C 114.55 75.09 116.47 73.19 118.63 71.62 C 119.93 70.61 121.21 69.59 122.54 68.63 C 123.55 68.00 124.56 67.37 125.59 66.76 C 127.18 65.66 128.79 64.58 130.38 63.48 C 131.37 62.83 132.34 62.17 133.32 61.50 C 134.68 60.61 136.03 59.69 137.40 58.79 C 138.44 58.32 139.49 57.85 140.54 57.38 C 141.84 56.53 143.12 55.64 144.42 54.79 C 150.83 51.71 157.17 48.48 163.53 45.30 C 165.33 45.01 166.98 44.24 168.56 43.37 C 170.31 42.93 171.99 42.25 173.55 41.33 C 177.27 40.22 181.08 39.24 184.51 37.38 C 185.54 37.06 186.56 36.73 187.58 36.38 C 190.00 36.05 192.32 35.26 194.59 34.36 C 198.96 33.42 203.29 32.24 207.71 31.50 C 209.05 31.13 210.38 30.75 211.71 30.33 C 213.74 30.23 215.79 30.05 217.74 29.43 C 219.78 29.23 221.86 29.06 223.78 28.26 C 226.46 28.18 229.29 28.52 231.76 27.23 C 236.02 27.17 240.34 27.57 244.53 26.55 M 312.31 179.62 C 310.98 179.97 309.65 180.30 308.33 180.68 C 306.99 181.01 305.65 181.34 304.33 181.73 C 303.92 181.85 303.09 182.11 302.67 182.23 C 300.90 182.77 299.10 183.23 297.33 183.77 C 296.92 183.89 296.09 184.12 295.67 184.23 C 293.90 184.77 292.10 185.22 290.32 185.77 C 289.91 185.89 289.09 186.12 288.68 186.23 C 286.90 186.77 285.09 187.22 283.32 187.77 C 282.91 187.89 282.09 188.12 281.68 188.24 C 279.91 188.77 278.11 189.20 276.34 189.71 C 274.99 190.02 273.65 190.34 272.32 190.72 C 271.91 190.85 271.09 191.11 270.68 191.23 C 268.90 191.77 267.10 192.22 265.32 192.77 C 264.91 192.90 264.09 193.15 263.68 193.28 C 262.35 193.66 261.01 193.97 259.67 194.29 C 257.89 194.80 256.09 195.23 254.31 195.76 C 253.91 195.87 253.09 196.11 252.68 196.23 C 250.90 196.77 249.09 197.23 247.32 197.78 C 246.91 197.89 246.09 198.11 245.68 198.22 C 243.90 198.77 242.11 199.22 240.34 199.77 C 239.92 199.89 239.08 200.11 238.66 200.23 C 236.89 200.77 235.09 201.23 233.33 201.78 C 232.92 201.89 232.10 202.13 231.69 202.24 C 229.91 202.77 228.11 203.20 226.33 203.71 C 224.98 204.02 223.64 204.33 222.32 204.70 C 221.91 204.86 221.09 205.17 220.69 205.33 C 219.32 205.67 217.94 205.94 216.56 206.21 C 212.92 207.63 209.73 210.01 207.67 213.37 C 207.20 214.46 206.71 215.55 206.23 216.63 C 205.94 217.99 205.65 219.34 205.30 220.68 C 205.17 221.09 204.90 221.91 204.76 222.32 C 204.22 224.10 203.77 225.90 203.24 227.68 C 203.11 228.09 202.85 228.91 202.72 229.32 C 202.34 230.64 202.02 231.98 201.70 233.33 C 201.19 235.11 200.77 236.91 200.24 238.68 C 200.12 239.09 199.89 239.91 199.77 240.32 C 199.22 242.10 198.77 243.90 198.22 245.68 C 198.11 246.09 197.89 246.91 197.77 247.32 C 197.23 249.10 196.78 250.90 196.23 252.68 C 196.11 253.09 195.85 253.91 195.72 254.32 C 195.34 255.64 195.02 256.98 194.71 258.32 C 194.20 260.10 193.77 261.90 193.25 263.68 C 193.13 264.09 192.89 264.91 192.77 265.32 C 192.23 267.10 191.78 268.90 191.24 270.68 C 191.10 271.09 190.84 271.91 190.71 272.32 C 190.34 273.65 190.03 274.99 189.72 276.34 C 189.35 277.36 188.99 278.38 188.64 279.41 C 188.30 280.70 188.00 282.01 187.71 283.32 C 187.21 285.07 186.80 286.85 186.32 288.61 C 185.98 289.63 185.63 290.64 185.28 291.66 C 184.97 293.00 184.66 294.35 184.29 295.68 C 184.16 296.09 183.90 296.92 183.77 297.33 C 183.22 299.10 182.77 300.90 182.23 302.68 C 182.11 303.09 181.87 303.91 181.75 304.31 C 181.22 306.09 180.81 307.89 180.32 309.68 C 179.95 311.04 179.58 312.40 179.11 313.74 C 178.96 316.08 178.85 318.48 179.68 320.72 C 179.80 321.13 180.03 321.96 180.14 322.38 C 180.40 322.92 180.91 324.02 181.17 324.56 C 182.70 328.23 186.09 330.39 189.61 331.87 C 190.03 331.98 190.87 332.20 191.28 332.30 C 193.99 333.33 196.96 333.24 199.69 332.38 C 201.02 332.03 202.35 331.69 203.67 331.32 C 205.01 330.99 206.35 330.66 207.68 330.28 C 208.09 330.15 208.91 329.89 209.32 329.77 C 211.10 329.22 212.90 328.77 214.68 328.23 C 215.09 328.11 215.91 327.87 216.32 327.76 C 218.09 327.23 219.90 326.80 221.68 326.29 C 223.01 325.97 224.35 325.65 225.68 325.28 C 226.09 325.15 226.91 324.89 227.32 324.77 C 229.10 324.22 230.90 323.77 232.68 323.23 C 233.09 323.11 233.91 322.89 234.32 322.77 C 236.10 322.22 237.90 321.77 239.68 321.23 C 240.09 321.11 240.91 320.89 241.32 320.77 C 243.09 320.22 244.90 319.77 246.68 319.23 C 247.09 319.10 247.91 318.85 248.32 318.72 C 249.64 318.34 250.98 318.02 252.33 317.70 C 254.10 317.19 255.90 316.77 257.68 316.24 C 258.09 316.13 258.91 315.89 259.32 315.77 C 261.09 315.22 262.89 314.77 264.67 314.23 C 265.08 314.11 265.90 313.87 266.32 313.75 C 268.09 313.22 269.89 312.80 271.68 312.29 C 273.02 311.97 274.35 311.65 275.68 311.28 C 276.09 311.15 276.92 310.89 277.33 310.77 C 279.10 310.22 280.90 309.77 282.68 309.23 C 283.09 309.11 283.91 308.88 284.32 308.77 C 286.10 308.22 287.90 307.78 289.68 307.24 C 290.09 307.10 290.91 306.84 291.33 306.70 C 292.66 306.34 294.02 306.04 295.38 305.75 C 295.93 305.52 297.04 305.07 297.59 304.85 C 301.48 302.94 304.24 299.44 305.80 295.45 C 306.05 294.06 306.33 292.67 306.68 291.31 C 306.82 290.90 307.10 290.08 307.24 289.67 C 307.78 287.90 308.22 286.10 308.76 284.33 C 308.89 283.91 309.15 283.09 309.28 282.68 C 309.65 281.35 309.97 280.02 310.29 278.68 C 310.80 276.90 311.23 275.09 311.76 273.32 C 311.87 272.91 312.11 272.09 312.23 271.68 C 312.77 269.90 313.22 268.10 313.77 266.32 C 313.89 265.91 314.11 265.09 314.23 264.68 C 314.77 262.90 315.22 261.09 315.77 259.32 C 315.89 258.91 316.13 258.09 316.25 257.68 C 316.77 255.90 317.19 254.10 317.70 252.32 C 318.02 250.98 318.34 249.64 318.72 248.32 C 318.85 247.91 319.10 247.09 319.23 246.68 C 319.77 244.90 320.23 243.10 320.77 241.32 C 320.89 240.91 321.11 240.09 321.22 239.67 C 321.77 237.90 322.22 236.11 322.77 234.34 C 322.89 233.92 323.15 233.09 323.28 232.67 C 323.65 231.35 323.97 230.02 324.29 228.70 C 324.80 226.91 325.22 225.11 325.75 223.33 C 325.87 222.92 326.11 222.08 326.23 221.66 C 326.77 219.89 327.23 218.09 327.77 216.32 C 327.89 215.91 328.11 215.09 328.23 214.68 C 328.77 212.90 329.22 211.10 329.77 209.32 C 329.90 208.91 330.16 208.09 330.29 207.68 C 330.66 206.36 330.97 205.01 331.28 203.68 C 331.80 201.86 332.25 200.03 332.91 198.26 C 333.05 195.92 333.12 193.52 332.32 191.28 C 332.21 190.86 331.98 190.02 331.87 189.60 C 330.28 185.13 326.87 181.70 322.39 180.13 C 321.97 180.02 321.13 179.80 320.72 179.69 C 318.01 178.68 315.04 178.74 312.31 179.62 Z" />
</g>
</svg>
