<?xml version="1.0" encoding="UTF-8" ?>
<!DOCTYPE svg PUBLIC "-//W3C//DTD SVG 1.1//EN" "http://www.w3.org/Graphics/SVG/1.1/DTD/svg11.dtd">
<svg width="512pt" height="512pt" viewBox="0 0 512 512" version="1.1" xmlns="http://www.w3.org/2000/svg">
<g id="#000000ff">
<path fill="currentColor" opacity="1.00" d=" M 269.61 44.65 C 275.18 41.50 282.67 42.16 287.51 46.38 C 291.23 49.45 293.44 54.22 293.33 59.05 C 293.37 94.48 293.28 129.91 293.37 165.35 C 330.57 165.32 367.78 165.34 404.99 165.34 C 417.10 165.31 429.23 167.79 440.27 172.80 C 458.95 181.12 474.37 196.44 482.87 215.04 C 488.06 226.27 490.69 238.64 490.66 251.00 C 490.68 282.34 490.66 313.68 490.67 345.02 C 490.62 354.31 491.06 363.71 489.22 372.88 C 485.91 391.15 476.35 408.18 462.57 420.60 C 446.76 435.04 425.39 443.04 404.00 442.67 C 319.01 442.66 234.02 442.69 149.04 442.65 C 128.52 442.65 108.13 434.90 92.82 421.23 C 74.82 405.49 64.03 381.89 64.02 357.97 C 63.98 322.31 64.01 286.66 64.00 251.00 C 63.89 233.23 69.51 215.48 79.90 201.05 C 95.29 179.30 121.32 165.53 148.00 165.36 C 185.77 165.29 223.55 165.35 261.33 165.33 C 261.34 209.34 261.32 253.35 261.34 297.36 C 249.25 285.27 237.15 273.18 225.06 261.09 C 221.73 257.56 216.82 255.61 211.97 256.10 C 204.98 256.50 198.75 262.18 197.63 269.07 C 196.70 274.09 198.24 279.51 201.88 283.13 C 216.01 297.33 230.20 311.47 244.36 325.64 C 249.41 330.64 254.21 336.17 260.77 339.25 C 274.56 346.34 292.58 343.46 303.49 332.44 C 319.86 316.17 336.15 299.82 352.47 283.49 C 358.43 277.91 358.93 267.67 353.47 261.59 C 349.16 256.38 341.43 254.63 335.23 257.21 C 331.59 258.62 329.06 261.69 326.36 264.35 C 315.36 275.36 304.35 286.37 293.34 297.37 C 293.33 253.36 293.33 209.35 293.34 165.33 C 282.67 165.33 272.00 165.34 261.33 165.33 C 261.34 129.88 261.33 94.42 261.34 58.97 C 261.18 53.14 264.48 47.41 269.61 44.65 Z" />
</g>
</svg>
