<?xml version="1.0" encoding="UTF-8" ?>
<!DOCTYPE svg PUBLIC "-//W3C//DTD SVG 1.1//EN" "http://www.w3.org/Graphics/SVG/1.1/DTD/svg11.dtd">
<svg width="512pt" height="512pt" viewBox="0 0 512 512" version="1.1" xmlns="http://www.w3.org/2000/svg">
<g id="#000000ff">
<path fill="currentColor" opacity="1.00" d=" M 261.35 63.94 C 261.19 56.27 267.34 49.17 274.94 48.18 C 281.78 47.01 288.96 50.98 291.81 57.26 C 293.34 60.25 293.38 63.68 293.35 66.96 C 293.28 145.60 293.40 224.24 293.29 302.87 C 305.42 290.49 317.77 278.32 330.01 266.05 C 334.25 261.66 341.06 260.24 346.77 262.29 C 353.53 264.61 358.12 271.87 357.20 278.99 C 356.91 283.67 354.02 287.61 350.67 290.65 C 334.97 306.29 319.35 322.01 303.64 337.64 C 295.95 345.31 284.83 349.35 274.02 348.32 C 265.26 347.60 256.90 343.55 250.73 337.33 C 234.52 321.16 218.34 304.95 202.15 288.76 C 198.26 285.03 196.60 279.30 197.69 274.05 C 198.98 267.30 205.12 261.82 212.00 261.43 C 216.72 260.98 221.51 262.79 224.81 266.18 C 236.99 278.39 249.24 290.54 261.39 302.79 C 261.27 223.18 261.35 143.56 261.35 63.94 Z" />
<path fill="currentColor" opacity="1.00" d=" M 134.52 155.75 C 140.98 154.78 147.52 154.61 154.05 154.66 C 167.01 154.71 179.98 154.58 192.95 154.72 C 201.65 154.96 208.92 163.48 207.92 172.09 C 207.37 180.04 200.07 186.79 192.09 186.65 C 177.41 186.71 162.73 186.62 148.06 186.69 C 133.08 186.90 118.24 192.19 106.50 201.49 C 93.20 211.89 83.89 227.29 81.05 243.96 C 79.68 251.22 80.04 258.64 80.00 265.99 C 80.00 298.00 80.00 330.01 80.00 362.02 C 79.96 369.88 81.18 377.75 83.75 385.17 C 90.56 405.39 107.28 421.90 127.56 428.49 C 135.43 431.14 143.77 432.16 152.05 432.01 C 236.37 431.99 320.69 432.01 405.01 432.00 C 419.57 432.07 434.12 427.45 445.90 418.87 C 460.84 408.17 471.20 391.30 473.86 373.11 C 474.90 366.78 474.64 360.35 474.67 353.97 C 474.67 321.64 474.67 289.32 474.67 257.00 C 474.73 248.64 473.40 240.25 470.52 232.38 C 463.73 213.38 448.20 197.76 429.22 190.90 C 421.47 188.05 413.21 186.65 404.96 186.67 C 390.64 186.63 376.32 186.73 362.01 186.63 C 353.53 186.47 346.13 178.57 346.68 170.07 C 346.79 161.97 353.94 154.78 362.06 154.71 C 377.02 154.63 391.99 154.65 406.96 154.70 C 433.63 154.96 459.91 166.43 478.31 185.72 C 496.13 204.06 506.51 229.37 506.64 254.95 C 506.69 290.99 506.67 327.04 506.65 363.08 C 506.62 385.61 498.78 408.03 484.70 425.62 C 469.35 445.09 446.62 458.61 422.12 462.59 C 411.86 464.43 401.40 463.93 391.02 464.00 C 310.33 463.99 229.64 464.02 148.95 463.99 C 125.58 463.99 102.38 455.49 84.48 440.50 C 61.95 421.92 48.19 393.23 48.03 364.01 C 47.96 328.34 48.02 292.67 48.00 256.99 C 47.92 244.30 50.12 231.58 54.70 219.73 C 67.27 186.12 98.95 160.63 134.52 155.75 Z" />
</g>
</svg>
