<?xml version="1.0" encoding="UTF-8" ?>
<!DOCTYPE svg PUBLIC "-//W3C//DTD SVG 1.1//EN" "http://www.w3.org/Graphics/SVG/1.1/DTD/svg11.dtd">
<svg width="512pt" height="512pt" viewBox="0 0 512 512" version="1.1" xmlns="http://www.w3.org/2000/svg">
<g id="#000000ff">
<path fill="currentColor" opacity="1.00" d=" M 72.85 58.78 C 86.44 49.07 104.27 45.66 120.48 49.66 C 140.75 54.34 157.54 70.70 163.16 90.67 C 254.42 90.66 345.69 90.67 436.96 90.67 C 445.76 90.24 453.73 98.25 453.32 107.04 C 453.32 115.56 445.50 123.02 436.99 122.66 C 345.71 122.68 254.42 122.65 163.14 122.68 C 159.25 136.11 150.52 148.09 138.79 155.73 C 126.36 163.93 110.71 167.11 96.08 164.32 C 82.02 161.80 69.03 153.87 60.32 142.56 C 50.32 129.80 46.02 112.74 48.88 96.78 C 51.37 81.58 60.25 67.61 72.85 58.78 Z" />
<path fill="currentColor" opacity="1.00" d=" M 259.04 205.00 C 272.34 197.34 288.70 195.36 303.48 199.42 C 322.99 204.55 339.03 220.56 344.44 239.97 C 375.64 240.08 406.86 239.91 438.07 240.05 C 446.70 240.17 454.04 248.45 453.29 257.02 C 452.94 265.28 445.29 272.32 437.02 271.99 C 406.16 272.03 375.29 271.95 344.43 272.03 C 340.40 286.21 330.85 298.73 318.18 306.28 C 303.06 315.50 283.68 317.19 267.17 310.82 C 250.10 304.42 236.46 289.63 231.59 272.05 C 179.38 271.92 127.17 272.05 74.96 271.99 C 66.37 272.32 58.47 264.68 58.67 256.05 C 58.44 247.78 65.61 240.19 73.90 240.05 C 126.47 239.88 179.04 240.13 231.61 239.93 C 235.68 225.27 245.81 212.48 259.04 205.00 Z" />
<path fill="currentColor" opacity="1.00" d=" M 73.19 357.20 C 86.64 347.77 104.13 344.40 120.11 348.25 C 140.52 352.79 157.51 369.24 163.14 389.33 C 254.43 389.35 345.72 389.33 437.01 389.34 C 445.18 388.99 452.73 395.86 453.26 403.99 C 453.98 410.83 449.61 417.65 443.29 420.17 C 439.71 421.66 435.76 421.30 431.99 421.34 C 342.38 421.32 252.76 421.34 163.15 421.33 C 159.16 435.07 150.13 447.31 137.98 454.92 C 125.66 462.76 110.32 465.72 95.98 462.97 C 81.59 460.37 68.35 452.09 59.65 440.35 C 50.04 427.57 46.02 410.73 48.95 395.01 C 51.56 379.84 60.55 365.94 73.19 357.20 Z" />
</g>
</svg>
