<?xml version="1.0" encoding="UTF-8" ?>
<!DOCTYPE svg PUBLIC "-//W3C//DTD SVG 1.1//EN" "http://www.w3.org/Graphics/SVG/1.1/DTD/svg11.dtd">
<svg width="512pt" height="512pt" viewBox="0 0 512 512" version="1.1" xmlns="http://www.w3.org/2000/svg">
<g id="currentColor">
<path fill="currentColor" opacity="1.00" d=" M 236.53 112.83 C 275.42 109.56 315.16 116.15 350.71 132.34 C 395.37 152.44 433.17 187.28 456.93 230.11 C 466.31 245.75 466.27 266.37 456.87 281.99 C 438.57 314.86 412.05 343.08 380.43 363.46 C 339.42 390.07 289.72 402.78 240.96 399.49 C 205.38 397.23 170.36 386.50 139.64 368.40 C 106.94 349.23 79.13 321.84 59.47 289.43 C 56.20 283.87 52.69 278.36 50.66 272.19 C 46.28 259.33 47.37 244.72 53.68 232.69 C 75.31 192.40 109.35 158.93 149.94 137.89 C 176.76 123.90 206.38 115.32 236.53 112.83 M 238.49 144.78 C 207.57 147.46 177.32 157.57 151.05 174.09 C 122.52 191.88 98.70 217.11 82.53 246.58 C 79.48 251.85 79.15 258.62 81.87 264.10 C 109.10 315.30 160.09 353.11 217.05 364.12 C 251.79 371.10 288.42 368.60 321.83 356.77 C 367.57 340.82 406.84 307.30 429.85 264.68 C 432.68 259.33 432.68 252.61 429.82 247.27 C 411.37 213.17 382.57 184.82 348.27 166.76 C 314.83 149.00 276.18 141.42 238.49 144.78 Z" />
<path fill="currentColor" opacity="1.00" d=" M 253.22 176.25 C 281.63 174.51 309.95 190.27 324.46 214.61 C 334.29 230.73 338.04 250.42 334.91 269.04 C 331.98 287.29 322.39 304.34 308.42 316.41 C 295.56 327.65 279.02 334.55 261.99 335.76 C 243.10 337.25 223.78 331.70 208.58 320.40 C 188.05 305.48 175.38 280.30 176.06 254.89 C 176.38 246.75 183.87 239.80 192.00 240.01 C 200.51 239.77 208.12 247.45 207.99 255.92 C 207.99 268.99 213.50 281.94 223.06 290.86 C 232.84 300.18 246.68 305.03 260.14 303.78 C 275.13 302.64 289.21 293.81 296.95 280.96 C 304.61 268.61 306.07 252.72 300.92 239.15 C 294.39 221.15 276.23 208.15 257.04 208.06 C 249.42 208.46 241.92 202.99 240.38 195.45 C 238.24 186.90 244.51 177.53 253.22 176.25 Z" />
</g>
</svg>
