<?xml version="1.0" encoding="UTF-8" ?>
<!DOCTYPE svg PUBLIC "-//W3C//DTD SVG 1.1//EN" "http://www.w3.org/Graphics/SVG/1.1/DTD/svg11.dtd">
<svg width="512pt" height="512pt" viewBox="0 0 512 512" version="1.1" xmlns="http://www.w3.org/2000/svg">
<g id="#000000ff">
<path fill="currentColor" opacity="1.00" d=" M 250.38 39.55 C 274.60 38.14 299.21 45.80 318.29 60.79 C 357.76 91.94 397.25 123.05 436.66 154.26 C 460.09 172.84 474.44 202.21 474.63 232.12 C 474.71 272.77 474.64 313.42 474.67 354.07 C 474.56 368.40 475.50 382.97 471.86 397.00 C 464.61 428.16 441.55 455.00 411.93 467.04 C 399.93 471.98 386.97 474.56 373.99 474.65 C 364.00 474.70 354.02 474.64 344.04 474.67 C 337.79 474.84 331.44 473.92 325.75 471.23 C 312.97 465.48 304.10 452.06 304.03 438.01 C 303.93 416.34 304.06 394.66 303.97 372.99 C 303.99 362.41 297.00 352.30 287.13 348.54 C 281.39 346.10 275.06 346.74 268.99 346.67 C 257.01 346.72 245.02 346.56 233.04 346.75 C 219.89 347.20 208.40 358.82 208.07 371.97 C 207.91 389.99 208.05 408.02 208.00 426.05 C 207.92 434.50 208.73 443.32 205.27 451.28 C 199.79 465.34 185.16 475.05 170.07 474.66 C 150.96 474.17 131.42 476.44 112.74 471.29 C 90.01 465.33 69.59 451.15 56.03 431.96 C 44.03 415.19 37.43 394.65 37.35 374.02 C 37.31 331.69 37.35 289.35 37.33 247.02 C 37.40 237.31 36.93 227.53 38.53 217.91 C 42.27 193.09 55.67 169.91 75.32 154.29 C 111.61 125.60 147.93 96.96 184.23 68.29 C 189.90 63.90 195.35 59.20 201.43 55.36 C 216.02 45.98 233.06 40.48 250.38 39.55 M 242.53 72.73 C 229.67 75.14 218.02 81.72 208.18 90.16 C 170.74 119.71 133.30 149.27 95.86 178.82 C 79.40 191.61 69.32 212.13 69.35 232.98 C 69.32 279.68 69.34 326.39 69.34 373.09 C 69.27 386.33 73.09 399.58 80.28 410.71 C 90.06 426.06 106.10 437.27 123.91 441.07 C 134.45 443.47 145.31 442.44 156.02 442.67 C 160.99 442.61 165.97 442.77 170.94 442.61 C 173.78 442.60 176.16 439.92 175.97 437.11 C 176.08 415.09 175.90 393.06 176.06 371.04 C 176.69 347.82 192.57 326.03 214.47 318.30 C 227.38 313.20 241.45 314.98 254.99 314.67 C 264.99 314.90 275.05 314.13 285.02 315.21 C 307.19 317.81 326.79 334.41 333.26 355.73 C 336.89 366.45 335.87 377.88 336.00 388.99 C 336.02 405.02 335.96 421.05 336.02 437.07 C 335.81 439.91 338.21 442.61 341.07 442.61 C 351.73 442.74 362.40 442.63 373.07 442.66 C 386.82 442.71 400.56 438.60 411.96 430.89 C 431.59 417.95 443.54 394.53 442.67 371.05 C 442.66 328.04 442.67 285.04 442.67 242.03 C 442.64 235.67 442.89 229.26 441.86 222.95 C 439.32 205.68 429.90 189.58 416.16 178.82 C 377.05 147.94 337.96 117.03 298.81 86.20 C 283.19 73.80 262.07 68.77 242.53 72.73 Z" />
</g>
</svg>
