<?xml version="1.0" encoding="UTF-8" ?>
<!DOCTYPE svg PUBLIC "-//W3C//DTD SVG 1.1//EN" "http://www.w3.org/Graphics/SVG/1.1/DTD/svg11.dtd">
<svg width="512pt" height="512pt" viewBox="0 0 512 512" version="1.1" xmlns="http://www.w3.org/2000/svg">
<g id="#000000ff">
<path fill="currentColor" opacity="1.00" d=" M 196.01 74.22 C 212.57 60.89 233.73 53.51 254.97 53.35 C 276.87 53.07 298.83 60.43 315.93 74.16 C 351.63 102.84 387.32 131.54 422.99 160.25 C 446.21 178.71 459.70 208.36 458.67 237.99 C 458.65 279.66 458.69 321.32 458.65 362.99 C 458.64 382.10 452.71 401.13 441.87 416.86 C 424.49 442.57 394.07 458.80 363.00 458.65 C 345.11 458.68 327.22 458.66 309.34 458.66 C 309.33 429.43 309.34 400.21 309.33 370.98 C 309.34 364.34 309.55 357.60 308.00 351.10 C 304.63 335.72 293.99 322.17 279.90 315.17 C 266.76 308.52 250.80 307.69 237.07 313.02 C 217.37 320.25 203.11 340.03 202.74 361.05 C 202.57 393.59 202.72 426.12 202.66 458.66 C 189.11 458.67 175.56 458.66 162.01 458.67 C 152.71 458.62 143.35 459.02 134.15 457.45 C 111.03 453.82 89.51 441.30 74.81 423.12 C 63.19 408.88 55.78 391.24 53.89 372.95 C 53.11 365.99 53.38 358.98 53.33 351.99 C 53.36 312.33 53.28 272.67 53.37 233.01 C 53.69 205.28 66.93 178.10 88.50 160.69 C 124.31 131.84 160.17 103.04 196.01 74.22 Z" />
</g>
</svg>
