<?xml version="1.0" encoding="UTF-8" ?>
<!DOCTYPE svg PUBLIC "-//W3C//DTD SVG 1.1//EN" "http://www.w3.org/Graphics/SVG/1.1/DTD/svg11.dtd">
<svg width="512pt" height="512pt" viewBox="0 0 512 512" version="1.1" xmlns="http://www.w3.org/2000/svg">
<g id="currentColor">
<path fill="currentColor" opacity="1.00" d=" M 239.31 27.32 C 277.38 24.52 316.14 31.29 350.87 47.18 C 404.18 71.26 447.47 116.56 468.99 170.96 C 487.68 217.49 490.37 270.20 476.67 318.43 C 467.41 351.43 450.48 382.23 427.76 407.89 C 403.44 435.42 372.43 457.02 338.11 470.15 C 295.30 486.66 247.50 489.72 202.89 479.08 C 149.79 466.65 101.76 434.34 69.98 390.06 C 49.61 361.92 35.78 329.07 29.99 294.81 C 22.95 253.62 27.26 210.49 42.73 171.65 C 58.95 130.42 87.53 94.22 123.72 68.70 C 157.51 44.69 197.97 30.24 239.31 27.32 M 235.49 59.76 C 195.59 63.80 157.15 80.50 126.89 106.80 C 100.61 129.52 80.44 159.27 69.25 192.17 C 55.88 231.16 55.22 274.36 67.29 313.77 C 77.08 345.86 95.29 375.32 119.55 398.48 C 141.50 419.55 168.38 435.43 197.45 444.44 C 244.13 459.04 296.23 455.48 340.39 434.39 C 374.16 418.43 403.19 392.63 423.05 360.99 C 442.62 330.06 453.19 293.57 453.28 256.97 C 453.56 219.96 443.11 182.95 423.44 151.59 C 404.21 120.74 376.31 95.38 343.75 79.22 C 310.49 62.59 272.45 55.89 235.49 59.76 Z" />
<path fill="currentColor" opacity="1.00" d=" M 263.41 133.67 C 272.44 131.48 282.12 138.81 282.57 148.05 C 282.80 155.41 282.62 162.77 282.66 170.13 C 282.88 175.98 279.64 181.70 274.56 184.56 C 267.57 188.80 257.77 186.34 253.37 179.53 C 250.08 175.03 250.66 169.22 250.66 163.97 C 250.76 158.63 250.48 153.29 250.77 147.95 C 251.17 141.07 256.68 134.97 263.41 133.67 Z" />
<path fill="currentColor" opacity="1.00" d=" M 223.98 218.69 C 238.30 218.57 252.62 218.83 266.94 218.53 C 273.00 218.48 278.69 222.37 281.26 227.79 C 283.60 232.17 282.68 237.25 282.67 241.99 C 282.63 282.36 282.73 322.73 282.63 363.10 C 282.64 371.37 275.21 378.69 266.96 378.65 C 258.52 378.99 250.66 371.57 250.71 363.08 C 250.61 325.61 250.70 288.14 250.66 250.67 C 241.77 250.63 232.87 250.72 223.97 250.65 C 217.63 250.72 211.58 246.55 209.19 240.72 C 204.63 230.78 213.04 218.22 223.98 218.69 Z" />
</g>
</svg>
