<?xml version="1.0" encoding="UTF-8" ?>
<!DOCTYPE svg PUBLIC "-//W3C//DTD SVG 1.1//EN" "http://www.w3.org/Graphics/SVG/1.1/DTD/svg11.dtd">
<svg width="943pt" height="796pt" viewBox="0 0 943 796" version="1.1" xmlns="http://www.w3.org/2000/svg">
<g id="#f1f0f1ff">
<path fill="#f1f0f1" opacity="1.00" d=" M 228.59 32.98 C 319.86 -7.83 427.27 -10.66 520.60 25.20 C 557.32 39.23 592.06 58.75 622.63 83.49 C 620.94 84.60 619.28 85.72 617.63 86.88 C 618.87 96.17 621.33 105.26 624.57 114.05 C 625.75 117.65 627.80 120.87 629.81 124.06 C 628.21 122.51 626.61 120.97 624.96 119.48 C 617.53 112.78 611.73 104.50 606.64 95.95 C 592.36 109.68 581.58 127.10 576.21 146.20 C 571.87 162.15 564.58 177.51 553.74 190.09 C 552.38 191.64 550.97 193.15 549.53 194.62 C 549.28 193.08 549.02 191.54 548.96 189.98 C 548.99 161.30 549.02 132.61 548.94 103.93 C 549.04 94.45 540.54 86.01 531.05 86.23 C 463.02 86.18 394.99 86.21 326.96 86.22 C 322.97 86.25 318.98 85.71 315.00 86.02 C 307.94 86.81 300.83 86.60 293.78 87.44 C 278.50 87.89 263.20 87.83 247.93 87.13 C 226.47 85.93 205.14 82.87 184.10 78.54 C 181.70 77.84 178.52 76.59 177.80 74.08 C 179.84 65.68 186.39 58.63 194.40 55.49 C 199.05 53.63 204.16 53.74 209.08 53.50 C 219.65 53.06 230.12 50.59 239.69 46.06 C 236.56 41.25 232.88 36.80 228.59 32.98 Z" />
<path fill="#f1f0f1" opacity="1.00" d=" M 266.23 92.25 C 283.40 92.10 300.57 92.08 317.74 92.25 C 317.82 120.50 317.80 148.74 317.76 176.99 C 307.52 177.51 297.25 177.06 287.00 177.21 C 282.45 177.09 277.87 177.56 273.36 176.82 C 271.18 148.62 268.59 120.44 266.23 92.25 Z" />
<path fill="#f1f0f1" opacity="1.00" d=" M 323.99 92.17 C 362.36 92.17 400.72 92.12 439.09 92.19 C 439.41 120.49 439.36 148.83 439.10 177.13 C 400.68 177.22 362.25 177.32 323.83 177.08 C 323.56 151.05 323.88 125.02 323.71 98.99 C 323.67 96.71 323.79 94.44 323.99 92.17 Z" />
<path fill="#f1f0f1" opacity="1.00" d=" M 445.25 92.21 C 462.76 92.16 480.28 92.03 497.79 92.27 C 495.31 120.47 492.88 148.67 490.60 176.88 C 485.09 177.55 479.54 177.09 474.02 177.21 C 464.42 177.07 454.81 177.47 445.23 177.02 C 445.23 148.75 445.17 120.48 445.25 92.21 Z" />
<path fill="#f1f0f1" opacity="1.00" d=" M 94.56 131.60 C 106.47 118.53 118.80 105.79 132.23 94.24 C 134.09 100.78 137.32 106.81 141.05 112.46 C 149.47 110.08 158.18 108.43 166.97 108.94 C 186.01 109.91 204.02 117.93 219.38 128.87 C 223.90 132.57 228.85 135.75 233.04 139.86 C 237.60 144.33 242.83 148.12 246.94 153.05 C 247.86 153.90 247.50 155.17 247.55 156.27 C 236.55 158.69 225.50 160.91 214.32 162.34 C 213.78 167.21 214.05 172.10 214.01 176.98 C 214.01 231.97 214.02 286.96 214.01 341.95 C 214.16 356.62 213.18 371.30 214.01 385.97 C 213.70 400.64 213.66 415.33 213.71 430.01 C 213.82 448.00 213.42 466.00 214.03 483.99 C 213.87 533.22 214.27 582.47 213.82 631.70 C 206.21 631.71 198.59 631.63 190.98 631.68 C 185.89 631.63 180.73 632.61 176.30 635.19 C 166.60 640.49 160.98 652.14 162.90 663.04 C 164.31 672.71 171.58 681.12 180.81 684.19 C 185.01 685.80 189.56 685.73 193.98 685.68 C 264.14 685.55 334.30 685.81 404.46 685.55 C 413.46 703.98 422.58 722.36 431.43 740.87 C 432.98 740.76 434.52 740.66 436.08 740.54 C 437.39 747.09 438.57 753.67 439.98 760.20 C 438.70 760.84 437.43 761.48 436.17 762.14 C 436.38 762.75 436.80 763.97 437.01 764.58 C 387.09 771.40 335.82 768.52 287.05 755.81 C 215.10 737.21 149.02 696.94 99.25 641.78 C 73.32 613.17 51.73 580.62 35.49 545.60 C 12.55 496.33 0.50 442.12 0.00 387.81 L 0.00 380.16 C 0.34 353.94 3.19 327.73 8.80 302.10 C 19.86 251.06 41.64 202.42 72.15 160.05 C 66.11 158.36 58.44 159.23 54.16 153.81 C 55.95 145.22 62.63 137.99 70.71 134.77 C 78.31 131.72 86.79 133.76 94.56 131.60 Z" />
<path fill="#f1f0f1" opacity="1.00" d=" M 274.09 183.15 C 288.63 183.21 303.17 183.07 317.72 183.22 C 317.86 214.48 317.77 245.75 317.78 277.01 C 305.88 277.41 293.96 277.20 282.06 277.11 C 279.38 245.79 276.58 214.48 274.09 183.15 Z" />
<path fill="#f1f0f1" opacity="1.00" d=" M 323.92 183.16 C 362.31 183.18 400.70 183.11 439.09 183.20 C 439.51 201.13 439.13 219.07 439.27 237.01 C 439.17 250.38 439.45 263.76 439.13 277.12 C 400.71 277.26 362.29 277.29 323.88 277.10 C 323.53 247.76 323.90 218.40 323.70 189.04 C 323.68 187.08 323.79 185.12 323.92 183.16 Z" />
<path fill="#f1f0f1" opacity="1.00" d=" M 445.24 183.21 C 460.13 183.10 475.02 183.16 489.91 183.18 C 488.20 205.91 485.99 228.60 484.21 251.32 C 479.01 259.44 474.56 268.07 471.46 277.21 C 462.71 277.05 453.95 277.52 445.21 276.97 C 445.23 245.71 445.19 214.46 445.24 183.21 Z" />
<path fill="#f1f0f1" opacity="1.00" d=" M 282.82 283.15 C 294.46 283.21 306.10 283.04 317.74 283.24 C 317.64 300.63 318.21 318.05 317.43 335.43 C 315.80 330.88 312.20 326.28 307.05 325.89 C 304.74 325.50 302.94 327.09 301.30 328.43 C 296.79 325.23 291.51 323.08 285.96 322.74 C 284.93 309.54 283.34 296.37 282.82 283.15 Z" />
<path fill="#f1f0f1" opacity="1.00" d=" M 323.92 283.18 C 362.31 283.16 400.71 283.13 439.11 283.18 C 439.39 304.05 439.34 324.95 439.12 345.82 C 438.45 346.59 437.79 347.38 437.17 348.20 C 424.12 348.18 411.07 348.24 398.03 348.21 C 394.07 348.51 392.70 343.62 389.09 342.85 C 385.06 341.87 380.78 341.91 376.72 342.61 C 372.38 343.17 370.76 349.10 366.03 348.25 C 351.97 348.05 337.91 348.43 323.86 348.08 C 323.70 326.45 323.56 304.80 323.92 283.18 Z" />
<path fill="#f1f0f1" opacity="1.00" d=" M 445.27 283.23 C 453.06 283.13 460.86 283.08 468.66 283.20 C 468.77 283.67 469.00 284.62 469.11 285.09 C 463.82 305.72 464.56 327.86 471.24 348.09 C 467.23 348.25 463.22 348.27 459.21 348.05 C 455.77 343.93 450.38 342.09 445.10 342.75 C 445.42 322.91 445.04 303.07 445.27 283.23 Z" />
<path fill="#f1f0f1" opacity="1.00" d=" M 324.85 368.03 C 355.44 368.42 386.05 367.88 416.64 368.30 C 414.41 370.45 412.16 372.57 409.78 374.55 C 409.54 373.25 409.30 371.95 409.07 370.65 C 392.15 384.38 376.13 399.22 359.48 413.26 C 357.38 414.25 355.03 414.52 352.80 415.09 C 335.14 419.29 317.45 423.37 299.81 427.63 C 299.12 423.45 298.10 419.34 297.21 415.21 C 296.71 413.06 294.61 411.94 293.04 410.64 C 293.02 408.38 293.01 406.13 293.01 403.87 C 304.02 404.47 314.84 407.23 324.88 411.78 C 329.24 403.52 334.24 394.74 333.29 385.05 C 332.89 379.36 329.36 374.50 325.08 370.98 C 325.02 370.24 324.90 368.77 324.85 368.03 Z" />
<path fill="#f1f0f1" opacity="1.00" d=" M 442.94 369.83 C 447.61 370.98 452.41 370.27 456.66 368.08 C 462.44 368.15 468.23 368.18 474.02 368.15 C 471.57 401.74 468.33 435.29 465.59 468.86 C 461.18 520.56 456.72 572.26 452.36 623.96 C 452.16 625.59 451.75 627.19 451.32 628.79 C 438.38 602.72 425.52 576.61 412.53 550.57 C 407.83 541.26 397.32 535.28 386.90 536.29 C 377.73 536.98 370.72 543.60 362.98 547.84 C 360.34 546.40 357.81 544.78 355.38 543.03 C 357.34 542.91 359.09 540.40 356.56 539.47 C 348.11 534.29 339.75 528.97 331.43 523.58 C 332.80 515.08 334.59 506.63 335.24 498.04 C 335.49 488.03 333.34 478.00 329.39 468.82 C 328.54 466.85 327.14 465.20 325.81 463.55 C 337.08 461.94 348.32 460.13 359.45 457.77 C 363.36 456.80 367.90 456.94 370.96 453.93 C 381.07 444.92 388.91 433.77 397.02 423.03 C 403.00 415.02 408.54 406.70 414.37 398.58 C 423.72 388.84 433.26 379.24 442.94 369.83 Z" />
<path fill="#f1f0f1" opacity="1.00" d=" M 549.00 420.71 C 555.16 422.29 561.45 423.29 567.77 423.95 L 567.76 424.97 C 565.37 425.05 563.03 425.49 560.73 426.10 C 561.36 428.55 562.02 430.99 562.73 433.44 C 561.06 431.26 559.45 429.12 557.84 426.93 C 555.07 428.05 552.32 429.23 549.71 430.70 C 548.63 427.47 548.97 424.05 549.00 420.71 Z" />
<path fill="#f1f0f1" opacity="1.00" d=" M 584.28 424.46 C 588.46 425.18 592.71 425.02 596.94 424.98 C 605.23 425.02 613.46 426.30 621.69 427.18 C 622.97 427.43 624.25 427.69 625.53 427.98 C 622.49 435.43 620.05 443.12 616.81 450.47 C 610.33 438.05 598.29 428.70 584.59 425.67 L 584.28 424.46 Z" />
<path fill="#f1f0f1" opacity="1.00" d=" M 726.02 459.77 C 736.47 464.09 747.42 466.95 758.43 469.43 C 753.55 491.96 745.97 513.80 737.36 535.14 C 737.36 532.05 736.28 529.13 735.55 526.18 C 730.12 504.44 726.92 482.15 726.02 459.77 Z" />
<path fill="#f1f0f1" opacity="1.00" d=" M 591.58 519.05 C 594.41 517.68 597.21 516.25 599.82 514.49 C 599.38 518.82 598.59 523.11 597.96 527.42 C 595.83 524.63 593.71 521.83 591.58 519.05 Z" />
<path fill="#f1f0f1" opacity="1.00" d=" M 550.78 549.89 C 553.85 547.42 556.60 544.60 559.17 541.61 C 571.12 555.75 583.01 569.93 594.95 584.07 C 596.42 585.61 596.35 587.86 596.62 589.85 C 599.65 621.72 610.67 653.03 629.64 678.94 L 631.03 678.32 C 582.25 719.14 523.37 747.91 460.96 760.45 C 459.65 757.52 458.46 754.54 457.16 751.61 C 456.70 751.84 455.77 752.30 455.31 752.53 C 454.89 747.98 454.57 743.42 454.22 738.87 C 455.85 738.70 457.48 738.52 459.12 738.37 C 453.68 720.89 448.19 703.43 442.74 685.95 C 444.58 685.79 446.42 685.64 448.27 685.50 C 448.64 686.09 449.39 687.28 449.76 687.87 C 451.22 687.05 452.68 686.25 454.15 685.43 C 456.23 689.56 458.03 693.83 459.97 698.03 C 458.86 698.62 457.76 699.23 456.68 699.86 C 460.66 710.93 464.58 722.03 468.43 733.16 C 471.75 731.95 474.94 730.44 478.13 728.94 C 477.36 725.70 476.57 722.47 475.80 719.24 C 478.64 721.52 481.42 723.88 484.22 726.21 C 492.71 722.39 501.26 718.66 509.70 714.71 C 514.76 712.72 514.26 704.39 508.93 703.15 C 499.84 701.05 490.56 699.89 481.46 697.84 C 480.18 694.86 478.86 691.89 477.56 688.92 C 476.08 689.64 474.61 690.36 473.15 691.12 C 472.64 689.35 472.13 687.58 471.60 685.84 C 505.38 685.41 539.18 685.76 572.97 685.65 C 580.13 685.49 587.71 686.57 594.39 683.32 C 605.19 678.80 612.00 666.61 610.18 655.04 C 608.73 642.57 597.50 632.16 584.94 631.78 C 573.00 631.51 561.06 631.77 549.12 631.69 C 548.79 606.46 549.13 581.22 548.93 555.98 C 548.76 553.77 549.44 551.64 550.78 549.89 Z" />
<path fill="#f1f0f1" opacity="1.00" d=" M 323.07 565.92 C 324.00 561.52 324.56 557.05 325.72 552.71 C 326.33 552.65 327.55 552.53 328.17 552.46 C 329.61 552.96 330.94 553.69 332.33 554.37 C 336.31 555.71 340.13 557.49 343.73 559.71 C 337.77 563.33 331.84 566.98 325.92 570.66 C 326.36 569.11 326.80 567.55 327.24 566.00 C 325.85 565.96 324.46 565.94 323.07 565.92 Z" />
</g>
<g id="#ff6584ff">
<path fill="#ff6584" opacity="1.00" d=" M 144.92 37.96 C 155.72 25.77 171.72 18.36 188.01 18.09 C 202.77 17.73 217.56 23.16 228.59 32.98 C 232.88 36.80 236.56 41.25 239.69 46.06 C 230.12 50.59 219.65 53.06 209.08 53.50 C 204.16 53.74 199.05 53.63 194.40 55.49 C 186.39 58.63 179.84 65.68 177.80 74.08 C 178.52 76.59 181.70 77.84 184.10 78.54 C 205.14 82.87 226.47 85.93 247.93 87.13 C 245.09 104.39 234.30 119.86 219.38 128.87 C 204.02 117.93 186.01 109.91 166.97 108.94 C 158.18 108.43 149.47 110.08 141.05 112.46 C 137.32 106.81 134.09 100.78 132.23 94.24 C 126.34 74.95 131.37 52.88 144.92 37.96 Z" />
<path fill="#ff6584" opacity="1.00" d=" M 567.77 423.95 C 577.46 424.64 587.17 423.61 596.88 424.12 L 596.94 424.98 C 592.71 425.02 588.46 425.18 584.28 424.46 L 584.59 425.67 C 579.06 424.41 573.37 424.61 567.76 424.97 L 567.77 423.95 Z" />
</g>
<g id="#e21221ff">
<path fill="#e21221" opacity="1.00" d=" M 672.61 65.80 C 676.90 64.28 681.53 65.27 685.99 64.99 C 688.51 65.17 691.35 64.34 693.59 65.89 C 696.24 66.18 699.14 65.42 701.59 66.78 C 704.95 67.12 708.31 67.65 711.53 68.72 C 713.90 69.33 716.31 69.82 718.56 70.82 C 719.03 70.89 719.97 71.02 720.44 71.08 C 721.45 71.69 722.47 72.30 723.50 72.91 C 723.99 72.97 724.98 73.07 725.47 73.12 C 730.48 75.61 735.65 77.76 740.45 80.71 C 756.37 90.19 769.79 103.63 779.29 119.54 C 780.73 122.67 782.91 125.39 784.25 128.57 C 791.06 141.57 802.36 151.98 815.57 158.24 C 816.53 158.75 817.51 159.26 818.49 159.78 C 819.51 160.05 820.53 160.34 821.57 160.64 C 822.55 161.02 823.55 161.41 824.55 161.81 C 825.02 161.91 825.96 162.11 826.43 162.20 C 827.42 162.59 828.42 162.98 829.44 163.36 C 831.77 164.01 834.13 164.60 836.47 165.28 C 837.44 165.61 838.42 165.93 839.42 166.22 C 840.45 166.76 841.49 167.32 842.52 167.90 C 843.02 167.94 844.01 168.03 844.51 168.07 C 845.49 168.68 846.49 169.30 847.49 169.93 C 847.96 169.97 848.92 170.06 849.39 170.11 C 851.40 171.24 853.47 172.28 855.57 173.26 C 857.18 174.09 858.80 174.92 860.44 175.73 C 862.33 176.68 866.55 177.82 864.29 180.58 C 864.01 181.93 863.78 183.30 863.23 184.57 C 863.11 185.03 862.88 185.95 862.76 186.41 C 861.90 187.95 861.97 189.71 861.80 191.41 C 860.43 194.74 861.03 198.56 859.80 201.99 L 860.70 201.98 C 861.30 200.48 861.95 198.99 862.69 197.54 C 863.70 195.42 865.00 193.45 866.26 191.47 C 867.86 188.25 870.44 185.66 872.44 182.69 C 878.41 186.97 884.55 191.07 889.83 196.21 C 894.88 200.03 899.52 204.51 903.35 209.57 C 910.79 217.73 917.49 226.70 922.71 236.46 C 924.33 239.09 926.06 241.69 927.23 244.58 C 927.77 245.55 928.33 246.53 928.91 247.50 C 928.96 248.00 929.06 248.99 929.11 249.48 C 930.04 251.16 930.95 252.84 931.90 254.51 C 931.94 255.01 932.03 256.01 932.07 256.51 C 932.68 257.50 933.30 258.49 933.92 259.49 C 933.98 259.98 934.09 260.97 934.14 261.46 C 934.70 262.81 935.27 264.17 935.84 265.54 C 935.93 266.01 936.11 266.96 936.20 267.44 C 937.16 269.69 937.66 272.09 938.29 274.45 C 938.82 275.72 939.02 277.08 939.28 278.43 C 940.01 279.99 940.00 281.73 940.21 283.41 C 941.65 285.59 940.29 288.47 941.87 290.60 C 942.07 293.09 941.57 295.78 943.00 298.01 L 943.00 331.12 C 941.41 333.23 942.15 335.97 941.88 338.40 C 940.58 340.15 941.08 342.39 940.84 344.40 C 939.66 346.27 940.25 348.63 939.28 350.58 C 939.02 351.92 938.78 353.28 938.31 354.57 C 937.81 356.55 937.31 358.52 936.76 360.49 C 936.21 361.82 935.76 363.18 935.31 364.54 C 934.94 365.56 934.57 366.57 934.18 367.57 C 934.12 368.05 933.98 369.00 933.91 369.47 C 933.29 370.48 932.68 371.48 932.08 372.50 C 932.03 372.99 931.94 373.98 931.89 374.48 C 929.68 377.94 928.82 382.03 926.73 385.56 C 925.21 389.02 922.94 392.06 921.29 395.45 C 916.72 402.60 911.96 409.71 906.35 416.09 C 901.24 416.47 896.87 419.44 892.11 421.03 C 877.13 427.23 861.10 430.59 844.97 431.88 C 836.92 431.61 828.81 432.47 820.81 431.28 C 806.49 429.54 792.21 426.49 778.83 421.03 C 766.93 415.91 755.16 410.48 743.05 405.86 C 713.25 394.90 681.99 387.37 650.24 385.53 C 641.89 384.22 633.40 385.08 624.99 384.94 C 614.09 384.34 603.38 382.15 592.82 379.47 C 596.06 374.96 601.55 373.11 605.77 369.79 C 605.88 369.07 606.10 367.64 606.21 366.92 C 599.43 366.91 592.96 369.45 586.58 371.50 C 584.05 372.13 581.48 374.57 578.82 373.22 C 574.10 371.10 569.46 368.72 565.23 365.73 C 557.38 360.08 549.61 354.12 543.65 346.43 C 533.22 334.85 526.00 320.68 521.25 305.93 C 518.03 295.90 517.26 285.35 516.09 274.97 C 516.29 272.97 516.82 271.02 517.00 269.01 C 517.08 255.63 521.05 242.55 526.32 230.34 C 528.65 224.11 532.43 218.59 535.95 212.99 C 537.77 209.86 541.80 207.35 540.76 203.24 C 543.66 200.35 546.60 197.49 549.53 194.62 C 550.97 193.15 552.38 191.64 553.74 190.09 C 555.03 190.02 556.32 189.95 557.61 189.88 C 567.42 180.81 580.33 176.07 590.41 167.35 C 593.60 164.59 597.05 162.08 599.80 158.85 C 604.86 152.81 610.11 146.86 614.03 139.99 C 616.93 134.79 619.71 129.51 622.01 124.02 C 622.68 122.32 623.63 120.75 624.96 119.48 C 626.61 120.97 628.21 122.51 629.81 124.06 C 627.80 120.87 625.75 117.65 624.57 114.05 C 625.90 112.29 626.91 110.31 627.39 108.14 C 629.58 99.79 633.53 92.06 637.41 84.39 C 639.48 80.14 643.22 76.80 644.35 72.09 C 644.90 71.90 646.00 71.52 646.56 71.33 C 647.56 70.96 648.56 70.59 649.57 70.21 C 650.04 70.11 650.97 69.90 651.44 69.79 C 653.97 68.68 656.70 68.15 659.43 67.73 C 659.97 67.56 661.06 67.22 661.60 67.05 C 663.09 72.98 668.54 76.42 671.94 81.15 C 673.87 83.90 676.77 86.06 680.23 86.25 C 679.87 82.20 677.37 78.89 675.83 75.25 C 674.50 72.19 673.62 68.96 672.61 65.80 Z" />
<path fill="#e21221" opacity="1.00" d=" M 359.48 413.26 C 376.13 399.22 392.15 384.38 409.07 370.65 C 409.30 371.95 409.54 373.25 409.78 374.55 C 411.23 382.57 412.86 390.57 414.37 398.58 C 408.54 406.70 403.00 415.02 397.02 423.03 C 388.91 433.77 381.07 444.92 370.96 453.93 C 367.90 456.94 363.36 456.80 359.45 457.77 C 348.32 460.13 337.08 461.94 325.81 463.55 C 327.14 465.20 328.54 466.85 329.39 468.82 C 333.34 478.00 335.49 488.03 335.24 498.04 C 334.59 506.63 332.80 515.08 331.43 523.58 C 339.75 528.97 348.11 534.29 356.56 539.47 C 359.09 540.40 357.34 542.91 355.38 543.03 C 347.58 546.56 340.42 551.51 332.33 554.37 C 330.94 553.69 329.61 552.96 328.17 552.46 C 323.99 551.07 319.79 549.77 315.65 548.29 C 314.34 547.91 312.94 547.21 311.57 547.79 C 294.02 553.85 276.62 560.59 258.49 564.80 C 256.99 565.08 255.48 565.37 253.98 565.66 C 250.77 554.85 251.26 543.44 249.77 532.36 C 248.75 518.89 247.36 505.46 246.22 492.00 C 246.01 488.42 244.17 485.29 242.89 482.03 C 239.00 472.62 235.38 463.01 233.50 452.97 C 232.11 444.58 233.19 434.91 239.86 428.91 C 242.75 425.41 247.27 424.35 251.47 423.31 C 253.72 420.66 256.65 418.78 260.11 418.18 C 261.63 414.59 262.38 410.68 264.46 407.33 C 273.94 408.73 283.48 410.02 293.04 410.64 C 294.61 411.94 296.71 413.06 297.21 415.21 C 298.10 419.34 299.12 423.45 299.81 427.63 C 317.45 423.37 335.14 419.29 352.80 415.09 C 355.03 414.52 357.38 414.25 359.48 413.26 Z" />
<path fill="#e21221" opacity="1.00" d=" M 564.36 441.31 C 585.79 435.77 609.75 448.26 618.42 468.40 C 619.51 470.60 619.37 474.20 622.56 474.33 C 622.85 486.94 616.19 498.16 608.93 507.93 C 605.61 509.72 603.11 512.65 599.82 514.49 C 597.21 516.25 594.41 517.68 591.58 519.05 C 584.05 522.78 576.24 526.32 569.92 531.99 C 566.58 535.49 562.07 537.65 559.17 541.61 C 556.60 544.60 553.85 547.42 550.78 549.89 C 549.57 550.70 548.30 551.41 547.04 552.12 C 547.10 550.05 547.23 547.99 547.38 545.93 C 546.28 548.64 546.17 552.14 543.78 554.05 C 533.41 558.19 521.05 557.22 511.59 551.23 C 504.95 547.34 500.03 540.89 497.53 533.66 C 500.82 528.04 500.44 521.30 499.93 515.06 C 499.83 513.09 498.73 511.46 497.21 510.30 C 497.15 505.78 496.81 501.20 495.31 496.90 C 494.04 493.23 491.94 489.95 490.29 486.45 C 493.21 486.27 496.14 486.10 499.06 485.93 C 499.05 485.27 499.01 483.95 498.99 483.30 C 495.14 482.13 491.48 480.28 487.42 479.93 L 487.42 479.93 C 489.47 477.14 490.47 473.83 491.31 470.53 C 492.97 470.55 494.65 470.54 496.33 470.55 C 494.78 470.14 493.25 469.76 491.74 469.29 C 497.62 457.79 509.75 449.36 522.95 450.04 C 529.55 450.83 536.22 451.64 542.88 450.91 C 548.61 449.26 553.11 444.90 558.87 443.26 C 560.65 445.27 562.00 448.44 565.16 448.30 C 565.04 445.95 564.78 443.61 564.36 441.31 Z" />
</g>
<g id="#c00f1cff">
<path fill="#c00f1c" opacity="1.00" d=" M 665.61 66.11 C 667.93 66.01 670.28 66.08 672.61 65.80 C 673.62 68.96 674.50 72.19 675.83 75.25 C 677.37 78.89 679.87 82.20 680.23 86.25 C 676.77 86.06 673.87 83.90 671.94 81.15 C 668.54 76.42 663.09 72.98 661.60 67.05 C 663.03 67.12 664.37 66.80 665.61 66.11 Z" />
<path fill="#c00f1c" opacity="1.00" d=" M 643.64 72.32 L 644.35 72.09 C 643.22 76.80 639.48 80.14 637.41 84.39 C 633.53 92.06 629.58 99.79 627.39 108.14 C 626.91 110.31 625.90 112.29 624.57 114.05 C 621.33 105.26 618.87 96.17 617.63 86.88 C 619.28 85.72 620.94 84.60 622.63 83.49 C 622.78 83.19 623.06 82.59 623.20 82.29 C 629.90 78.78 636.37 74.61 643.64 72.32 Z" />
<path fill="#c00f1c" opacity="1.00" d=" M 576.21 146.20 C 581.58 127.10 592.36 109.68 606.64 95.95 C 611.73 104.50 617.53 112.78 624.96 119.48 C 623.63 120.75 622.68 122.32 622.01 124.02 C 619.71 129.51 616.93 134.79 614.03 139.99 C 610.11 146.86 604.86 152.81 599.80 158.85 C 597.05 162.08 593.60 164.59 590.41 167.35 C 580.33 176.07 567.42 180.81 557.61 189.88 C 556.32 189.95 555.03 190.02 553.74 190.09 C 564.58 177.51 571.87 162.15 576.21 146.20 Z" />
<path fill="#c00f1c" opacity="1.00" d=" M 521.41 216.49 C 528.23 212.66 534.99 208.56 540.76 203.24 C 541.80 207.35 537.77 209.86 535.95 212.99 C 532.43 218.59 528.65 224.11 526.32 230.34 C 521.05 242.55 517.08 255.63 517.00 269.01 C 516.82 271.02 516.29 272.97 516.09 274.97 C 517.26 285.35 518.03 295.90 521.25 305.93 C 526.00 320.68 533.22 334.85 543.65 346.43 C 549.61 354.12 557.38 360.08 565.23 365.73 C 569.46 368.72 574.10 371.10 578.82 373.22 C 581.48 374.57 584.05 372.13 586.58 371.50 C 592.96 369.45 599.43 366.91 606.21 366.92 C 606.10 367.64 605.88 369.07 605.77 369.79 C 601.55 373.11 596.06 374.96 592.82 379.47 C 603.38 382.15 614.09 384.34 624.99 384.94 C 633.40 385.08 641.89 384.22 650.24 385.53 C 681.99 387.37 713.25 394.90 743.05 405.86 C 755.16 410.48 766.93 415.91 778.83 421.03 C 792.21 426.49 806.49 429.54 820.81 431.28 C 828.81 432.47 836.92 431.61 844.97 431.88 C 861.10 430.59 877.13 427.23 892.11 421.03 C 896.87 419.44 901.24 416.47 906.35 416.09 C 901.32 422.41 895.78 428.46 889.29 433.30 C 882.10 440.35 873.37 445.52 864.97 450.95 C 859.20 454.07 853.19 456.70 847.46 459.89 C 846.98 459.95 846.03 460.07 845.56 460.13 C 843.63 461.26 841.52 462.02 839.44 462.82 C 838.97 462.91 838.05 463.11 837.58 463.21 C 836.57 463.58 835.56 463.94 834.55 464.30 C 833.16 464.78 831.79 465.26 830.44 465.81 C 829.98 465.91 829.06 466.12 828.61 466.23 C 827.28 466.70 825.92 466.99 824.57 467.31 C 822.58 468.13 820.30 467.75 818.42 468.83 C 817.13 468.95 815.86 469.04 814.60 469.17 C 812.40 470.65 809.51 469.33 807.33 470.87 C 804.45 470.96 801.54 470.88 798.75 471.66 C 794.20 472.43 789.57 471.81 784.99 472.00 C 780.86 471.83 776.65 472.50 772.61 471.47 C 769.99 470.78 767.27 471.03 764.61 470.88 C 762.73 469.73 760.46 470.05 758.43 469.43 C 747.42 466.95 736.47 464.09 726.02 459.77 C 712.71 454.11 699.64 447.84 685.92 443.22 C 665.11 435.74 643.51 430.65 621.69 427.18 C 613.46 426.30 605.23 425.02 596.94 424.98 L 596.88 424.12 C 587.17 423.61 577.46 424.64 567.77 423.95 C 561.45 423.29 555.16 422.29 549.00 420.71 C 545.87 419.96 542.80 418.97 539.76 417.93 C 544.61 413.05 550.69 409.81 556.31 405.97 C 547.27 407.46 538.65 410.73 530.19 414.14 C 502.63 401.36 480.69 377.00 471.24 348.09 C 464.56 327.86 463.82 305.72 469.11 285.09 C 469.78 282.43 470.55 279.80 471.46 277.21 C 474.56 268.07 479.01 259.44 484.21 251.32 C 493.77 237.10 506.54 225.03 521.41 216.49 Z" />
<path fill="#c00f1c" opacity="1.00" d=" M 560.73 426.10 C 563.03 425.49 565.37 425.05 567.76 424.97 C 573.37 424.61 579.06 424.41 584.59 425.67 C 598.29 428.70 610.33 438.05 616.81 450.47 C 620.71 457.78 622.57 466.07 622.56 474.33 C 619.37 474.20 619.51 470.60 618.42 468.40 C 609.75 448.26 585.79 435.77 564.36 441.31 C 564.78 443.61 565.04 445.95 565.16 448.30 C 562.00 448.44 560.65 445.27 558.87 443.26 C 553.11 444.90 548.61 449.26 542.88 450.91 C 536.22 451.64 529.55 450.83 522.95 450.04 C 509.75 449.36 497.62 457.79 491.74 469.29 C 489.74 468.19 487.80 466.98 485.85 465.81 C 487.04 450.77 499.05 437.45 513.95 434.90 C 519.97 433.43 526.08 434.72 532.03 435.88 C 538.43 437.01 544.46 434.01 549.71 430.70 C 552.32 429.23 555.07 428.05 557.84 426.93 C 559.45 429.12 561.06 431.26 562.73 433.44 C 562.02 430.99 561.36 428.55 560.73 426.10 Z" />
<path fill="#c00f1c" opacity="1.00" d=" M 485.78 470.17 C 487.62 470.32 489.45 470.46 491.31 470.53 C 490.47 473.83 489.47 477.14 487.42 479.93 C 486.46 476.75 486.03 473.46 485.78 470.17 Z" />
<path fill="#c00f1c" opacity="1.00" d=" M 487.42 479.93 C 491.48 480.28 495.14 482.13 498.99 483.30 C 499.01 483.95 499.05 485.27 499.06 485.93 C 496.14 486.10 493.21 486.27 490.29 486.45 C 489.29 484.30 488.27 482.15 487.42 479.93 Z" />
<path fill="#c00f1c" opacity="1.00" d=" M 497.21 510.30 C 498.73 511.46 499.83 513.09 499.93 515.06 C 500.44 521.30 500.82 528.04 497.53 533.66 C 495.23 526.06 495.32 517.97 497.21 510.30 Z" />
</g>
<g id="#ccccccff">
<path fill="#cccccc" opacity="1.00" d=" M 293.78 87.44 C 300.83 86.60 307.94 86.81 315.00 86.02 C 318.98 85.71 322.97 86.25 326.96 86.22 C 394.99 86.21 463.02 86.18 531.05 86.23 C 540.54 86.01 549.04 94.45 548.94 103.93 C 549.02 132.61 548.99 161.30 548.96 189.98 C 549.02 191.54 549.28 193.08 549.53 194.62 C 546.60 197.49 543.66 200.35 540.76 203.24 C 534.99 208.56 528.23 212.66 521.41 216.49 C 506.54 225.03 493.77 237.10 484.21 251.32 C 485.99 228.60 488.20 205.91 489.91 183.18 C 475.02 183.16 460.13 183.10 445.24 183.21 C 445.19 214.46 445.23 245.71 445.21 276.97 C 453.95 277.52 462.71 277.05 471.46 277.21 C 470.55 279.80 469.78 282.43 469.11 285.09 C 469.00 284.62 468.77 283.67 468.66 283.20 C 460.86 283.08 453.06 283.13 445.27 283.23 C 445.04 303.07 445.42 322.91 445.10 342.75 C 443.02 343.59 441.00 344.59 439.12 345.82 C 439.34 324.95 439.39 304.05 439.11 283.18 C 400.71 283.13 362.31 283.16 323.92 283.18 C 323.56 304.80 323.70 326.45 323.86 348.08 C 337.91 348.43 351.97 348.05 366.03 348.25 C 370.76 349.10 372.38 343.17 376.72 342.61 C 380.78 341.91 385.06 341.87 389.09 342.85 C 392.70 343.62 394.07 348.51 398.03 348.21 C 411.07 348.24 424.12 348.18 437.17 348.20 C 435.75 350.08 434.27 351.93 432.50 353.50 C 427.09 358.30 422.04 363.48 416.64 368.30 C 386.05 367.88 355.44 368.42 324.85 368.03 C 324.27 359.64 320.89 351.62 315.76 345.00 C 317.69 342.15 318.14 338.75 317.43 335.43 C 318.21 318.05 317.64 300.63 317.74 283.24 C 306.10 283.04 294.46 283.21 282.82 283.15 C 283.34 296.37 284.93 309.54 285.96 322.74 C 276.36 322.71 266.00 321.40 257.37 326.61 C 248.60 319.67 235.04 332.66 240.81 341.91 C 233.48 349.77 229.15 360.21 228.87 370.97 C 225.68 374.20 223.68 378.49 223.55 383.06 C 223.13 392.94 226.37 402.46 229.16 411.81 C 250.02 406.74 271.44 402.55 293.01 403.87 C 293.01 406.13 293.02 408.38 293.04 410.64 C 283.48 410.02 273.94 408.73 264.46 407.33 C 262.38 410.68 261.63 414.59 260.11 418.18 C 256.65 418.78 253.72 420.66 251.47 423.31 C 247.27 424.35 242.75 425.41 239.86 428.91 C 233.19 434.91 232.11 444.58 233.50 452.97 C 235.38 463.01 239.00 472.62 242.89 482.03 C 244.17 485.29 246.01 488.42 246.22 492.00 C 247.36 505.46 248.75 518.89 249.77 532.36 C 251.26 543.44 250.77 554.85 253.98 565.66 C 246.20 578.12 235.18 588.41 228.74 601.72 C 224.30 610.44 224.61 621.55 230.39 629.59 C 234.71 636.06 242.10 639.53 249.39 641.48 C 260.91 642.99 272.36 645.18 283.98 645.82 C 316.69 647.96 349.44 644.30 381.66 638.91 C 389.26 654.45 396.86 670.00 404.46 685.55 C 334.30 685.81 264.14 685.55 193.98 685.68 C 189.56 685.73 185.01 685.80 180.81 684.19 C 171.58 681.12 164.31 672.71 162.90 663.04 C 160.98 652.14 166.60 640.49 176.30 635.19 C 180.73 632.61 185.89 631.63 190.98 631.68 C 198.59 631.63 206.21 631.71 213.82 631.70 C 214.27 582.47 213.87 533.22 214.03 483.99 C 213.42 466.00 213.82 448.00 213.71 430.01 C 213.66 415.33 213.70 400.64 214.01 385.97 C 213.18 371.30 214.16 356.62 214.01 341.95 C 214.02 286.96 214.01 231.97 214.01 176.98 C 214.05 172.10 213.78 167.21 214.32 162.34 C 225.50 160.91 236.55 158.69 247.55 156.27 C 247.50 155.17 247.86 153.90 246.94 153.05 C 242.83 148.12 237.60 144.33 233.04 139.86 C 228.85 135.75 223.90 132.57 219.38 128.87 C 234.30 119.86 245.09 104.39 247.93 87.13 C 263.20 87.83 278.50 87.89 293.78 87.44 M 266.23 92.25 C 268.59 120.44 271.18 148.62 273.36 176.82 C 277.87 177.56 282.45 177.09 287.00 177.21 C 297.25 177.06 307.52 177.51 317.76 176.99 C 317.80 148.74 317.82 120.50 317.74 92.25 C 300.57 92.08 283.40 92.10 266.23 92.25 M 323.99 92.17 C 323.79 94.44 323.67 96.71 323.71 98.99 C 323.88 125.02 323.56 151.05 323.83 177.08 C 362.25 177.32 400.68 177.22 439.10 177.13 C 439.36 148.83 439.41 120.49 439.09 92.19 C 400.72 92.12 362.36 92.17 323.99 92.17 M 445.25 92.21 C 445.17 120.48 445.23 148.75 445.23 177.02 C 454.81 177.47 464.42 177.07 474.02 177.21 C 479.54 177.09 485.09 177.55 490.60 176.88 C 492.88 148.67 495.31 120.47 497.79 92.27 C 480.28 92.03 462.76 92.16 445.25 92.21 M 274.09 183.15 C 276.58 214.48 279.38 245.79 282.06 277.11 C 293.96 277.20 305.88 277.41 317.78 277.01 C 317.77 245.75 317.86 214.48 317.72 183.22 C 303.17 183.07 288.63 183.21 274.09 183.15 M 323.92 183.16 C 323.79 185.12 323.68 187.08 323.70 189.04 C 323.90 218.40 323.53 247.76 323.88 277.10 C 362.29 277.29 400.71 277.26 439.13 277.12 C 439.45 263.76 439.17 250.38 439.27 237.01 C 439.13 219.07 439.51 201.13 439.09 183.20 C 400.70 183.11 362.31 183.18 323.92 183.16 Z" />
<path fill="#cccccc" opacity="1.00" d=" M 459.21 348.05 C 463.22 348.27 467.23 348.25 471.24 348.09 C 480.69 377.00 502.63 401.36 530.19 414.14 C 538.65 410.73 547.27 407.46 556.31 405.97 C 550.69 409.81 544.61 413.05 539.76 417.93 C 542.80 418.97 545.87 419.96 549.00 420.71 C 548.97 424.05 548.63 427.47 549.71 430.70 C 544.46 434.01 538.43 437.01 532.03 435.88 C 526.08 434.72 519.97 433.43 513.95 434.90 C 499.05 437.45 487.04 450.77 485.85 465.81 C 487.80 466.98 489.74 468.19 491.74 469.29 C 493.25 469.76 494.78 470.14 496.33 470.55 C 494.65 470.54 492.97 470.55 491.31 470.53 C 489.45 470.46 487.62 470.32 485.78 470.17 C 486.03 473.46 486.46 476.75 487.42 479.93 L 487.42 479.93 C 488.27 482.15 489.29 484.30 490.29 486.45 C 491.94 489.95 494.04 493.23 495.31 496.90 C 496.81 501.20 497.15 505.78 497.21 510.30 C 495.32 517.97 495.23 526.06 497.53 533.66 C 500.03 540.89 504.95 547.34 511.59 551.23 C 521.05 557.22 533.41 558.19 543.78 554.05 C 546.17 552.14 546.28 548.64 547.38 545.93 C 547.23 547.99 547.10 550.05 547.04 552.12 C 548.30 551.41 549.57 550.70 550.78 549.89 C 549.44 551.64 548.76 553.77 548.93 555.98 C 549.13 581.22 548.79 606.46 549.12 631.69 C 561.06 631.77 573.00 631.51 584.94 631.78 C 597.50 632.16 608.73 642.57 610.18 655.04 C 612.00 666.61 605.19 678.80 594.39 683.32 C 587.71 686.57 580.13 685.49 572.97 685.65 C 539.18 685.76 505.38 685.41 471.60 685.84 C 470.69 682.93 469.76 680.02 468.90 677.10 C 470.55 676.16 472.20 675.20 473.85 674.26 C 466.38 659.08 458.85 643.94 451.32 628.79 C 451.75 627.19 452.16 625.59 452.36 623.96 C 456.72 572.26 461.18 520.56 465.59 468.86 C 468.33 435.29 471.57 401.74 474.02 368.15 C 468.23 368.18 462.44 368.15 456.66 368.08 C 459.23 365.26 461.63 361.94 461.89 358.00 C 462.35 354.46 461.02 351.02 459.21 348.05 M 480.96 611.92 C 475.72 612.27 473.23 619.44 476.75 623.17 C 478.75 625.79 482.29 625.95 485.23 625.16 C 486.89 628.78 486.47 634.66 491.02 636.00 C 496.98 636.45 502.98 636.05 508.96 636.21 C 511.33 636.32 514.39 635.97 515.31 633.37 C 517.27 627.59 519.04 621.73 520.73 615.86 C 521.60 613.01 519.02 609.94 516.07 610.27 C 506.69 610.21 497.30 610.27 487.92 610.24 C 485.43 610.01 483.42 611.85 480.96 611.92 Z" />
<path fill="#cccccc" opacity="1.00" d=" M 477.44 620.62 C 475.96 617.27 478.69 613.73 482.13 613.47 C 482.40 616.88 483.73 620.05 484.59 623.34 C 481.92 624.08 478.48 623.57 477.44 620.62 Z" />
<path fill="#cccccc" opacity="1.00" d=" M 437.07 667.65 C 440.94 673.51 444.52 679.56 448.27 685.50 C 446.42 685.64 444.58 685.79 442.74 685.95 C 440.88 679.84 438.87 673.77 437.07 667.65 Z" />
</g>
<g id="#37364cff">
<path fill="#37364c" opacity="1.00" d=" M 257.37 326.61 C 266.00 321.40 276.36 322.71 285.96 322.74 C 291.51 323.08 296.79 325.23 301.30 328.43 C 302.94 327.09 304.74 325.50 307.05 325.89 C 312.20 326.28 315.80 330.88 317.43 335.43 C 318.14 338.75 317.69 342.15 315.76 345.00 C 320.89 351.62 324.27 359.64 324.85 368.03 C 324.90 368.77 325.02 370.24 325.08 370.98 C 329.36 374.50 332.89 379.36 333.29 385.05 C 334.24 394.74 329.24 403.52 324.88 411.78 C 314.84 407.23 304.02 404.47 293.01 403.87 C 271.44 402.55 250.02 406.74 229.16 411.81 C 226.37 402.46 223.13 392.94 223.55 383.06 C 223.68 378.49 225.68 374.20 228.87 370.97 C 229.15 360.21 233.48 349.77 240.81 341.91 C 235.04 332.66 248.60 319.67 257.37 326.61 M 254.90 357.01 C 249.42 370.38 255.49 387.06 268.34 393.69 C 280.57 400.62 297.40 397.15 305.77 385.82 C 312.20 377.72 313.67 366.27 309.89 356.69 C 308.02 357.50 306.02 357.95 303.98 357.89 C 291.63 358.02 279.29 358.26 266.95 358.49 C 262.88 358.58 258.82 358.08 254.90 357.01 Z" />
<path fill="#37364c" opacity="1.00" d=" M 621.69 427.18 C 643.51 430.65 665.11 435.74 685.92 443.22 C 699.64 447.84 712.71 454.11 726.02 459.77 C 726.92 482.15 730.12 504.44 735.55 526.18 C 736.28 529.13 737.36 532.05 737.36 535.14 C 713.84 590.32 677.09 639.90 631.03 678.32 L 629.64 678.94 C 610.67 653.03 599.65 621.72 596.62 589.85 C 596.35 587.86 596.42 585.61 594.95 584.07 C 583.01 569.93 571.12 555.75 559.17 541.61 C 562.07 537.65 566.58 535.49 569.92 531.99 C 576.24 526.32 584.05 522.78 591.58 519.05 C 593.71 521.83 595.83 524.63 597.96 527.42 C 598.59 523.11 599.38 518.82 599.82 514.49 C 603.11 512.65 605.61 509.72 608.93 507.93 C 616.19 498.16 622.85 486.94 622.56 474.33 C 622.57 466.07 620.71 457.78 616.81 450.47 C 620.05 443.12 622.49 435.43 625.53 427.98 C 624.25 427.69 622.97 427.43 621.69 427.18 Z" />
<path fill="#37364c" opacity="1.00" d=" M 362.98 547.84 C 370.72 543.60 377.73 536.98 386.90 536.29 C 397.32 535.28 407.83 541.26 412.53 550.57 C 425.52 576.61 438.38 602.72 451.32 628.79 C 458.85 643.94 466.38 659.08 473.85 674.26 C 472.20 675.20 470.55 676.16 468.90 677.10 C 463.97 679.86 459.06 682.64 454.15 685.43 C 452.68 686.25 451.22 687.05 449.76 687.87 C 449.39 687.28 448.64 686.09 448.27 685.50 C 444.52 679.56 440.94 673.51 437.07 667.65 C 438.87 673.77 440.88 679.84 442.74 685.95 C 448.19 703.43 453.68 720.89 459.12 738.37 C 457.48 738.52 455.85 738.70 454.22 738.87 C 448.17 739.48 442.12 739.99 436.08 740.54 C 434.52 740.66 432.98 740.76 431.43 740.87 C 422.58 722.36 413.46 703.98 404.46 685.55 C 396.86 670.00 389.26 654.45 381.66 638.91 C 349.44 644.30 316.69 647.96 283.98 645.82 C 272.36 645.18 260.91 642.99 249.39 641.48 C 242.10 639.53 234.71 636.06 230.39 629.59 C 224.61 621.55 224.30 610.44 228.74 601.72 C 235.18 588.41 246.20 578.12 253.98 565.66 C 255.48 565.37 256.99 565.08 258.49 564.80 C 280.02 565.32 301.54 565.51 323.07 565.92 C 324.46 565.94 325.85 565.96 327.24 566.00 C 326.80 567.55 326.36 569.11 325.92 570.66 C 331.84 566.98 337.77 563.33 343.73 559.71 C 352.26 564.29 360.84 568.76 369.32 573.42 C 369.46 577.66 370.65 582.10 374.02 584.94 C 379.47 590.10 389.00 589.47 393.79 583.71 C 398.55 578.50 398.26 569.66 393.15 564.80 C 390.40 561.76 386.09 561.39 382.74 559.33 C 376.18 555.45 369.58 551.65 362.98 547.84 Z" />
<path fill="#37364c" opacity="1.00" d=" M 480.96 611.92 C 483.42 611.85 485.43 610.01 487.92 610.24 C 497.30 610.27 506.69 610.21 516.07 610.27 C 519.02 609.94 521.60 613.01 520.73 615.86 C 519.04 621.73 517.27 627.59 515.31 633.37 C 514.39 635.97 511.33 636.32 508.96 636.21 C 502.98 636.05 496.98 636.45 491.02 636.00 C 486.47 634.66 486.89 628.78 485.23 625.16 C 482.29 625.95 478.75 625.79 476.75 623.17 C 473.23 619.44 475.72 612.27 480.96 611.92 M 477.44 620.62 C 478.48 623.57 481.92 624.08 484.59 623.34 C 483.73 620.05 482.40 616.88 482.13 613.47 C 478.69 613.73 475.96 617.27 477.44 620.62 Z" />
<path fill="#37364c" opacity="1.00" d=" M 473.15 691.12 C 474.61 690.36 476.08 689.64 477.56 688.92 C 478.86 691.89 480.18 694.86 481.46 697.84 C 490.56 699.89 499.84 701.05 508.93 703.15 C 514.26 704.39 514.76 712.72 509.70 714.71 C 501.26 718.66 492.71 722.39 484.22 726.21 C 481.42 723.88 478.64 721.52 475.80 719.24 C 476.57 722.47 477.36 725.70 478.13 728.94 C 474.94 730.44 471.75 731.95 468.43 733.16 C 464.58 722.03 460.66 710.93 456.68 699.86 C 457.76 699.23 458.86 698.62 459.97 698.03 C 464.37 695.72 468.76 693.43 473.15 691.12 Z" />
<path fill="#37364c" opacity="1.00" d=" M 455.31 752.53 C 455.77 752.30 456.70 751.84 457.16 751.61 C 458.46 754.54 459.65 757.52 460.96 760.45 C 469.97 763.27 479.53 763.97 488.62 766.55 C 493.65 768.11 493.88 776.04 488.96 777.94 C 480.45 781.77 471.82 785.36 463.23 789.02 C 460.47 786.60 457.71 784.19 454.92 781.82 C 455.62 785.11 456.34 788.41 457.04 791.71 C 454.04 793.05 450.99 794.26 447.94 795.48 L 448.76 796.00 L 447.69 796.00 C 443.81 785.64 440.65 775.02 437.01 764.58 C 436.80 763.97 436.38 762.75 436.17 762.14 C 437.43 761.48 438.70 760.84 439.98 760.20 C 445.09 757.66 450.19 755.07 455.31 752.53 Z" />
</g>
<g id="#ffb6b6ff">
<path fill="#ffb6b6" opacity="1.00" d=" M 439.12 345.82 C 441.00 344.59 443.02 343.59 445.10 342.75 C 450.38 342.09 455.77 343.93 459.21 348.05 C 461.02 351.02 462.35 354.46 461.89 358.00 C 461.63 361.94 459.23 365.26 456.66 368.08 C 452.41 370.27 447.61 370.98 442.94 369.83 C 433.26 379.24 423.72 388.84 414.37 398.58 C 412.86 390.57 411.23 382.57 409.78 374.55 C 412.16 372.57 414.41 370.45 416.64 368.30 C 422.04 363.48 427.09 358.30 432.50 353.50 C 434.27 351.93 435.75 350.08 437.17 348.20 C 437.79 347.38 438.45 346.59 439.12 345.82 Z" />
<path fill="#ffb6b6" opacity="1.00" d=" M 254.90 357.01 C 258.82 358.08 262.88 358.58 266.95 358.49 C 279.29 358.26 291.63 358.02 303.98 357.89 C 306.02 357.95 308.02 357.50 309.89 356.69 C 313.67 366.27 312.20 377.72 305.77 385.82 C 297.40 397.15 280.57 400.62 268.34 393.69 C 255.49 387.06 249.42 370.38 254.90 357.01 Z" />
<path fill="#ffb6b6" opacity="1.00" d=" M 332.33 554.37 C 340.42 551.51 347.58 546.56 355.38 543.03 C 357.81 544.78 360.34 546.40 362.98 547.84 C 369.58 551.65 376.18 555.45 382.74 559.33 C 386.09 561.39 390.40 561.76 393.15 564.80 C 398.26 569.66 398.55 578.50 393.79 583.71 C 389.00 589.47 379.47 590.10 374.02 584.94 C 370.65 582.10 369.46 577.66 369.32 573.42 C 360.84 568.76 352.26 564.29 343.73 559.71 C 340.13 557.49 336.31 555.71 332.33 554.37 Z" />
<path fill="#ffb6b6" opacity="1.00" d=" M 311.57 547.79 C 312.94 547.21 314.34 547.91 315.65 548.29 C 319.79 549.77 323.99 551.07 328.17 552.46 C 327.55 552.53 326.33 552.65 325.72 552.71 C 324.56 557.05 324.00 561.52 323.07 565.92 C 301.54 565.51 280.02 565.32 258.49 564.80 C 276.62 560.59 294.02 553.85 311.57 547.79 Z" />
<path fill="#ffb6b6" opacity="1.00" d=" M 454.15 685.43 C 459.06 682.64 463.97 679.86 468.90 677.10 C 469.76 680.02 470.69 682.93 471.60 685.84 C 472.13 687.58 472.64 689.35 473.15 691.12 C 468.76 693.43 464.37 695.72 459.97 698.03 C 458.03 693.83 456.23 689.56 454.15 685.43 Z" />
<path fill="#ffb6b6" opacity="1.00" d=" M 436.08 740.54 C 442.12 739.99 448.17 739.48 454.22 738.87 C 454.57 743.42 454.89 747.98 455.31 752.53 C 450.19 755.07 445.09 757.66 439.98 760.20 C 438.57 753.67 437.39 747.09 436.08 740.54 Z" />
</g>
</svg>
