<?xml version="1.0" encoding="UTF-8" ?>
<!DOCTYPE svg PUBLIC "-//W3C//DTD SVG 1.1//EN" "http://www.w3.org/Graphics/SVG/1.1/DTD/svg11.dtd">
<svg width="502pt" height="503pt" viewBox="0 0 502 503" version="1.1" xmlns="http://www.w3.org/2000/svg">
<g id="#e21221ff">
<path fill="#e21221" opacity="1.00" d=" M 12.95 14.60 C 39.27 14.15 65.61 14.53 91.94 14.41 C 99.30 14.54 106.69 14.10 114.03 14.69 C 117.56 22.49 120.08 30.74 123.97 38.35 C 124.40 40.24 124.97 42.11 126.14 43.67 C 127.05 48.19 129.72 52.08 130.65 56.55 C 133.01 60.92 134.90 65.71 136.59 70.44 C 138.96 73.71 138.95 78.48 141.67 81.40 C 141.84 82.77 141.98 84.14 142.10 85.51 C 142.42 85.47 143.04 85.37 143.36 85.33 C 144.21 87.31 143.06 90.92 145.88 91.32 C 145.96 92.73 146.04 94.13 146.11 95.54 C 146.43 95.49 147.06 95.40 147.38 95.35 C 147.75 97.06 148.05 98.79 148.31 100.53 C 150.57 101.01 149.87 103.48 150.23 105.17 C 152.50 105.81 151.81 108.67 152.31 110.45 C 154.67 110.91 153.40 113.85 154.93 115.14 C 156.09 116.27 155.85 118.02 156.18 119.48 C 158.57 120.04 157.80 123.04 158.13 124.81 C 158.53 124.77 159.33 124.69 159.73 124.65 C 159.87 126.38 159.99 128.11 160.09 129.84 C 160.44 129.72 161.15 129.46 161.50 129.34 C 161.77 131.13 161.98 132.93 162.14 134.74 C 162.51 134.67 163.26 134.52 163.64 134.45 C 163.81 135.80 163.98 137.15 164.15 138.50 C 166.33 139.76 165.99 142.37 166.10 144.52 C 166.49 144.48 167.26 144.39 167.64 144.35 C 167.82 145.73 167.99 147.11 168.17 148.50 C 170.20 149.76 170.07 152.15 170.09 154.25 C 172.49 154.04 171.70 156.90 172.16 158.39 C 172.79 159.06 173.42 159.73 174.05 160.40 C 174.03 161.41 174.00 163.42 173.99 164.43 C 174.41 164.37 175.26 164.24 175.68 164.17 C 175.83 165.72 175.97 167.27 176.09 168.82 C 176.40 168.71 177.02 168.49 177.32 168.38 C 177.60 169.66 177.86 170.94 178.08 172.24 C 180.21 173.57 179.90 176.26 180.13 178.42 C 180.44 178.38 181.08 178.32 181.39 178.29 C 181.65 179.60 181.92 180.92 182.22 182.23 C 183.79 183.87 183.92 186.19 184.19 188.33 C 184.51 188.27 185.16 188.16 185.49 188.10 C 185.68 189.47 185.89 190.85 186.11 192.23 C 186.73 192.97 187.35 193.72 187.97 194.48 C 187.99 195.39 188.02 197.22 188.04 198.14 C 188.44 198.13 189.23 198.13 189.62 198.12 C 189.79 199.49 189.95 200.87 190.12 202.24 C 190.76 202.97 191.39 203.69 192.03 204.43 C 192.04 205.26 192.06 206.92 192.07 207.74 C 194.13 208.27 193.83 210.60 194.14 212.22 C 194.67 212.81 195.19 213.40 195.72 213.99 C 195.88 215.13 196.05 216.27 196.23 217.41 C 197.81 218.48 197.92 220.40 198.31 222.11 C 200.46 224.74 201.22 228.28 202.37 231.42 C 204.46 234.89 205.23 239.03 207.17 242.61 C 211.21 253.35 215.78 263.91 219.94 274.62 C 221.55 277.79 222.86 281.20 223.74 284.66 C 224.05 284.96 224.67 285.56 224.98 285.85 C 225.24 287.48 225.68 289.08 226.56 290.50 C 227.06 291.81 227.45 293.18 227.85 294.54 C 229.95 296.34 229.27 299.62 231.29 301.59 C 231.61 302.94 231.65 304.46 232.74 305.51 C 233.68 310.25 236.68 314.30 237.67 319.04 C 239.57 321.77 240.27 325.14 241.75 328.11 C 242.81 329.55 243.21 331.31 243.66 333.01 C 245.01 334.50 245.26 336.53 245.46 338.45 C 246.58 339.19 247.76 339.82 249.01 340.31 C 247.81 342.42 247.91 344.88 249.00 347.01 C 264.67 385.29 280.15 423.65 295.96 461.87 C 297.94 466.78 299.66 471.80 301.75 476.68 C 303.64 476.42 303.79 473.84 304.65 472.46 C 310.65 455.43 317.45 438.69 323.55 421.70 C 327.50 411.09 331.46 400.47 335.68 389.97 C 337.02 386.42 337.76 382.59 339.88 379.38 C 339.94 380.03 340.07 381.31 340.13 381.95 C 336.91 389.69 334.60 397.76 331.09 405.38 C 329.20 412.29 325.76 418.66 323.76 425.54 C 322.60 428.84 321.27 432.06 320.15 435.37 C 318.98 437.05 318.67 439.10 318.19 441.05 C 316.35 444.23 315.35 447.98 314.23 451.51 C 313.93 451.85 313.33 452.53 313.03 452.87 C 312.80 454.02 312.55 455.19 312.31 456.35 C 310.69 458.26 310.83 460.96 309.45 463.00 C 308.89 465.03 308.67 467.26 307.21 468.90 C 306.93 470.10 306.66 471.30 306.38 472.51 C 304.53 473.93 304.78 476.42 304.41 478.49 C 301.08 479.74 297.50 479.25 294.03 479.32 C 261.33 479.31 228.63 479.32 195.93 479.32 C 191.89 479.86 192.59 474.53 190.78 472.30 C 190.22 470.84 189.78 469.34 189.35 467.85 C 188.04 466.48 187.81 464.59 187.39 462.84 C 186.28 461.06 185.77 459.02 185.28 457.02 C 183.88 455.74 183.77 453.79 183.28 452.09 C 181.33 449.08 180.23 445.43 179.67 441.90 C 177.45 441.87 178.27 439.27 177.78 437.87 C 176.19 436.25 175.92 433.99 175.67 431.85 C 173.69 431.60 174.24 429.25 173.73 427.87 C 171.97 426.17 171.83 423.66 171.74 421.36 L 170.61 421.71 C 169.69 419.78 170.95 416.15 168.31 415.64 C 168.12 413.40 167.74 411.12 165.98 409.56 C 165.99 408.65 166.02 406.85 166.03 405.95 C 166.12 404.44 165.44 403.88 163.98 404.25 C 163.98 403.47 164.00 401.91 164.01 401.13 C 163.67 401.28 163.01 401.58 162.68 401.73 C 162.19 399.73 161.94 397.68 161.91 395.63 C 161.50 395.73 160.67 395.93 160.26 396.03 C 160.14 394.38 160.03 392.74 159.93 391.11 C 159.60 391.27 158.95 391.58 158.62 391.74 C 158.26 389.94 158.01 388.13 157.89 386.31 C 155.43 386.13 156.26 383.30 155.78 381.64 C 153.88 380.03 153.81 377.54 153.92 375.22 C 153.58 375.30 152.88 375.47 152.54 375.55 C 152.21 373.76 152.00 371.95 151.86 370.15 C 151.45 370.16 150.65 370.16 150.25 370.16 C 150.13 368.62 150.02 367.08 149.93 365.55 C 147.28 365.53 148.29 361.97 147.88 360.31 C 147.47 360.29 146.67 360.25 146.26 360.23 C 146.13 358.55 146.01 356.87 145.91 355.20 C 145.59 355.29 144.94 355.48 144.61 355.58 C 144.28 353.82 144.01 352.05 143.86 350.28 C 143.52 350.33 142.83 350.44 142.48 350.49 C 142.25 348.88 142.01 347.27 141.79 345.67 C 139.79 344.85 140.32 342.29 139.76 340.61 C 137.93 339.29 138.13 336.87 137.77 334.89 C 135.85 334.40 136.22 332.08 135.78 330.60 C 134.19 329.12 133.91 326.99 133.84 324.94 C 131.45 324.38 132.45 321.27 131.09 319.74 C 129.93 318.23 130.00 316.29 129.86 314.49 C 129.55 314.53 128.94 314.60 128.63 314.64 C 128.35 313.31 128.04 311.99 127.73 310.67 C 126.45 308.90 125.99 306.75 125.85 304.61 C 125.56 304.63 124.98 304.67 124.69 304.69 C 124.58 301.24 122.06 298.53 121.78 295.10 C 120.52 293.40 120.02 291.34 119.77 289.27 C 118.08 288.43 118.02 286.56 117.79 284.91 C 116.41 283.22 115.90 281.14 115.81 279.00 L 114.58 279.00 C 114.27 345.56 114.65 412.14 114.40 478.70 C 114.02 478.86 113.25 479.19 112.87 479.36 C 112.30 472.57 112.59 465.75 112.56 458.95 C 112.52 399.60 112.58 340.26 112.53 280.92 C 112.46 277.02 114.27 272.97 112.55 269.23 C 106.95 255.78 101.86 242.13 96.26 228.69 C 94.12 221.73 91.05 215.14 88.38 208.39 C 66.56 152.90 44.96 97.32 23.17 41.83 C 19.31 33.12 15.58 24.30 13.09 15.09 L 12.95 14.60 Z" />
<path fill="#e21221" opacity="1.00" d=" M 375.52 15.35 C 407.69 15.52 439.87 15.32 472.05 15.45 C 473.92 15.46 475.76 15.13 477.58 14.70 L 477.39 16.14 C 443.53 16.07 409.67 16.05 375.81 16.13 L 375.52 15.35 Z" />
<path fill="#e21221" opacity="1.00" d=" M 374.09 19.83 C 373.26 18.75 374.34 15.74 375.88 16.83 C 376.26 18.08 375.55 19.81 374.09 19.83 Z" />
<path fill="#e21221" opacity="1.00" d=" M 473.72 25.58 C 474.61 22.94 475.45 20.23 477.22 18.01 C 477.61 58.67 477.28 99.33 477.39 139.99 C 477.40 251.66 477.37 363.32 477.41 474.99 C 477.39 477.24 476.92 479.43 476.59 481.65 L 476.57 480.26 C 473.41 480.89 470.18 480.54 466.98 480.61 C 436.68 480.64 406.38 480.55 376.08 480.66 C 375.80 417.25 375.96 353.83 376.00 290.42 C 376.10 289.09 375.89 287.81 375.38 286.58 C 387.20 256.22 398.10 225.52 410.18 195.26 C 414.32 185.62 416.33 175.21 420.60 165.62 C 423.86 156.85 427.30 148.15 430.33 139.30 C 432.62 134.09 434.91 128.89 436.44 123.40 C 449.39 91.00 461.23 58.16 473.72 25.58 Z" />
<path fill="#e21221" opacity="1.00" d=" M 370.52 26.10 C 370.87 26.33 371.56 26.80 371.91 27.04 C 371.94 27.48 372.00 28.36 372.02 28.80 C 371.49 29.22 370.43 30.05 369.90 30.46 C 370.07 29.00 370.28 27.55 370.52 26.10 Z" />
<path fill="#e21221" opacity="1.00" d=" M 366.64 36.19 C 366.96 36.44 367.59 36.94 367.90 37.19 C 367.94 37.61 368.01 38.44 368.04 38.86 C 367.48 39.34 366.35 40.32 365.79 40.81 C 366.05 39.26 366.33 37.72 366.64 36.19 Z" />
<path fill="#e21221" opacity="1.00" d=" M 364.67 41.01 C 364.98 41.30 365.59 41.89 365.90 42.18 C 365.94 42.61 366.03 43.47 366.07 43.90 C 365.57 44.36 364.55 45.26 364.04 45.71 C 364.14 44.13 364.35 42.56 364.67 41.01 Z" />
<path fill="#e21221" opacity="1.00" d=" M 361.94 51.44 C 362.21 49.65 361.43 46.95 363.97 46.62 C 364.07 50.39 361.90 53.52 360.13 56.66 C 360.22 54.96 359.38 51.65 361.94 51.44 Z" />
<path fill="#e21221" opacity="1.00" d=" M 357.89 61.33 C 358.21 59.51 357.44 56.71 360.13 56.66 C 359.68 60.14 358.48 63.47 356.14 66.14 C 355.89 64.39 355.94 62.05 357.89 61.33 Z" />
<path fill="#e21221" opacity="1.00" d=" M 354.17 69.09 C 354.56 69.08 355.32 69.07 355.70 69.07 C 355.08 71.65 353.94 74.08 352.12 76.05 C 351.49 73.37 354.07 71.64 354.17 69.09 Z" />
<path fill="#e21221" opacity="1.00" d=" M 349.83 81.03 C 350.18 79.40 350.09 77.18 352.04 76.55 C 350.03 86.92 344.87 96.36 341.24 106.23 C 337.36 116.88 332.90 127.31 328.84 137.90 C 323.26 151.75 318.50 165.92 312.34 179.54 C 306.36 196.20 299.42 212.50 293.18 229.07 C 292.62 230.83 291.60 232.37 290.33 233.70 C 290.70 231.73 290.87 229.61 292.26 228.03 C 293.16 224.84 294.59 221.85 295.75 218.75 C 297.69 215.59 297.86 211.73 299.64 208.50 C 300.38 207.32 300.54 205.92 300.88 204.60 C 302.79 202.63 302.22 199.46 304.24 197.57 C 305.08 194.12 306.54 190.80 308.09 187.61 C 311.15 177.83 315.53 168.57 318.91 158.92 C 320.25 157.42 320.38 155.36 320.78 153.49 C 321.11 153.12 321.77 152.37 322.10 152.00 C 324.03 145.25 326.83 138.64 329.69 132.23 C 330.01 130.98 330.33 129.72 330.64 128.46 C 330.94 128.15 331.53 127.55 331.82 127.24 C 332.78 123.78 333.95 120.23 335.77 117.12 C 336.05 115.91 336.33 114.70 336.62 113.50 C 338.48 112.05 338.11 109.48 338.63 107.41 C 338.96 107.45 339.63 107.53 339.96 107.57 C 340.05 106.01 340.14 104.44 340.24 102.88 C 340.66 102.85 341.50 102.81 341.92 102.78 C 342.03 100.92 342.24 99.08 342.53 97.24 C 342.89 97.30 343.60 97.41 343.96 97.47 C 344.05 95.94 344.14 94.41 344.25 92.88 C 344.67 92.85 345.51 92.80 345.94 92.78 C 346.06 90.91 346.28 89.05 346.58 87.20 C 346.91 87.27 347.56 87.42 347.89 87.49 C 347.96 85.18 348.22 82.81 349.83 81.03 Z" />
<path fill="#e21221" opacity="1.00" d=" M 287.19 242.24 C 286.35 240.71 286.70 239.51 288.23 238.65 L 288.92 238.91 C 289.43 240.24 288.79 242.13 287.19 242.24 Z" />
<path fill="#e21221" opacity="1.00" d=" M 286.18 243.63 L 286.74 243.88 C 287.41 245.45 286.69 247.37 285.13 248.08 C 284.13 246.78 284.73 244.36 286.18 243.63 Z" />
<path fill="#e21221" opacity="1.00" d=" M 282.96 253.18 C 282.92 251.21 282.79 248.83 285.12 248.14 C 284.39 253.43 281.58 258.06 279.89 263.05 C 277.57 267.92 276.58 273.43 273.30 277.81 C 272.15 275.87 273.85 274.44 274.78 273.01 C 275.78 268.42 278.41 264.39 279.42 259.83 C 279.73 259.48 280.35 258.77 280.66 258.42 C 281.24 256.65 280.51 253.58 282.96 253.18 Z" />
<path fill="#e21221" opacity="1.00" d=" M 271.45 281.41 C 270.64 280.23 271.63 277.10 273.30 277.81 C 273.72 279.25 273.20 281.25 271.45 281.41 Z" />
<path fill="#e21221" opacity="1.00" d=" M 267.46 289.32 C 267.88 289.40 268.72 289.56 269.14 289.64 C 269.32 291.26 268.70 291.75 267.27 291.11 C 267.32 290.66 267.41 289.77 267.46 289.32 Z" />
<path fill="#e21221" opacity="1.00" d=" M 371.89 294.35 C 371.74 292.72 372.40 292.24 373.88 292.92 C 373.80 293.35 373.64 294.22 373.56 294.66 C 373.14 294.58 372.31 294.43 371.89 294.35 Z" />
<path fill="#e21221" opacity="1.00" d=" M 263.41 299.41 C 263.83 299.47 264.66 299.59 265.08 299.66 C 265.20 301.26 264.54 301.77 263.09 301.19 C 263.17 300.75 263.33 299.85 263.41 299.41 Z" />
<path fill="#e21221" opacity="1.00" d=" M 259.68 308.73 C 259.99 309.05 260.61 309.69 260.93 310.02 C 260.96 310.50 261.03 311.47 261.06 311.96 C 260.57 312.37 259.58 313.18 259.09 313.58 C 259.10 311.94 259.29 310.32 259.68 308.73 Z" />
<path fill="#e21221" opacity="1.00" d=" M 365.66 310.07 C 365.85 308.53 366.59 308.14 367.87 308.90 C 367.76 309.32 367.52 310.18 367.40 310.61 C 366.96 310.48 366.09 310.21 365.66 310.07 Z" />
<path fill="#e21221" opacity="1.00" d=" M 359.59 325.66 C 362.05 320.64 363.41 315.19 365.66 310.07 C 366.30 312.46 366.20 315.06 364.20 316.73 C 363.74 320.21 361.45 323.10 361.48 326.71 C 361.11 326.68 360.37 326.60 360.01 326.57 C 360.19 328.90 359.89 331.33 357.95 332.87 C 358.04 330.39 358.44 327.89 359.59 325.66 Z" />
<path fill="#e21221" opacity="1.00" d=" M 256.90 319.75 C 257.37 317.73 256.74 314.69 259.08 313.63 C 259.05 317.36 257.98 321.11 255.16 323.70 C 255.13 322.27 255.29 320.85 255.66 319.47 C 255.97 319.54 256.59 319.68 256.90 319.75 Z" />
<path fill="#e21221" opacity="1.00" d=" M 252.85 329.36 C 253.41 327.49 252.78 324.50 255.16 323.74 C 255.06 327.61 253.67 331.26 251.11 334.16 C 250.80 332.33 251.04 330.23 252.85 329.36 Z" />
<path fill="#e21221" opacity="1.00" d=" M 249.64 334.43 C 249.99 334.61 250.69 334.98 251.04 335.16 C 251.09 336.98 250.02 338.48 249.17 340.00 C 248.98 338.11 249.33 336.26 249.64 334.43 Z" />
<path fill="#e21221" opacity="1.00" d=" M 353.90 342.64 C 354.38 339.16 355.62 335.80 357.93 333.11 C 357.91 334.75 357.57 336.39 356.39 337.60 C 355.70 339.30 356.50 342.60 353.90 342.64 Z" />
<path fill="#e21221" opacity="1.00" d=" M 349.71 351.88 C 350.68 348.71 352.15 345.74 353.85 342.91 C 354.02 344.60 354.26 346.80 352.38 347.66 C 351.98 349.70 351.93 352.00 350.39 353.59 C 349.98 355.39 349.69 357.28 348.52 358.79 C 347.47 363.83 344.70 368.34 343.39 373.35 C 341.71 375.29 342.38 378.31 340.37 380.16 L 340.09 379.02 C 342.53 369.72 346.88 361.05 349.71 351.88 Z" />
</g>
<g id="#a8646974">
<path fill="#a86469" opacity="0.45" d=" M 375.52 15.35 C 375.89 15.05 376.65 14.45 377.03 14.15 C 408.35 14.00 439.68 14.16 471.00 14.07 C 473.20 14.12 475.50 13.78 477.58 14.70 C 475.76 15.13 473.92 15.46 472.05 15.45 C 439.87 15.32 407.69 15.52 375.52 15.35 Z" />
<path fill="#a86469" opacity="0.45" d=" M 477.58 14.70 C 478.59 15.50 479.06 16.70 478.91 17.98 C 478.91 170.99 478.89 324.00 478.92 477.00 C 479.28 478.96 477.48 480.18 476.59 481.65 C 476.92 479.43 477.39 477.24 477.41 474.99 C 477.37 363.32 477.40 251.66 477.39 139.99 C 477.28 99.33 477.61 58.67 477.22 18.01 C 477.27 17.54 477.35 16.61 477.39 16.14 L 477.58 14.70 Z" />
<path fill="#a86469" opacity="0.45" d=" M 11.70 16.08 L 13.09 15.09 C 13.45 21.06 13.22 27.05 13.27 33.03 C 13.28 173.36 13.28 313.69 13.28 454.03 C 13.18 462.41 13.50 470.81 13.08 479.19 L 11.52 478.91 C 11.53 325.27 11.53 171.63 11.52 17.99 C 11.57 17.52 11.66 16.56 11.70 16.08 Z" />
<path fill="#a86469" opacity="0.45" d=" M 372.04 24.18 C 371.01 22.95 372.54 20.09 374.16 21.07 C 374.49 22.41 373.70 24.44 372.04 24.18 Z" />
<path fill="#a86469" opacity="0.45" d=" M 368.03 34.25 C 367.09 33.08 368.37 30.06 369.99 31.09 C 370.44 32.39 369.71 34.61 368.03 34.25 Z" />
<path fill="#a86469" opacity="0.45" d=" M 354.17 69.09 C 353.75 67.28 354.35 66.65 355.99 67.20 C 355.92 67.67 355.77 68.60 355.70 69.07 C 355.32 69.07 354.56 69.08 354.17 69.09 Z" />
<path fill="#a86469" opacity="0.45" d=" M 373.89 289.88 C 373.68 288.66 373.86 286.83 375.38 286.58 C 375.89 287.81 376.10 289.09 376.00 290.42 C 375.47 290.29 374.42 290.02 373.89 289.88 Z" />
<path fill="#a86469" opacity="0.45" d=" M 266.29 294.44 C 266.33 294.40 266.41 294.30 266.45 294.26 C 266.41 294.30 266.33 294.40 266.29 294.44 Z" />
<path fill="#a86469" opacity="0.45" d=" M 367.97 305.87 C 367.86 304.63 368.18 302.81 369.72 302.70 C 370.78 303.77 369.54 306.67 367.97 305.87 Z" />
<path fill="#a86469" opacity="0.45" d=" M 261.03 306.80 C 260.06 305.66 261.67 303.15 263.06 304.13 C 263.29 305.37 262.58 307.17 261.03 306.80 Z" />
<path fill="#a86469" opacity="0.45" d=" M 163.98 404.25 C 165.44 403.88 166.12 404.44 166.03 405.95 C 164.31 406.54 163.62 405.98 163.98 404.25 Z" />
<path fill="#a86469" opacity="0.45" d=" M 13.08 479.19 C 28.72 478.84 44.38 479.13 60.03 479.04 C 77.54 479.23 95.08 478.65 112.58 479.33 C 89.09 479.79 65.57 479.40 42.06 479.53 C 32.41 479.30 22.70 479.98 13.08 479.19 Z" />
</g>
<g id="#af0c18ff">
<path fill="#af0c18" opacity="1.00" d=" M 13.09 15.09 C 15.58 24.30 19.31 33.12 23.17 41.83 C 44.96 97.32 66.56 152.90 88.38 208.39 C 91.05 215.14 94.12 221.73 96.26 228.69 C 101.86 242.13 106.95 255.78 112.55 269.23 C 114.27 272.97 112.46 277.02 112.53 280.92 C 112.58 340.26 112.52 399.60 112.56 458.95 C 112.59 465.75 112.30 472.57 112.87 479.36 L 112.58 479.33 C 95.08 478.65 77.54 479.23 60.03 479.04 C 44.38 479.13 28.72 478.84 13.08 479.19 C 13.50 470.81 13.18 462.41 13.28 454.03 C 13.28 313.69 13.28 173.36 13.27 33.03 C 13.22 27.05 13.45 21.06 13.09 15.09 Z" />
<path fill="#af0c18" opacity="1.00" d=" M 375.81 16.13 C 409.67 16.05 443.53 16.07 477.39 16.14 C 477.35 16.61 477.27 17.54 477.22 18.01 C 475.45 20.23 474.61 22.94 473.72 25.58 C 461.23 58.16 449.39 91.00 436.44 123.40 C 434.91 128.89 432.62 134.09 430.33 139.30 C 427.30 148.15 423.86 156.85 420.60 165.62 C 416.33 175.21 414.32 185.62 410.18 195.26 C 398.10 225.52 387.20 256.22 375.38 286.58 C 373.86 286.83 373.68 288.66 373.89 289.88 C 373.89 290.64 373.88 292.16 373.88 292.92 C 372.40 292.24 371.74 292.72 371.89 294.35 C 371.94 295.41 372.05 297.53 372.10 298.59 C 370.92 299.71 370.03 301.08 369.72 302.70 C 368.18 302.81 367.86 304.63 367.97 305.87 C 367.95 306.62 367.90 308.14 367.87 308.90 C 366.59 308.14 365.85 308.53 365.66 310.07 C 363.41 315.19 362.05 320.64 359.59 325.66 C 358.44 327.89 358.04 330.39 357.95 332.87 L 357.93 333.11 C 355.62 335.80 354.38 339.16 353.90 342.64 L 353.85 342.91 C 352.15 345.74 350.68 348.71 349.71 351.88 C 346.88 361.05 342.53 369.72 340.09 379.02 L 339.88 379.38 C 337.76 382.59 337.02 386.42 335.68 389.97 C 331.46 400.47 327.50 411.09 323.55 421.70 C 317.45 438.69 310.65 455.43 304.65 472.46 C 303.79 473.84 303.64 476.42 301.75 476.68 C 299.66 471.80 297.94 466.78 295.96 461.87 C 280.15 423.65 264.67 385.29 249.00 347.01 C 247.91 344.88 247.81 342.42 249.01 340.31 L 249.17 340.00 C 250.02 338.48 251.09 336.98 251.04 335.16 L 251.11 334.16 C 253.67 331.26 255.06 327.61 255.16 323.74 L 255.16 323.70 C 257.98 321.11 259.05 317.36 259.08 313.63 L 259.09 313.58 C 259.58 313.18 260.57 312.37 261.06 311.96 C 261.03 311.47 260.96 310.50 260.93 310.02 C 260.95 309.21 261.00 307.61 261.03 306.80 C 262.58 307.17 263.29 305.37 263.06 304.13 C 263.07 303.39 263.08 301.93 263.09 301.19 C 264.54 301.77 265.20 301.26 265.08 299.66 C 265.02 298.15 264.99 296.66 265.00 295.16 L 266.29 294.44 C 266.33 294.40 266.41 294.30 266.45 294.26 C 266.66 293.47 267.07 291.89 267.27 291.11 C 268.70 291.75 269.32 291.26 269.14 289.64 C 269.09 288.58 268.97 286.45 268.92 285.39 C 270.25 284.41 270.95 282.94 271.45 281.41 C 273.20 281.25 273.72 279.25 273.30 277.81 C 276.58 273.43 277.57 267.92 279.89 263.05 C 281.58 258.06 284.39 253.43 285.12 248.14 L 285.13 248.08 C 286.69 247.37 287.41 245.45 286.74 243.88 L 286.39 242.47 L 287.19 242.24 C 288.79 242.13 289.43 240.24 288.92 238.91 C 288.37 237.03 288.67 234.93 290.33 233.70 C 291.60 232.37 292.62 230.83 293.18 229.07 C 299.42 212.50 306.36 196.20 312.34 179.54 C 318.50 165.92 323.26 151.75 328.84 137.90 C 332.90 127.31 337.36 116.88 341.24 106.23 C 344.87 96.36 350.03 86.92 352.04 76.55 C 352.06 76.42 352.10 76.17 352.12 76.05 C 353.94 74.08 355.08 71.65 355.70 69.07 C 355.77 68.60 355.92 67.67 355.99 67.20 C 356.03 66.94 356.10 66.40 356.14 66.14 C 358.48 63.47 359.68 60.14 360.13 56.66 L 360.13 56.66 C 361.90 53.52 364.07 50.39 363.97 46.62 C 363.98 46.39 364.02 45.94 364.04 45.71 C 364.55 45.26 365.57 44.36 366.07 43.90 C 366.03 43.47 365.94 42.61 365.90 42.18 L 365.79 40.81 C 366.35 40.32 367.48 39.34 368.04 38.86 C 368.01 38.44 367.94 37.61 367.90 37.19 C 367.93 36.46 368.00 34.99 368.03 34.25 C 369.71 34.61 370.44 32.39 369.99 31.09 L 369.90 30.46 C 370.43 30.05 371.49 29.22 372.02 28.80 C 372.00 28.36 371.94 27.48 371.91 27.04 C 371.94 26.33 372.01 24.90 372.04 24.18 C 373.70 24.44 374.49 22.41 374.16 21.07 L 374.09 19.83 C 375.55 19.81 376.26 18.08 375.88 16.83 L 375.81 16.13 Z" />
</g>
</svg>
