<?xml version="1.0" encoding="UTF-8" ?>
<!DOCTYPE svg PUBLIC "-//W3C//DTD SVG 1.1//EN" "http://www.w3.org/Graphics/SVG/1.1/DTD/svg11.dtd">
<svg width="816pt" height="818pt" viewBox="0 0 816 818" version="1.1" xmlns="http://www.w3.org/2000/svg">
<g id="#e21221ff">
<path fill="#e21221" opacity="1.00" d=" M 0.00 0.00 L 182.30 0.00 C 257.50 194.20 332.69 388.40 407.85 582.61 C 436.75 657.19 465.62 731.80 494.51 806.39 C 496.06 810.17 497.07 814.21 499.40 817.63 L 499.26 818.00 L 316.74 818.00 C 284.77 735.38 252.76 652.77 220.78 570.15 C 207.02 534.28 192.82 498.58 179.33 462.62 C 169.94 439.52 161.28 416.12 152.16 392.92 C 104.12 268.92 56.12 144.91 8.10 20.90 C 5.39 14.15 3.08 7.23 0.00 0.64 L 0.00 0.00 Z" />
<path fill="#e21221" opacity="1.00" d=" M 810.46 14.40 C 812.27 9.82 813.73 5.09 816.00 0.71 L 816.00 818.00 L 637.00 818.00 C 637.00 710.68 637.00 603.37 637.00 496.06 C 636.93 484.86 637.15 473.65 636.88 462.46 C 694.89 313.16 752.50 163.71 810.46 14.40 Z" />
</g>
<g id="#af0c18ff">
<path fill="#af0c18" opacity="1.00" d=" M 633.74 0.00 L 816.00 0.00 L 816.00 0.71 C 813.73 5.09 812.27 9.82 810.46 14.40 C 752.50 163.71 694.89 313.16 636.88 462.46 C 591.17 580.89 545.30 699.27 499.40 817.63 C 497.07 814.21 496.06 810.17 494.51 806.39 C 465.62 731.80 436.75 657.19 407.85 582.61 C 408.79 581.48 409.10 580.02 409.67 578.71 C 484.35 385.80 559.07 192.91 633.74 0.00 Z" />
<path fill="#af0c18" opacity="1.00" d=" M 0.00 0.64 C 3.08 7.23 5.39 14.15 8.10 20.90 C 56.12 144.91 104.12 268.92 152.16 392.92 C 161.28 416.12 169.94 439.52 179.33 462.62 C 178.84 465.06 179.03 467.55 179.00 470.03 C 179.00 586.02 179.00 702.01 179.00 818.00 L 0.00 818.00 L 0.00 0.64 Z" />
</g>
</svg>
