<?xml version="1.0" encoding="UTF-8" ?>
<!DOCTYPE svg PUBLIC "-//W3C//DTD SVG 1.1//EN" "http://www.w3.org/Graphics/SVG/1.1/DTD/svg11.dtd">
<svg width="1100pt" height="731pt" viewBox="0 0 1100 731" version="1.1" xmlns="http://www.w3.org/2000/svg">
<g id="#f1f1f1ff">
<path fill="#f1f1f1" opacity="1.00" d=" M 760.16 81.12 C 760.00 79.37 763.08 79.25 763.92 80.40 C 762.75 81.00 761.46 81.37 760.16 81.12 Z" />
<path fill="#f1f1f1" opacity="1.00" d=" M 775.05 80.36 C 776.39 79.25 777.34 79.46 777.89 81.00 C 776.83 81.31 775.88 81.09 775.05 80.36 Z" />
<path fill="#f1f1f1" opacity="1.00" d=" M 756.20 81.00 C 756.64 81.04 757.54 81.13 757.98 81.17 C 757.47 81.34 756.45 81.67 755.93 81.84 L 756.20 81.00 Z" />
<path fill="#f1f1f1" opacity="1.00" d=" M 784.04 82.24 L 784.79 81.73 L 785.78 82.12 L 785.97 83.01 C 785.49 82.81 784.52 82.43 784.04 82.24 Z" />
<path fill="#f1f1f1" opacity="1.00" d=" M 750.07 83.34 C 750.19 83.29 750.43 83.20 750.55 83.15 C 750.43 83.20 750.19 83.29 750.07 83.34 Z" />
<path fill="#f1f1f1" opacity="1.00" d=" M 790.55 84.31 C 790.71 84.38 791.01 84.53 791.16 84.61 C 791.01 84.53 790.71 84.38 790.55 84.31 Z" />
<path fill="#f1f1f1" opacity="1.00" d=" M 791.98 85.03 C 792.14 85.11 792.45 85.28 792.61 85.36 C 792.45 85.28 792.14 85.11 791.98 85.03 Z" />
<path fill="#f1f1f1" opacity="1.00" d=" M 797.44 88.18 C 797.54 88.25 797.75 88.39 797.86 88.46 C 797.75 88.39 797.54 88.25 797.44 88.18 Z" />
<path fill="#f1f1f1" opacity="1.00" d=" M 843.06 92.94 C 856.01 89.88 869.49 93.33 881.45 98.46 C 887.11 100.33 891.80 104.16 897.01 106.95 C 906.16 113.45 914.88 120.56 922.46 128.88 C 906.72 132.80 890.58 135.20 874.44 136.52 C 868.62 137.87 862.50 136.35 856.76 138.28 C 856.89 138.74 857.16 139.66 857.29 140.12 C 866.72 142.34 876.15 144.55 885.55 146.89 C 885.98 147.33 886.85 148.21 887.28 148.65 C 872.74 145.45 858.33 141.69 843.76 138.63 C 835.98 137.40 827.99 138.95 820.30 136.98 C 820.01 138.40 819.73 139.83 819.25 141.21 C 819.25 140.35 819.24 138.64 819.24 137.79 C 801.93 136.74 784.72 134.36 767.71 131.02 C 765.41 130.57 763.22 129.74 761.08 128.82 C 761.38 127.02 761.52 125.20 761.85 123.41 C 747.95 121.53 734.10 119.25 720.17 117.65 C 719.93 118.30 719.46 119.61 719.22 120.27 C 719.14 119.56 718.97 118.15 718.89 117.44 C 693.59 114.17 668.19 111.72 642.74 109.98 C 637.07 109.01 631.18 109.96 625.61 108.61 L 624.71 107.54 C 632.20 107.11 639.60 108.58 647.08 108.62 C 664.08 110.11 681.10 111.39 698.06 113.43 C 705.48 113.96 712.81 115.42 720.25 115.75 C 732.79 117.66 745.40 119.07 757.91 121.19 C 760.29 121.44 763.41 122.56 764.94 120.00 C 770.77 112.61 781.56 109.92 790.14 113.82 C 795.42 115.87 798.99 120.50 801.84 125.19 C 803.11 122.08 804.32 118.93 806.05 116.03 C 808.24 112.23 811.45 109.15 813.70 105.39 C 814.02 105.58 814.67 105.96 815.00 106.15 C 822.97 99.37 832.79 94.87 843.06 92.94 Z" />
<path fill="#f1f1f1" opacity="1.00" d=" M 808.56 98.13 C 808.63 98.22 808.78 98.40 808.86 98.49 C 808.78 98.40 808.63 98.22 808.56 98.13 Z" />
<path fill="#f1f1f1" opacity="1.00" d=" M 726.13 103.08 C 726.22 102.93 726.40 102.65 726.50 102.50 C 726.40 102.65 726.22 102.93 726.13 103.08 Z" />
<path fill="#f1f1f1" opacity="1.00" d=" M 811.54 102.15 C 811.61 102.25 811.75 102.46 811.82 102.57 C 811.75 102.46 811.61 102.25 811.54 102.15 Z" />
<path fill="#f1f1f1" opacity="1.00" d=" M 725.29 104.42 C 725.38 104.28 725.56 103.99 725.65 103.85 C 725.56 103.99 725.38 104.28 725.29 104.42 Z" />
<path fill="#f1f1f1" opacity="1.00" d=" M 480.98 106.37 C 494.28 105.05 507.69 105.94 521.01 104.89 C 539.00 104.80 557.03 104.38 575.00 105.40 C 585.35 105.58 595.72 105.45 606.03 106.38 C 612.14 106.81 618.34 106.30 624.39 107.30 L 625.20 108.56 C 620.47 108.56 615.75 108.38 611.03 108.23 C 598.39 106.93 585.64 107.68 572.98 106.64 C 547.98 106.40 522.96 106.06 497.98 107.28 C 485.91 107.14 473.91 108.56 461.84 108.57 L 462.60 107.29 C 468.66 106.25 474.86 106.79 480.98 106.37 Z" />
<path fill="#f1f1f1" opacity="1.00" d=" M 179.87 154.15 C 267.22 129.04 357.42 114.28 447.99 108.10 C 452.71 107.51 457.48 107.49 462.23 107.48 L 461.40 108.69 C 458.01 109.55 454.47 109.19 451.02 109.43 C 373.28 114.60 295.80 125.98 220.12 144.85 C 205.28 148.43 190.63 152.79 175.89 156.73 C 176.05 154.65 178.43 154.75 179.87 154.15 Z" />
<path fill="#f1f1f1" opacity="1.00" d=" M 719.31 141.93 C 719.47 142.43 719.80 143.44 719.96 143.94 L 719.10 143.69 L 718.77 142.67 L 719.31 141.93 Z" />
<path fill="#f1f1f1" opacity="1.00" d=" M 817.07 148.05 C 817.24 147.56 817.58 146.57 817.76 146.07 L 818.29 146.81 L 817.94 147.83 L 817.07 148.05 Z" />
<path fill="#f1f1f1" opacity="1.00" d=" M 888.28 148.08 C 891.29 146.62 888.38 151.55 888.28 148.08 Z" />
<path fill="#f1f1f1" opacity="1.00" d=" M 721.17 149.36 C 721.22 149.48 721.32 149.72 721.37 149.84 C 721.32 149.72 721.22 149.48 721.17 149.36 Z" />
<path fill="#f1f1f1" opacity="1.00" d=" M 890.75 148.33 C 917.57 154.81 944.09 162.59 970.41 170.86 C 970.70 171.28 971.27 172.12 971.55 172.54 C 946.12 164.87 920.64 157.31 894.89 150.73 C 893.38 150.25 891.17 150.28 890.75 148.33 Z" />
<path fill="#f1f1f1" opacity="1.00" d=" M 815.35 153.20 C 815.44 153.04 815.60 152.72 815.68 152.56 C 815.60 152.72 815.44 153.04 815.35 153.20 Z" />
<path fill="#f1f1f1" opacity="1.00" d=" M 814.41 154.97 C 814.52 154.76 814.74 154.35 814.85 154.15 C 814.74 154.35 814.52 154.76 814.41 154.97 Z" />
<path fill="#f1f1f1" opacity="1.00" d=" M 174.29 155.98 C 177.30 154.27 174.40 159.43 174.29 155.98 Z" />
<path fill="#f1f1f1" opacity="1.00" d=" M 813.54 156.56 C 813.63 156.39 813.82 156.05 813.91 155.88 C 813.82 156.05 813.63 156.39 813.54 156.56 Z" />
<path fill="#f1f1f1" opacity="1.00" d=" M 128.68 170.92 C 143.39 165.81 158.10 160.58 173.08 156.28 C 172.70 156.74 171.92 157.68 171.53 158.15 C 157.04 162.70 142.55 167.28 128.37 172.76 C 128.45 172.30 128.60 171.38 128.68 170.92 Z" />
<path fill="#f1f1f1" opacity="1.00" d=" M 725.15 157.44 C 725.21 157.56 725.34 157.78 725.41 157.89 C 725.34 157.78 725.21 157.56 725.15 157.44 Z" />
<path fill="#f1f1f1" opacity="1.00" d=" M 729.36 162.34 C 745.11 156.71 762.69 159.60 777.55 166.52 C 783.46 169.04 788.61 172.98 794.42 175.70 C 794.27 176.27 794.14 176.84 794.03 177.41 C 802.43 182.73 809.68 189.63 816.47 196.88 C 803.98 200.01 791.22 202.13 778.44 203.53 C 774.63 204.56 770.60 203.72 766.81 204.86 C 761.55 205.57 756.14 204.58 750.95 205.97 C 740.99 206.19 731.01 206.20 721.05 205.95 C 716.76 204.89 712.34 205.26 707.98 205.08 C 700.61 203.86 693.11 203.79 685.75 202.39 C 676.53 201.35 667.46 199.34 658.31 197.85 C 657.24 197.07 656.22 196.15 655.60 194.98 C 658.29 188.97 663.18 183.53 669.62 181.57 C 678.57 178.62 689.44 182.89 693.70 191.41 C 694.08 192.75 695.31 192.96 696.51 193.20 C 699.78 184.71 705.02 176.79 712.51 171.48 C 717.44 167.29 723.77 165.42 729.36 162.34 Z" />
<path fill="#f1f1f1" opacity="1.00" d=" M 811.53 159.87 C 811.61 159.75 811.77 159.51 811.84 159.39 C 811.77 159.51 811.61 159.75 811.53 159.87 Z" />
<path fill="#f1f1f1" opacity="1.00" d=" M 797.41 173.79 C 797.53 173.71 797.75 173.57 797.86 173.49 C 797.75 173.57 797.53 173.71 797.41 173.79 Z" />
<path fill="#f1f1f1" opacity="1.00" d=" M 502.45 188.80 C 511.43 183.77 521.35 178.56 531.97 179.83 C 538.86 181.27 545.65 184.32 550.46 189.59 C 565.82 203.84 571.90 224.58 581.50 242.59 C 588.74 258.75 597.04 274.42 604.88 290.31 C 636.61 352.40 671.44 412.94 709.42 471.45 C 715.44 481.49 722.68 490.80 728.51 500.94 C 727.41 500.65 726.33 500.37 725.24 500.12 C 724.46 495.52 721.03 492.12 718.70 488.27 C 679.73 429.33 643.83 368.35 611.22 305.70 C 603.97 290.84 595.54 276.58 588.84 261.44 C 585.23 252.79 580.22 244.78 576.83 236.02 C 572.72 227.54 568.44 219.13 564.24 210.70 C 558.60 200.02 551.27 189.31 539.99 184.08 C 530.45 179.73 519.34 181.54 510.37 186.42 C 457.03 213.56 407.75 248.43 363.04 288.11 C 359.24 290.92 356.40 294.82 352.62 297.66 C 349.37 300.02 346.71 303.07 343.85 305.86 C 335.28 314.38 326.77 322.95 318.21 331.48 C 313.99 335.30 311.05 340.26 306.72 343.97 C 293.97 358.21 281.65 372.88 270.04 388.09 C 268.46 390.24 266.38 392.10 265.63 394.76 C 268.17 394.44 270.74 393.85 273.30 394.28 C 271.00 394.53 268.62 394.55 266.43 395.37 C 264.05 396.78 263.21 399.60 262.24 402.02 C 261.49 402.08 259.98 402.18 259.23 402.23 C 256.83 405.59 255.04 410.00 251.16 411.86 C 255.49 404.45 261.05 397.82 266.10 390.88 C 278.79 374.41 291.81 358.17 305.99 342.99 C 309.94 337.36 315.56 333.21 319.95 327.96 C 323.15 323.55 327.36 320.03 331.10 316.11 C 335.06 312.39 338.53 308.11 343.02 305.01 C 348.16 300.49 352.38 294.95 357.99 290.98 C 369.53 280.14 381.78 270.10 394.14 260.18 C 428.06 233.27 464.26 209.20 502.45 188.80 Z" />
<path fill="#f1f1f1" opacity="1.00" d=" M 505.83 210.79 C 508.80 209.57 512.09 210.10 515.14 209.18 C 521.35 209.92 527.94 211.00 533.04 214.94 C 537.46 218.12 541.97 221.41 544.90 226.12 C 552.41 235.32 557.66 246.03 564.00 256.02 C 571.90 269.82 580.09 283.47 587.46 297.56 C 590.30 301.58 591.78 306.37 594.64 310.38 C 599.18 318.59 602.72 327.35 607.71 335.30 C 612.56 345.44 618.17 355.23 622.39 365.65 C 633.96 388.30 643.96 411.66 654.03 434.99 C 656.37 440.84 659.18 446.50 661.13 452.51 C 635.76 429.75 620.30 398.73 605.27 368.70 C 600.77 361.90 598.05 354.12 593.75 347.22 C 586.23 333.21 577.67 319.70 567.66 307.33 C 563.33 303.30 560.55 297.77 555.39 294.62 C 550.96 290.73 545.93 287.00 539.96 286.12 C 536.03 285.96 532.09 285.90 528.17 286.21 C 523.99 287.27 520.18 289.38 516.44 291.46 C 497.66 303.40 475.06 307.28 453.23 308.29 C 449.01 309.62 444.55 308.75 440.24 309.29 C 435.35 310.74 430.21 309.68 425.23 310.29 C 419.89 311.96 414.16 310.23 408.81 311.84 C 403.84 312.57 398.69 311.40 393.80 312.84 C 389.97 313.39 386.07 312.82 382.24 313.29 C 377.36 314.74 372.22 313.69 367.24 314.29 C 363.42 315.42 359.41 315.06 355.49 315.04 C 360.87 309.52 367.48 305.35 373.27 300.26 C 404.44 275.41 436.67 251.88 469.98 229.95 C 481.20 222.34 492.68 214.60 505.83 210.79 Z" />
<path fill="#f1f1f1" opacity="1.00" d=" M 288.17 227.04 C 297.04 225.95 306.12 226.37 314.65 229.20 C 332.65 235.40 347.29 248.34 359.78 262.32 C 361.58 265.88 366.39 267.61 366.61 271.89 C 364.66 270.70 363.61 268.64 362.12 267.00 C 349.59 254.44 337.56 240.39 320.84 233.33 C 311.88 229.26 301.89 227.65 292.10 228.36 C 271.66 231.00 253.96 242.29 236.42 252.28 C 208.15 268.95 181.31 288.15 156.65 309.78 C 151.71 312.98 148.73 318.73 143.04 320.86 C 145.16 317.46 148.24 314.74 151.45 312.40 C 183.03 284.20 218.07 259.77 255.44 239.80 C 265.66 234.04 276.64 229.39 288.17 227.04 Z" />
<path fill="#f1f1f1" opacity="1.00" d=" M 269.35 248.29 C 282.09 243.75 296.38 242.95 309.17 247.75 C 322.06 252.41 332.07 262.04 342.74 270.24 C 345.58 273.07 349.21 274.82 352.70 276.70 C 347.69 274.09 342.04 273.03 336.59 271.49 C 319.54 266.68 302.23 262.84 284.91 259.18 C 276.12 257.20 267.13 256.00 258.43 253.77 C 262.03 251.87 265.65 249.99 269.35 248.29 Z" />
<path fill="#f1f1f1" opacity="1.00" d=" M 462.96 377.94 C 463.20 374.66 464.08 371.37 465.68 368.49 C 467.29 371.20 468.42 374.19 470.22 376.80 C 472.30 380.27 475.53 382.80 478.29 385.72 C 481.36 389.09 486.88 390.13 488.09 395.07 C 487.91 398.91 485.01 401.37 483.19 404.44 C 477.56 401.42 472.99 396.95 468.76 392.24 C 465.56 388.12 463.93 383.00 462.96 377.94 Z" />
<path fill="#f1f1f1" opacity="1.00" d=" M 754.33 373.22 C 760.54 371.86 767.28 371.98 773.09 374.81 C 783.91 380.15 791.68 389.70 799.15 398.86 C 810.48 412.53 821.61 426.37 832.81 440.15 C 834.08 441.72 835.04 443.63 837.05 444.40 C 837.34 441.92 837.51 439.43 837.84 436.96 C 837.37 445.40 838.09 453.87 837.14 462.28 C 836.90 457.56 837.35 452.83 836.87 448.13 C 833.79 443.08 829.53 438.90 826.08 434.12 C 813.93 419.50 802.28 404.44 789.81 390.11 C 783.97 382.73 775.92 376.58 766.59 374.56 C 757.00 372.83 747.89 377.07 739.07 380.18 C 723.67 385.75 708.32 391.48 692.92 397.08 C 688.21 398.39 683.91 401.05 679.00 401.63 C 679.63 400.70 680.30 399.72 681.49 399.50 C 691.21 395.73 701.10 392.46 710.82 388.70 C 725.40 383.74 739.61 377.76 754.33 373.22 Z" />
<path fill="#f1f1f1" opacity="1.00" d=" M 833.18 391.51 C 833.24 391.41 833.37 391.20 833.44 391.10 C 833.37 391.20 833.24 391.41 833.18 391.51 Z" />
<path fill="#f1f1f1" opacity="1.00" d=" M 764.58 391.80 C 768.37 391.43 771.48 393.90 775.06 394.68 C 772.01 394.17 768.85 394.39 766.16 396.01 C 765.69 394.58 765.01 393.23 764.58 391.80 Z" />
<path fill="#f1f1f1" opacity="1.00" d=" M 779.14 400.72 C 795.52 420.70 811.99 440.63 828.33 460.67 C 831.25 463.50 832.93 467.79 836.96 469.34 C 836.57 479.96 836.81 490.61 836.14 501.21 C 836.10 498.20 836.32 495.18 836.07 492.19 C 834.11 488.23 830.57 485.48 827.97 482.02 C 811.12 462.56 795.71 441.87 781.78 420.22 C 780.05 417.87 778.92 414.86 776.17 413.52 C 777.15 409.25 778.47 405.06 779.14 400.72 Z" />
<path fill="#f1f1f1" opacity="1.00" d=" M 762.07 405.24 L 762.94 405.00 C 762.77 405.49 762.45 406.48 762.28 406.98 L 761.74 406.25 L 762.07 405.24 Z" />
<path fill="#f1f1f1" opacity="1.00" d=" M 530.50 428.99 C 531.44 429.21 532.40 429.25 533.37 429.10 C 533.44 439.61 532.87 450.17 533.66 460.64 L 533.85 461.42 C 533.19 462.30 532.51 463.16 531.84 464.02 C 531.86 463.57 531.89 462.67 531.91 462.22 C 519.65 462.21 507.38 462.30 495.12 462.19 C 495.03 463.39 494.93 464.60 494.81 465.82 C 494.39 466.15 493.54 466.81 493.12 467.14 C 493.09 465.49 493.07 463.85 493.06 462.21 C 485.74 462.28 478.42 462.13 471.10 462.26 C 471.31 461.79 471.72 460.86 471.92 460.39 L 472.61 460.47 C 479.40 461.10 486.24 460.57 493.05 460.78 C 493.19 454.88 493.02 448.99 493.15 443.11 C 493.58 442.78 494.43 442.13 494.86 441.81 C 494.90 448.10 494.90 454.40 494.87 460.70 C 507.18 460.77 519.50 460.67 531.81 460.76 C 531.67 450.86 531.92 440.95 531.72 431.06 C 531.53 430.69 531.15 429.96 530.96 429.59 L 530.50 428.99 Z" />
<path fill="#f1f1f1" opacity="1.00" d=" M 579.86 433.96 L 581.28 434.25 C 581.23 443.12 581.38 451.99 581.21 460.85 C 592.59 460.59 603.98 461.07 615.35 460.60 L 616.05 460.55 C 615.99 460.99 615.87 461.87 615.81 462.32 C 604.30 462.25 592.78 462.41 581.27 462.23 C 581.41 477.43 581.39 492.63 581.27 507.82 C 599.33 507.75 617.40 507.69 635.46 507.85 C 635.31 506.22 635.16 504.59 635.00 502.96 C 635.70 504.96 635.74 507.08 635.85 509.18 C 617.62 509.22 599.38 509.29 581.15 509.15 C 581.26 525.81 581.29 542.49 581.14 559.15 L 580.17 559.39 C 579.46 542.67 579.98 525.91 579.89 509.18 C 564.32 509.28 548.75 509.31 533.18 509.17 C 533.52 517.01 532.87 524.88 533.52 532.71 C 532.45 533.84 531.38 534.97 530.30 536.09 C 529.35 530.55 526.63 525.08 522.32 521.41 C 525.56 514.36 528.56 506.97 533.57 500.96 C 533.34 503.22 533.36 505.50 533.27 507.78 C 548.79 507.73 564.31 507.76 579.84 507.77 C 580.55 489.08 567.80 470.72 550.02 464.99 C 551.24 463.66 552.35 462.22 553.44 460.77 C 562.25 460.82 571.06 460.71 579.87 460.84 C 579.78 451.88 579.79 442.92 579.86 433.96 Z" />
<path fill="#f1f1f1" opacity="1.00" d=" M 852.26 460.99 C 852.44 453.58 852.16 446.15 852.81 438.76 C 852.89 447.18 853.09 455.60 852.70 464.01 C 854.26 467.62 857.36 470.28 859.59 473.48 C 863.82 478.31 867.10 483.92 871.88 488.27 C 868.90 489.61 866.03 491.76 864.89 494.94 C 863.67 498.08 864.50 501.46 864.94 504.67 C 860.55 508.72 856.08 512.74 850.85 515.69 C 851.08 497.46 851.82 479.23 852.26 460.99 Z" />
<path fill="#f1f1f1" opacity="1.00" d=" M 241.15 469.64 C 241.20 469.51 241.28 469.26 241.33 469.13 C 241.28 469.26 241.20 469.51 241.15 469.64 Z" />
<path fill="#f1f1f1" opacity="1.00" d=" M 741.16 472.63 C 741.20 472.51 741.29 472.26 741.34 472.14 C 741.29 472.26 741.20 472.51 741.16 472.63 Z" />
<path fill="#f1f1f1" opacity="1.00" d=" M 237.16 480.65 C 237.21 480.52 237.30 480.27 237.34 480.15 C 237.30 480.27 237.21 480.52 237.16 480.65 Z" />
<path fill="#f1f1f1" opacity="1.00" d=" M 531.48 480.00 C 532.97 483.86 534.94 487.52 537.10 491.05 C 535.36 493.40 533.53 495.67 531.68 497.93 C 531.89 491.96 532.17 485.94 531.48 480.00 Z" />
<path fill="#f1f1f1" opacity="1.00" d=" M 737.15 483.63 C 737.20 483.51 737.29 483.26 737.33 483.14 C 737.29 483.26 737.20 483.51 737.15 483.63 Z" />
<path fill="#f1f1f1" opacity="1.00" d=" M 234.17 488.65 C 234.22 488.52 234.31 488.27 234.36 488.15 C 234.31 488.27 234.22 488.52 234.17 488.65 Z" />
<path fill="#f1f1f1" opacity="1.00" d=" M 734.16 491.64 C 734.21 491.51 734.30 491.26 734.35 491.14 C 734.30 491.26 734.21 491.51 734.16 491.64 Z" />
<path fill="#f1f1f1" opacity="1.00" d=" M 212.74 499.52 C 215.47 498.71 218.58 498.61 221.26 499.68 C 218.42 499.62 215.58 499.56 212.74 499.52 Z" />
<path fill="#f1f1f1" opacity="1.00" d=" M 729.17 501.23 L 729.88 500.66 L 730.76 500.98 C 730.61 501.34 730.32 502.05 730.17 502.41 C 729.92 502.11 729.42 501.52 729.17 501.23 Z" />
<path fill="#f1f1f1" opacity="1.00" d=" M 883.36 506.78 C 883.83 506.09 884.30 505.39 884.77 504.70 C 890.72 513.46 897.78 521.41 904.15 529.87 C 916.82 545.91 929.19 562.18 941.75 578.31 C 946.60 585.29 952.71 591.42 956.84 598.87 C 955.86 598.39 954.84 597.94 954.20 597.04 C 932.55 568.73 910.70 540.57 888.67 512.57 C 887.00 510.54 885.86 507.93 883.36 506.78 Z" />
<path fill="#f1f1f1" opacity="1.00" d=" M 462.34 508.96 C 463.69 507.99 465.33 507.73 466.96 507.81 C 475.25 507.87 483.53 507.76 491.82 507.90 L 491.93 509.23 C 482.07 509.09 472.18 509.57 462.34 508.96 Z" />
<path fill="#f1f1f1" opacity="1.00" d=" M 523.48 507.95 C 524.05 507.90 525.20 507.79 525.78 507.74 C 524.98 509.15 524.23 510.59 523.46 512.02 C 523.47 510.66 523.48 509.30 523.48 507.95 Z" />
<path fill="#f1f1f1" opacity="1.00" d=" M 492.99 510.02 C 493.83 511.00 494.63 512.01 495.46 513.01 L 495.35 513.68 C 494.73 517.08 494.88 520.55 494.88 524.00 C 494.90 534.72 494.87 545.44 494.90 556.17 C 494.15 555.58 493.41 555.02 492.68 554.44 C 493.37 549.32 493.06 544.14 493.11 539.00 C 493.04 529.34 493.25 519.68 492.99 510.02 Z" />
<path fill="#f1f1f1" opacity="1.00" d=" M 865.94 523.67 C 868.84 521.12 871.77 518.60 874.74 516.13 C 877.71 521.94 882.87 526.17 886.49 531.55 C 892.44 538.29 897.73 545.58 903.76 552.24 C 907.22 556.67 910.57 561.19 914.68 565.06 C 905.25 556.19 894.54 548.80 885.12 539.92 C 880.04 536.75 876.81 531.44 871.79 528.21 C 869.81 526.72 868.38 524.45 865.94 523.67 Z" />
<path fill="#f1f1f1" opacity="1.00" d=" M 193.02 524.69 C 191.30 524.32 191.20 519.58 192.96 519.24 C 193.18 521.04 193.21 522.87 193.02 524.69 Z" />
<path fill="#f1f1f1" opacity="1.00" d=" M 863.38 525.83 C 863.49 525.75 863.71 525.57 863.83 525.49 C 863.71 525.57 863.49 525.75 863.38 525.83 Z" />
<path fill="#f1f1f1" opacity="1.00" d=" M 241.17 526.51 C 241.28 526.59 241.52 526.75 241.63 526.83 C 241.52 526.75 241.28 526.59 241.17 526.51 Z" />
<path fill="#f1f1f1" opacity="1.00" d=" M 860.45 527.87 C 860.57 527.78 860.82 527.62 860.94 527.53 C 860.82 527.62 860.57 527.78 860.45 527.87 Z" />
<path fill="#f1f1f1" opacity="1.00" d=" M 244.09 528.51 C 244.21 528.58 244.44 528.74 244.55 528.81 C 244.44 528.74 244.21 528.58 244.09 528.51 Z" />
<path fill="#f1f1f1" opacity="1.00" d=" M 746.12 528.99 C 748.62 530.43 751.16 531.83 753.66 533.29 C 753.14 533.60 752.10 534.20 751.58 534.51 C 753.72 536.95 755.60 539.61 757.41 542.31 C 776.91 569.35 796.91 596.04 817.69 622.11 C 818.54 623.09 819.13 624.23 819.46 625.52 C 817.44 624.27 816.10 622.32 814.64 620.53 C 805.85 611.43 799.07 600.66 791.05 590.93 C 783.81 580.56 775.84 570.73 768.63 560.35 C 760.86 550.09 753.91 539.21 746.12 528.99 Z" />
<path fill="#f1f1f1" opacity="1.00" d=" M 857.44 529.82 C 857.56 529.74 857.80 529.59 857.92 529.51 C 857.80 529.59 857.56 529.74 857.44 529.82 Z" />
<path fill="#f1f1f1" opacity="1.00" d=" M 249.12 531.62 C 249.23 531.68 249.45 531.81 249.56 531.87 C 249.45 531.81 249.23 531.68 249.12 531.62 Z" />
<path fill="#f1f1f1" opacity="1.00" d=" M 226.46 535.85 C 226.56 535.77 226.76 535.62 226.86 535.55 C 226.76 535.62 226.56 535.77 226.46 535.85 Z" />
<path fill="#f1f1f1" opacity="1.00" d=" M 199.11 536.56 C 199.21 536.64 199.40 536.78 199.50 536.86 C 199.40 536.78 199.21 536.64 199.11 536.56 Z" />
<path fill="#f1f1f1" opacity="1.00" d=" M 259.10 536.65 C 259.21 536.69 259.44 536.79 259.56 536.84 C 259.44 536.79 259.21 536.69 259.10 536.65 Z" />
<path fill="#f1f1f1" opacity="1.00" d=" M 264.14 538.68 C 264.26 538.72 264.50 538.81 264.62 538.86 C 264.50 538.81 264.26 538.72 264.14 538.68 Z" />
<path fill="#f1f1f1" opacity="1.00" d=" M 277.28 542.88 C 277.42 541.40 277.97 541.32 278.92 542.64 C 278.51 542.70 277.69 542.82 277.28 542.88 Z" />
<path fill="#f1f1f1" opacity="1.00" d=" M 231.45 568.43 C 230.02 563.79 233.19 559.54 234.24 555.17 C 234.78 563.45 240.99 569.86 246.88 575.09 C 250.10 577.93 254.88 579.54 256.12 584.07 C 255.92 587.91 253.06 590.42 251.18 593.48 C 241.84 588.03 233.04 579.59 231.45 568.43 Z" />
<path fill="#f1f1f1" opacity="1.00" d=" M 530.50 558.47 C 531.32 557.20 532.21 555.99 533.23 554.88 C 533.28 556.19 533.34 557.50 533.40 558.81 C 532.68 558.73 531.23 558.56 530.50 558.47 Z" />
<path fill="#f1f1f1" opacity="1.00" d=" M 512.88 562.12 C 513.38 562.07 514.39 561.97 514.89 561.92 C 514.26 564.05 513.72 566.21 513.20 568.38 C 512.91 566.30 512.87 564.21 512.88 562.12 Z" />
<path fill="#f1f1f1" opacity="1.00" d=" M 698.31 570.51 C 700.77 575.27 702.79 580.46 706.78 584.22 C 710.08 587.63 713.42 591.05 717.66 593.32 C 719.93 594.41 720.21 597.03 721.09 599.11 C 719.69 602.03 718.10 604.86 715.71 607.11 C 710.04 604.08 705.49 599.47 701.33 594.66 C 698.10 590.76 696.88 585.77 695.98 580.92 C 695.59 577.27 697.80 574.04 698.31 570.51 Z" />
<path fill="#f1f1f1" opacity="1.00" d=" M 470.28 578.66 L 470.81 578.58 C 476.98 585.55 484.85 590.94 493.64 594.04 C 493.75 596.69 493.77 599.34 493.67 602.00 C 483.41 596.67 475.24 588.02 468.14 579.06 C 468.68 578.96 469.75 578.76 470.28 578.66 Z" />
<path fill="#f1f1f1" opacity="1.00" d=" M 578.53 581.37 C 579.33 580.15 580.20 578.98 581.18 577.90 C 581.22 579.22 581.30 580.55 581.42 581.89 C 580.70 581.76 579.25 581.50 578.53 581.37 Z" />
<path fill="#f1f1f1" opacity="1.00" d=" M 494.34 594.44 C 500.61 596.22 507.16 596.35 513.53 595.01 C 514.62 600.98 516.91 606.61 518.59 612.43 C 510.05 610.72 502.01 607.19 494.44 602.97 C 494.21 600.13 494.21 597.28 494.34 594.44 Z" />
<path fill="#f1f1f1" opacity="1.00" d=" M 579.27 595.78 L 580.42 594.93 C 580.98 598.96 580.74 603.04 580.70 607.09 C 576.93 608.73 573.08 610.24 569.05 611.08 C 573.65 606.87 576.57 601.30 579.27 595.78 Z" />
<path fill="#f1f1f1" opacity="1.00" d=" M 522.41 648.13 C 530.43 648.89 538.48 648.54 546.52 648.43 C 548.32 648.58 550.14 648.71 551.96 648.72 C 606.98 648.74 661.99 648.67 717.00 648.69 C 756.05 648.60 795.11 648.85 834.17 648.56 C 841.21 648.45 848.26 648.46 855.30 648.28 C 896.72 648.89 938.18 648.36 979.62 648.55 C 979.62 649.03 979.62 649.97 979.62 650.45 C 710.74 650.58 441.88 650.56 173.00 650.64 C 155.31 650.57 137.60 650.79 119.91 650.53 C 120.34 649.16 121.48 648.37 122.92 648.70 C 192.99 648.70 263.07 648.77 333.15 648.60 C 340.02 648.68 346.88 648.60 353.75 648.60 C 408.19 649.00 462.64 648.58 517.08 648.75 C 518.87 648.79 520.67 648.55 522.41 648.13 Z" />
</g>
<g id="#d61825ff">
<path fill="currentColor" opacity="1.00" d=" M 763.92 80.40 C 767.50 79.69 771.45 79.71 775.05 80.36 C 775.88 81.09 776.83 81.31 777.89 81.00 C 779.98 80.71 782.36 80.75 784.04 82.24 C 784.52 82.43 785.49 82.81 785.97 83.01 C 787.63 82.69 789.10 83.65 790.55 84.31 C 790.71 84.38 791.01 84.53 791.16 84.61 L 791.98 85.03 C 792.14 85.11 792.45 85.28 792.61 85.36 C 794.25 86.22 795.87 87.16 797.44 88.18 C 797.54 88.25 797.75 88.39 797.86 88.46 C 801.93 91.07 805.33 94.56 808.56 98.13 C 808.63 98.22 808.78 98.40 808.86 98.49 C 809.80 99.67 810.65 100.92 811.54 102.15 C 811.61 102.25 811.75 102.46 811.82 102.57 C 812.29 103.27 813.23 104.68 813.70 105.39 C 811.45 109.15 808.24 112.23 806.05 116.03 C 804.32 118.93 803.11 122.08 801.84 125.19 C 798.99 120.50 795.42 115.87 790.14 113.82 C 781.56 109.92 770.77 112.61 764.94 120.00 C 763.41 122.56 760.29 121.44 757.91 121.19 C 745.40 119.07 732.79 117.66 720.25 115.75 C 721.24 111.71 723.10 107.94 725.29 104.42 C 725.38 104.28 725.56 103.99 725.65 103.85 L 726.13 103.08 C 726.22 102.93 726.40 102.65 726.50 102.50 C 731.95 93.72 740.57 87.21 750.07 83.34 C 750.19 83.29 750.43 83.20 750.55 83.15 C 752.26 82.52 754.04 81.62 755.93 81.84 C 756.45 81.67 757.47 81.34 757.98 81.17 C 758.53 81.16 759.61 81.13 760.16 81.12 C 761.46 81.37 762.75 81.00 763.92 80.40 Z" />
<path fill="currentColor" opacity="1.00" d=" M 720.17 117.65 C 734.10 119.25 747.95 121.53 761.85 123.41 C 761.52 125.20 761.38 127.02 761.08 128.82 C 763.22 129.74 765.41 130.57 767.71 131.02 C 784.72 134.36 801.93 136.74 819.24 137.79 C 819.24 138.64 819.25 140.35 819.25 141.21 C 819.15 142.91 819.08 144.81 817.76 146.07 C 817.58 146.57 817.24 147.56 817.07 148.05 C 817.35 149.70 816.32 151.14 815.68 152.56 C 815.60 152.72 815.44 153.04 815.35 153.20 L 814.85 154.15 C 814.74 154.35 814.52 154.76 814.41 154.97 L 813.91 155.88 C 813.82 156.05 813.63 156.39 813.54 156.56 C 813.11 157.27 812.27 158.69 811.84 159.39 C 811.77 159.51 811.61 159.75 811.53 159.87 C 807.90 165.21 803.24 169.91 797.86 173.49 C 797.75 173.57 797.53 173.71 797.41 173.79 C 796.66 174.27 795.17 175.22 794.42 175.70 C 788.61 172.98 783.46 169.04 777.55 166.52 C 762.69 159.60 745.11 156.71 729.36 162.34 C 727.32 161.73 726.51 159.49 725.41 157.89 C 725.34 157.78 725.21 157.56 725.15 157.44 C 723.74 154.99 722.47 152.45 721.37 149.84 C 721.32 149.72 721.22 149.48 721.17 149.36 C 720.55 147.61 719.62 145.84 719.96 143.94 C 719.80 143.44 719.47 142.43 719.31 141.93 C 717.23 137.55 718.18 132.63 717.96 127.97 C 717.76 125.32 718.24 122.72 719.22 120.27 C 719.46 119.61 719.93 118.30 720.17 117.65 Z" />
<path fill="currentColor" opacity="1.00" d=" M 533.52 532.71 C 534.05 537.10 534.43 541.52 535.03 545.91 C 535.28 546.46 535.78 547.54 536.03 548.09 C 536.41 549.58 536.81 551.08 537.19 552.59 C 535.86 553.35 534.53 554.09 533.23 554.88 C 532.21 555.99 531.32 557.20 530.50 558.47 C 531.23 558.56 532.68 558.73 533.40 558.81 C 535.81 559.04 538.22 559.29 540.61 559.72 C 543.07 566.12 546.08 572.31 548.22 578.84 C 553.65 573.11 559.87 568.16 566.82 564.40 C 571.04 562.20 575.54 560.51 580.17 559.39 L 581.14 559.15 C 581.81 559.06 583.15 558.88 583.81 558.79 C 584.39 558.61 585.53 558.24 586.10 558.06 C 590.16 557.83 594.22 557.55 598.29 557.75 C 593.75 561.94 589.97 566.92 587.67 572.69 C 586.75 575.63 583.50 576.40 581.18 577.90 C 580.20 578.98 579.33 580.15 578.53 581.37 C 579.25 581.50 580.70 581.76 581.42 581.89 C 582.05 582.00 583.31 582.21 583.94 582.32 C 583.16 584.79 582.37 587.26 581.62 589.75 C 580.95 591.79 580.20 593.82 579.27 595.78 C 576.57 601.30 573.65 606.87 569.05 611.08 C 561.64 613.63 553.75 614.72 545.93 615.00 C 548.31 611.43 551.65 608.56 553.75 604.82 C 554.09 601.55 553.65 598.24 553.03 595.04 C 552.77 592.56 549.99 591.73 548.75 589.84 C 548.56 587.77 549.41 585.84 550.00 583.92 C 545.90 581.20 541.53 584.84 538.36 587.33 C 533.19 591.88 528.34 596.96 524.82 602.92 C 522.86 606.11 523.12 609.97 522.68 613.54 C 521.85 612.27 520.98 611.02 520.46 609.59 C 516.37 598.87 514.06 587.52 513.11 576.10 C 512.94 573.53 512.74 570.92 513.20 568.38 C 513.72 566.21 514.26 564.05 514.89 561.92 L 515.16 561.15 C 515.33 560.58 515.66 559.44 515.82 558.87 C 518.87 550.32 523.81 542.45 530.30 536.09 C 531.38 534.97 532.45 533.84 533.52 532.71 Z" />
</g>
<g id="#3f3d56ff">
<path fill="#3f3d56" opacity="1.00" d=" M 331.85 401.10 C 328.85 395.02 333.44 386.86 340.06 385.97 C 346.31 384.51 353.36 389.32 353.26 395.95 C 352.81 405.31 353.33 414.71 352.46 424.05 C 351.42 435.71 352.60 447.44 351.50 459.10 C 350.41 470.74 351.58 482.45 350.55 494.09 C 349.89 501.10 349.98 508.15 350.03 515.19 C 354.81 512.31 359.00 508.62 363.10 504.87 C 361.89 500.93 361.16 496.39 363.79 492.83 C 367.24 486.90 376.39 486.03 381.15 490.80 C 385.48 494.95 385.20 502.22 382.14 507.02 C 373.18 518.29 361.61 527.18 349.07 534.13 C 348.84 543.78 349.33 553.45 348.68 563.09 C 347.40 575.06 348.52 587.10 347.65 599.09 C 346.73 608.54 347.01 618.05 347.10 627.53 C 352.44 627.71 357.80 631.39 358.27 637.03 C 359.29 641.53 356.65 645.47 353.75 648.60 C 346.88 648.60 340.02 648.68 333.15 648.60 C 332.05 646.90 330.59 645.21 330.96 643.04 C 331.17 633.66 330.68 624.27 331.24 614.90 C 332.81 602.96 331.39 590.88 332.27 578.90 C 333.86 566.23 332.27 553.43 333.42 540.74 C 326.36 542.42 319.34 544.56 312.07 545.03 C 307.06 544.88 302.08 546.00 297.09 545.29 C 291.01 544.89 284.59 545.17 278.92 542.64 C 277.97 541.32 277.42 541.40 277.28 542.88 C 273.04 541.61 268.74 540.51 264.62 538.86 C 264.50 538.81 264.26 538.72 264.14 538.68 C 262.60 538.08 261.07 537.48 259.56 536.84 C 259.44 536.79 259.21 536.69 259.10 536.65 C 255.82 535.25 252.64 533.65 249.56 531.87 C 249.45 531.81 249.23 531.68 249.12 531.62 C 247.58 530.71 246.04 529.79 244.55 528.81 C 244.44 528.74 244.21 528.58 244.09 528.51 C 243.48 528.09 242.25 527.25 241.63 526.83 C 241.52 526.75 241.28 526.59 241.17 526.51 C 239.64 525.47 238.04 524.56 236.38 523.75 C 234.27 528.42 230.89 532.41 226.86 535.55 C 226.76 535.62 226.56 535.77 226.46 535.85 C 218.80 541.45 207.42 542.51 199.50 536.86 C 199.40 536.78 199.21 536.64 199.11 536.56 C 195.62 533.72 192.29 529.46 193.02 524.69 C 193.21 522.87 193.18 521.04 192.96 519.24 C 192.37 514.87 194.87 510.78 197.62 507.61 C 201.44 503.18 206.84 499.98 212.74 499.52 C 215.58 499.56 218.42 499.62 221.26 499.68 C 224.07 499.84 226.79 500.59 229.56 501.05 C 230.79 496.81 232.61 492.77 234.17 488.65 C 234.22 488.52 234.31 488.27 234.36 488.15 C 235.29 485.64 236.24 483.15 237.16 480.65 C 237.21 480.52 237.30 480.27 237.34 480.15 C 238.55 476.62 239.86 473.13 241.15 469.64 C 241.20 469.51 241.28 469.26 241.33 469.13 C 248.21 449.06 254.79 428.87 260.30 408.37 C 260.88 406.23 261.46 404.09 262.24 402.02 C 263.21 399.60 264.05 396.78 266.43 395.37 C 268.62 394.55 271.00 394.53 273.30 394.28 C 276.11 395.72 278.40 398.70 278.06 401.98 C 277.77 405.57 276.46 408.98 275.55 412.45 C 266.48 445.13 255.77 477.37 243.06 508.81 C 254.16 516.90 266.23 524.15 279.78 527.20 C 297.62 532.02 316.80 530.46 333.96 523.79 C 333.87 518.17 334.08 512.54 334.54 506.94 C 335.57 495.30 334.40 483.58 335.50 471.94 C 336.59 460.30 335.41 448.58 336.46 436.94 C 337.36 427.06 336.88 417.13 336.95 407.23 C 334.92 405.50 332.84 403.65 331.85 401.10 Z" />
<path fill="#3f3d56" opacity="1.00" d=" M 833.44 391.10 C 835.50 387.89 838.98 385.23 843.00 385.85 C 848.64 385.12 854.39 390.24 854.13 395.95 C 853.82 410.23 854.52 424.54 852.81 438.76 C 852.16 446.15 852.44 453.58 852.26 460.99 C 851.82 479.23 851.08 497.46 850.85 515.69 C 856.08 512.74 860.55 508.72 864.94 504.67 C 864.50 501.46 863.67 498.08 864.89 494.94 C 866.03 491.76 868.90 489.61 871.88 488.27 C 875.03 487.49 878.77 487.42 881.49 489.47 C 886.49 492.53 887.63 499.88 884.77 504.70 C 884.30 505.39 883.83 506.09 883.36 506.78 C 880.78 510.14 878.06 513.47 874.74 516.13 C 871.77 518.60 868.84 521.12 865.94 523.67 C 865.41 524.12 864.35 525.03 863.83 525.49 C 863.71 525.57 863.49 525.75 863.38 525.83 C 862.77 526.26 861.55 527.11 860.94 527.53 C 860.82 527.62 860.57 527.78 860.45 527.87 C 859.81 528.28 858.55 529.10 857.92 529.51 C 857.80 529.59 857.56 529.74 857.44 529.82 C 855.36 531.14 853.24 532.38 851.02 533.44 C 848.80 545.88 850.89 558.60 849.61 571.12 C 848.09 583.87 849.96 596.78 848.31 609.52 C 847.76 615.54 848.04 621.59 848.12 627.62 C 851.79 627.70 855.64 629.20 857.55 632.51 C 859.75 635.44 859.25 639.33 858.90 642.75 C 857.91 644.72 856.48 646.42 855.30 648.28 C 848.26 648.46 841.21 648.45 834.17 648.56 C 830.90 644.35 832.17 638.91 831.98 634.00 C 831.73 622.98 833.43 612.02 833.00 601.00 C 832.54 589.64 834.34 578.36 834.00 567.00 C 833.79 558.09 834.25 549.19 835.03 540.32 C 827.86 542.48 820.53 544.29 813.05 544.98 C 803.13 545.37 793.06 545.76 783.28 543.70 C 772.99 541.66 762.81 538.48 753.66 533.29 C 751.16 531.83 748.62 530.43 746.12 528.99 C 743.33 527.26 740.63 525.38 737.88 523.61 C 734.27 529.51 729.86 535.48 723.30 538.29 C 715.24 541.87 704.61 541.34 698.22 534.74 C 691.54 527.56 692.15 515.62 698.21 508.26 C 704.50 500.48 715.71 497.17 725.24 500.12 C 726.33 500.37 727.41 500.65 728.51 500.94 L 729.17 501.23 C 729.42 501.52 729.92 502.11 730.17 502.41 C 730.32 502.05 730.61 501.34 730.76 500.98 C 731.46 497.73 732.98 494.73 734.16 491.64 C 734.21 491.51 734.30 491.26 734.35 491.14 C 735.30 488.64 736.24 486.14 737.15 483.63 C 737.20 483.51 737.29 483.26 737.33 483.14 C 738.50 479.60 739.84 476.12 741.16 472.63 C 741.20 472.51 741.29 472.26 741.34 472.14 C 748.15 452.67 754.60 433.07 760.08 413.19 C 760.72 411.10 761.01 408.82 762.28 406.98 C 762.45 406.48 762.77 405.49 762.94 405.00 C 762.74 401.79 763.78 398.26 766.16 396.01 C 768.85 394.39 772.01 394.17 775.06 394.68 C 777.14 395.93 779.21 398.14 779.14 400.72 C 778.47 405.06 777.15 409.25 776.17 413.52 C 767.35 445.89 756.57 477.75 744.03 508.87 C 750.18 513.21 756.41 517.49 763.18 520.83 C 785.32 531.91 812.08 533.04 835.08 523.84 C 835.49 516.30 835.79 508.75 836.14 501.21 C 836.81 490.61 836.57 479.96 836.96 469.34 C 836.97 466.98 836.92 464.62 837.14 462.28 C 838.09 453.87 837.37 445.40 837.84 436.96 C 838.15 427.07 837.95 417.18 837.94 407.28 C 835.50 405.26 832.81 403.09 832.05 399.85 C 831.89 397.05 831.42 393.94 833.18 391.51 C 833.24 391.41 833.37 391.20 833.44 391.10 Z" />
<path fill="#3f3d56" opacity="1.00" d=" M 537.90 403.82 C 541.43 401.51 545.84 401.61 549.88 402.05 C 555.09 403.02 559.00 407.15 561.38 411.68 C 572.76 413.78 583.66 417.97 593.93 423.24 C 596.46 420.81 599.14 417.67 603.01 417.87 C 606.58 417.40 610.26 418.59 612.59 421.40 C 616.42 425.41 615.86 431.89 613.03 436.30 C 635.05 454.57 649.69 481.78 651.37 510.48 C 652.70 518.60 651.43 526.76 650.80 534.88 C 648.23 555.54 639.83 575.49 626.55 591.56 C 617.18 602.75 605.54 612.07 592.42 618.50 C 575.56 625.97 562.88 640.06 546.52 648.43 C 538.48 648.54 530.43 648.89 522.41 648.13 C 506.77 638.58 496.87 622.28 481.39 612.56 C 452.50 592.88 434.03 558.89 432.95 523.99 C 431.43 490.20 448.64 457.08 475.15 436.61 C 473.82 433.12 472.00 429.27 473.46 425.52 C 475.01 420.73 479.86 417.10 485.01 417.87 C 489.64 417.53 492.91 421.42 495.18 424.94 C 504.76 421.02 514.47 417.39 524.40 414.44 C 526.36 413.80 528.41 413.33 530.23 412.33 C 532.62 409.36 534.48 405.78 537.90 403.82 M 557.39 429.38 C 554.27 432.79 549.54 434.50 544.96 434.06 C 540.50 434.17 537.17 430.86 533.37 429.10 C 532.40 429.25 531.44 429.21 530.50 428.99 L 530.96 429.59 C 523.83 430.99 516.78 432.77 509.82 434.82 C 504.49 436.36 499.73 439.25 494.86 441.81 C 494.43 442.13 493.58 442.78 493.15 443.11 C 485.41 447.67 478.30 453.49 472.61 460.47 L 471.92 460.39 C 471.72 460.86 471.31 461.79 471.10 462.26 C 468.10 464.15 466.45 467.59 464.35 470.37 C 452.91 486.72 446.97 506.95 448.58 526.90 C 449.82 545.75 457.20 563.78 468.14 579.06 C 475.24 588.02 483.41 596.67 493.67 602.00 C 493.77 599.34 493.75 596.69 493.64 594.04 C 484.85 590.94 476.98 585.55 470.81 578.58 L 470.28 578.66 C 467.85 574.26 464.36 569.67 465.27 564.33 C 466.35 562.16 470.04 561.84 470.06 558.95 C 470.94 554.07 465.25 552.41 461.86 550.70 C 461.56 547.92 463.34 545.65 466.15 545.38 C 476.05 542.18 485.03 549.08 492.68 554.44 C 493.41 555.02 494.15 555.58 494.90 556.17 C 500.91 560.92 505.99 566.74 509.94 573.30 C 509.58 558.02 511.87 542.75 516.55 528.20 C 507.09 528.34 501.31 519.71 495.35 513.68 L 495.46 513.01 C 494.63 512.01 493.83 511.00 492.99 510.02 L 492.95 509.21 L 491.93 509.23 L 491.82 507.90 C 488.57 501.95 485.36 495.10 487.13 488.18 C 487.92 484.97 492.70 484.60 492.81 481.02 C 493.08 478.13 490.46 476.35 488.43 474.86 C 488.93 471.76 490.61 469.02 493.12 467.14 C 493.54 466.81 494.39 466.15 494.81 465.82 C 498.17 465.59 501.96 465.04 504.87 467.20 C 508.19 469.64 509.95 473.52 511.83 477.07 C 516.68 486.95 520.91 497.22 523.48 507.95 C 523.48 509.30 523.47 510.66 523.46 512.02 C 524.23 510.59 524.98 509.15 525.78 507.74 C 527.55 504.35 529.76 501.23 531.68 497.93 C 533.53 495.67 535.36 493.40 537.10 491.05 C 534.94 487.52 532.97 483.86 531.48 480.00 C 529.82 474.73 530.14 469.23 531.84 464.02 C 532.51 463.16 533.19 462.30 533.85 461.42 L 533.66 460.64 C 537.03 458.40 540.66 455.75 544.93 456.00 C 548.35 456.24 551.12 458.43 553.44 460.77 C 552.35 462.22 551.24 463.66 550.02 464.99 C 549.31 466.58 548.97 468.29 548.77 470.02 C 550.72 471.15 552.90 471.66 555.17 471.52 C 552.76 477.01 553.53 483.34 550.56 488.59 C 548.33 492.58 543.20 492.70 539.20 493.15 C 537.20 495.66 535.11 498.13 533.57 500.96 C 528.56 506.97 525.56 514.36 522.32 521.41 C 516.71 534.27 513.94 548.18 512.88 562.12 C 512.87 564.21 512.91 566.30 513.20 568.38 C 512.74 570.92 512.94 573.53 513.11 576.10 C 514.06 587.52 516.37 598.87 520.46 609.59 C 520.98 611.02 521.85 612.27 522.68 613.54 C 523.12 609.97 522.86 606.11 524.82 602.92 C 528.34 596.96 533.19 591.88 538.36 587.33 C 541.53 584.84 545.90 581.20 550.00 583.92 C 549.41 585.84 548.56 587.77 548.75 589.84 C 549.99 591.73 552.77 592.56 553.03 595.04 C 553.65 598.24 554.09 601.55 553.75 604.82 C 551.65 608.56 548.31 611.43 545.93 615.00 C 553.75 614.72 561.64 613.63 569.05 611.08 C 573.08 610.24 576.93 608.73 580.70 607.09 C 580.74 603.04 580.98 598.96 580.42 594.93 L 579.27 595.78 C 580.20 593.82 580.95 591.79 581.62 589.75 C 581.05 595.30 581.40 600.91 581.52 606.49 C 599.27 599.10 614.32 585.47 623.63 568.66 C 633.82 550.75 637.84 529.63 635.85 509.18 C 635.74 507.08 635.70 504.96 635.00 502.96 C 632.06 488.27 626.24 474.03 616.77 462.31 L 615.81 462.32 C 615.87 461.87 615.99 460.99 616.05 460.55 L 615.35 460.60 C 606.23 449.31 594.23 440.67 581.28 434.25 L 579.86 433.96 C 573.89 430.76 567.28 428.91 560.71 427.41 C 559.19 426.89 558.40 428.63 557.39 429.38 M 494.34 594.44 C 494.21 597.28 494.21 600.13 494.44 602.97 C 502.01 607.19 510.05 610.72 518.59 612.43 C 516.91 606.61 514.62 600.98 513.53 595.01 C 507.16 596.35 500.61 596.22 494.34 594.44 Z" />
<path fill="#3f3d56" opacity="1.00" d=" M 553.51 532.65 C 556.95 536.46 559.49 540.96 561.46 545.68 C 559.19 547.30 557.01 549.09 555.57 551.53 C 558.33 551.88 561.11 552.10 563.90 552.29 C 565.12 556.26 565.88 560.35 566.82 564.40 C 559.87 568.16 553.65 573.11 548.22 578.84 C 546.08 572.31 543.07 566.12 540.61 559.72 C 546.76 551.76 552.71 543.00 553.51 532.65 Z" />
<path fill="#3f3d56" opacity="1.00" d=" M 535.03 545.91 C 535.28 546.46 535.78 547.54 536.03 548.09 C 535.78 547.54 535.28 546.46 535.03 545.91 Z" />
<path fill="#3f3d56" opacity="1.00" d=" M 583.81 558.79 C 584.39 558.61 585.53 558.24 586.10 558.06 C 585.53 558.24 584.39 558.61 583.81 558.79 Z" />
<path fill="#3f3d56" opacity="1.00" d=" M 515.16 561.15 C 515.33 560.58 515.66 559.44 515.82 558.87 C 515.66 559.44 515.33 560.58 515.16 561.15 Z" />
</g>
</svg>
