<?xml version="1.0" encoding="UTF-8" ?>
<!DOCTYPE svg PUBLIC "-//W3C//DTD SVG 1.1//EN" "http://www.w3.org/Graphics/SVG/1.1/DTD/svg11.dtd">
<svg width="512pt" height="512pt" viewBox="0 0 512 512" version="1.1" xmlns="http://www.w3.org/2000/svg">
<g id="#000000ff">
<path fill="currentColor" opacity="1.00" d=" M 239.28 27.32 C 277.62 24.50 316.66 31.38 351.59 47.50 C 407.65 73.02 452.42 122.11 472.51 180.36 C 487.99 224.51 489.44 273.41 476.67 318.41 C 466.54 354.57 447.19 388.06 421.13 415.07 C 395.91 441.28 364.40 461.44 329.93 473.11 C 282.10 489.50 228.83 489.33 181.08 472.73 C 126.09 453.94 79.07 413.23 52.43 361.60 C 34.57 327.40 25.73 288.59 26.79 250.03 C 27.74 208.85 40.13 168.01 62.28 133.29 C 83.86 99.21 114.59 70.98 150.42 52.43 C 177.91 38.11 208.36 29.54 239.28 27.32 M 232.23 175.26 C 220.32 176.67 209.20 183.73 203.00 194.01 C 199.14 200.27 197.26 207.65 197.34 214.98 C 197.34 242.65 197.31 270.32 197.35 297.99 C 197.26 312.29 205.87 326.03 218.58 332.47 C 231.38 339.39 247.85 338.20 259.64 329.70 C 280.22 315.93 300.88 302.26 321.44 288.46 C 330.93 282.07 337.19 271.31 338.25 259.95 C 339.82 245.71 332.95 230.89 320.86 223.13 C 300.26 209.37 279.64 195.64 259.03 181.90 C 251.26 176.59 241.59 174.07 232.23 175.26 Z" />
</g>
</svg>
