<?xml version="1.0" encoding="UTF-8" ?>
<!DOCTYPE svg PUBLIC "-//W3C//DTD SVG 1.1//EN" "http://www.w3.org/Graphics/SVG/1.1/DTD/svg11.dtd">
<svg width="512pt" height="512pt" viewBox="0 0 512 512" version="1.1" xmlns="http://www.w3.org/2000/svg">
<g id="#000000ff">
<path fill="currentColor" opacity="1.00" d=" M 157.90 60.94 C 194.14 46.10 235.42 43.99 273.01 54.96 C 302.50 63.47 329.59 79.99 350.83 102.14 C 374.53 126.72 390.88 158.31 397.03 191.91 C 403.17 224.97 399.65 259.79 386.75 290.85 C 379.95 307.35 370.59 322.79 359.17 336.50 C 392.50 369.93 425.96 403.25 459.30 436.67 C 465.49 442.57 465.45 453.44 459.26 459.31 C 453.39 465.50 442.54 465.49 436.68 459.29 C 403.29 425.92 369.93 392.52 336.52 359.17 C 313.46 378.41 285.46 391.70 255.90 397.06 C 221.65 403.40 185.52 399.32 153.65 385.26 C 121.53 371.27 93.84 347.40 75.16 317.77 C 56.92 289.08 47.39 254.97 48.06 220.98 C 48.54 186.79 59.39 152.86 78.78 124.71 C 98.19 96.36 126.02 73.82 157.90 60.94 M 209.46 80.75 C 174.62 84.16 141.37 100.98 117.82 126.86 C 97.59 148.85 84.46 177.27 81.03 206.97 C 77.50 236.28 83.24 266.66 97.44 292.57 C 113.02 321.36 138.71 344.56 169.00 357.02 C 194.70 367.77 223.58 370.66 250.93 365.44 C 282.40 359.57 311.60 342.64 332.55 318.47 C 350.74 297.66 362.78 271.52 366.56 244.12 C 370.66 215.32 365.80 185.29 352.62 159.33 C 338.07 130.35 313.45 106.57 283.95 93.10 C 260.82 82.39 234.80 78.19 209.46 80.75 Z" />
</g>
</svg>
