<?xml version="1.0" encoding="UTF-8" ?>
<!DOCTYPE svg PUBLIC "-//W3C//DTD SVG 1.1//EN" "http://www.w3.org/Graphics/SVG/1.1/DTD/svg11.dtd">
<svg width="512pt" height="512pt" viewBox="0 0 512 512" version="1.1" xmlns="http://www.w3.org/2000/svg">
<g id="#000000ff">
<path fill="currentColor" opacity="1.00" d=" M 406.37 54.62 C 415.42 52.48 425.17 53.48 433.60 57.42 C 446.78 63.47 456.51 76.58 458.17 91.03 C 459.04 97.77 457.99 104.62 455.86 111.03 C 421.51 222.60 387.20 334.18 352.85 445.74 C 349.41 457.50 340.75 467.68 329.42 472.48 C 316.66 478.14 301.09 477.25 289.26 469.74 C 282.55 465.58 277.20 459.40 273.72 452.34 C 250.15 405.22 226.58 358.08 203.02 310.95 C 202.60 309.72 201.45 309.14 200.37 308.59 C 153.26 285.10 106.20 261.50 59.10 237.98 C 50.26 233.54 42.97 225.99 39.18 216.82 C 33.51 203.50 35.15 187.34 43.46 175.47 C 48.68 167.85 56.58 162.22 65.37 159.44 C 162.00 129.70 258.64 99.96 355.27 70.22 C 372.32 65.07 389.27 59.58 406.37 54.62 M 78.66 199.99 C 123.74 222.70 168.94 245.16 214.08 267.75 C 245.40 236.49 276.65 205.17 307.95 173.89 C 311.86 169.87 317.35 167.42 322.98 167.40 C 331.15 167.18 339.14 172.17 342.55 179.59 C 346.50 187.61 344.57 197.90 338.12 204.06 C 306.84 235.38 275.50 266.64 244.24 297.97 C 266.81 343.15 289.42 388.31 311.99 433.50 C 346.57 321.08 381.18 208.66 415.75 96.24 C 303.41 130.90 191.01 165.37 78.66 199.99 Z" />
</g>
</svg>
