<?xml version="1.0" encoding="UTF-8" ?>
<!DOCTYPE svg PUBLIC "-//W3C//DTD SVG 1.1//EN" "http://www.w3.org/Graphics/SVG/1.1/DTD/svg11.dtd">
<svg width="512pt" height="512pt" viewBox="0 0 512 512" version="1.1" xmlns="http://www.w3.org/2000/svg">
<g id="#000000ff">
<path fill="currentColor" opacity="1.00" d=" M 224.70 23.06 C 243.85 20.37 263.60 21.73 282.08 27.52 C 309.37 35.83 333.72 53.53 349.97 76.99 C 370.37 105.92 377.61 143.75 369.00 178.11 C 362.27 206.55 345.01 232.25 321.61 249.68 C 303.18 263.65 280.88 272.29 257.92 274.87 C 233.32 277.60 207.95 273.21 185.75 262.25 C 160.54 249.87 139.54 229.02 127.20 203.77 C 116.93 182.91 112.64 159.12 115.05 135.99 C 117.54 111.31 127.56 87.46 143.50 68.45 C 163.65 43.91 193.27 27.46 224.70 23.06 Z" />
<path fill="currentColor" opacity="1.00" d=" M 161.74 318.71 C 195.82 310.67 231.05 307.94 266.01 309.46 C 273.72 309.71 281.39 310.81 289.12 310.80 C 288.08 310.96 287.04 311.13 286.00 311.30 C 294.45 311.31 302.79 312.86 311.11 314.18 C 339.77 319.07 368.25 327.16 393.77 341.38 C 407.13 348.97 419.80 358.47 428.80 371.08 C 436.11 381.33 440.23 394.34 437.92 406.92 C 435.31 421.91 425.46 434.55 414.02 444.08 C 398.36 457.17 379.61 465.95 360.51 472.77 C 320.87 486.36 278.66 491.03 236.93 490.20 C 229.64 489.39 222.27 489.86 215.00 488.94 C 193.41 487.25 171.95 483.56 151.05 477.86 C 126.71 470.88 102.63 461.19 82.67 445.27 C 71.33 435.85 61.00 423.89 57.84 409.11 C 55.22 397.50 57.80 385.10 63.95 375.02 C 71.30 362.73 82.52 353.31 94.44 345.64 C 114.99 332.62 138.22 324.48 161.74 318.71 Z" />
</g>
</svg>
