<?xml version="1.0" encoding="UTF-8" ?>
<!DOCTYPE svg PUBLIC "-//W3C//DTD SVG 1.1//EN" "http://www.w3.org/Graphics/SVG/1.1/DTD/svg11.dtd">
<svg width="512pt" height="512pt" viewBox="0 0 512 512" version="1.1" xmlns="http://www.w3.org/2000/svg">
<g id="#000000ff">
<path fill="currentColor" opacity="1.00" d=" M 224.57 23.08 C 257.45 18.20 292.14 26.36 319.14 45.85 C 343.78 63.28 361.98 89.74 368.98 119.13 C 374.82 142.61 373.43 167.77 365.33 190.55 C 356.62 215.13 340.05 236.79 318.74 251.78 C 295.47 268.40 266.53 276.79 237.99 275.53 C 211.68 274.46 185.67 265.29 164.75 249.24 C 145.11 234.40 129.84 213.79 121.63 190.56 C 113.74 168.36 112.17 143.91 117.55 120.95 C 124.01 91.78 141.52 65.34 165.47 47.56 C 182.68 34.60 203.24 26.12 224.57 23.08 M 228.66 63.04 C 201.61 67.29 176.91 84.79 164.30 109.16 C 154.50 127.63 151.81 149.80 157.25 170.02 C 162.36 190.14 175.28 207.97 192.33 219.69 C 208.20 230.68 227.70 236.29 246.98 235.50 C 268.90 234.71 290.49 225.61 306.14 210.20 C 319.66 197.22 328.82 179.71 331.49 161.15 C 334.33 143.21 330.89 124.44 322.29 108.47 C 312.47 90.01 295.74 75.44 276.25 67.95 C 261.23 62.01 244.58 60.46 228.66 63.04 Z" />
<path fill="currentColor" opacity="1.00" d=" M 222.55 309.84 C 270.21 307.07 318.83 311.71 363.98 327.80 C 383.51 335.12 402.74 344.55 418.10 358.92 C 427.62 367.76 435.54 379.03 437.85 392.03 C 440.43 405.36 435.73 419.13 427.71 429.77 C 416.99 444.03 401.74 454.10 386.01 462.08 C 355.17 477.31 321.10 484.72 287.09 488.42 C 236.19 493.04 183.92 489.39 135.28 472.92 C 111.80 464.59 88.37 453.27 71.43 434.49 C 61.82 423.84 55.25 409.44 57.13 394.86 C 58.61 380.03 67.86 367.28 78.61 357.53 C 96.82 341.51 119.38 331.41 142.29 324.10 C 168.30 315.94 195.39 311.55 222.55 309.84 M 237.27 349.29 C 207.48 350.28 177.61 354.48 149.27 363.96 C 134.71 369.10 120.26 375.39 108.11 385.09 C 104.16 388.51 100.12 392.11 97.69 396.81 C 96.60 398.98 97.03 401.55 98.25 403.57 C 101.64 409.13 106.76 413.34 111.94 417.17 C 124.44 425.97 138.72 431.89 153.18 436.65 C 187.02 447.24 222.71 450.89 258.04 450.06 C 286.37 449.12 314.74 445.23 341.84 436.73 C 357.44 431.62 372.90 425.18 386.04 415.16 C 390.79 411.46 395.41 407.21 398.01 401.68 C 399.32 398.69 397.09 395.80 395.49 393.45 C 388.93 385.05 379.69 379.30 370.44 374.30 C 348.75 363.11 324.83 357.05 300.86 353.12 C 279.83 349.98 258.53 348.66 237.27 349.29 Z" />
</g>
</svg>
