<?xml version="1.0" encoding="UTF-8" ?>
<!DOCTYPE svg PUBLIC "-//W3C//DTD SVG 1.1//EN" "http://www.w3.org/Graphics/SVG/1.1/DTD/svg11.dtd">
<svg width="512pt" height="512pt" viewBox="0 0 512 512" version="1.1" xmlns="http://www.w3.org/2000/svg">
<g id="#000000ff">
<path fill="currentColor" opacity="1.00" d=" M 239.53 43.74 C 264.25 40.54 289.90 44.65 312.28 55.68 C 340.73 69.53 363.62 94.35 375.13 123.83 C 385.50 150.04 386.77 179.70 378.81 206.73 C 370.72 234.58 352.75 259.38 328.90 275.86 C 306.60 291.46 279.20 299.51 252.00 298.58 C 222.98 297.78 194.38 286.64 172.47 267.59 C 150.26 248.60 134.93 221.75 129.96 192.95 C 124.53 162.51 130.54 130.15 146.83 103.83 C 166.61 71.22 201.64 48.40 239.53 43.74 M 250.34 85.53 C 220.84 87.19 193.14 105.58 179.94 131.96 C 170.18 150.94 168.06 173.63 173.94 194.13 C 178.74 211.04 188.98 226.34 202.73 237.29 C 216.09 248.05 232.78 254.60 249.90 255.76 C 267.95 257.08 286.40 252.52 301.65 242.75 C 317.67 232.65 330.12 217.04 336.42 199.18 C 343.33 179.81 342.90 157.94 335.19 138.88 C 328.50 122.12 316.31 107.64 300.98 98.14 C 285.97 88.76 267.98 84.33 250.34 85.53 Z" />
<path fill="currentColor" opacity="1.00" d=" M 245.37 341.55 C 278.66 340.37 312.36 344.65 343.75 356.05 C 365.08 363.87 385.54 375.17 401.58 391.46 C 413.56 403.59 422.80 418.95 425.61 435.93 C 426.46 442.52 427.68 449.56 425.12 455.93 C 421.66 464.97 411.52 470.77 401.97 469.05 C 391.88 467.65 383.81 458.17 384.00 447.99 C 383.81 435.59 375.81 424.97 366.79 417.19 C 349.82 402.85 328.52 394.72 307.13 389.63 C 276.29 382.68 244.02 382.20 212.95 387.95 C 191.87 392.03 170.99 399.03 153.09 411.13 C 143.52 417.77 134.50 426.16 130.13 437.20 C 128.41 441.29 128.03 445.74 127.84 450.12 C 127.14 459.51 119.35 467.70 110.05 469.04 C 101.04 470.66 91.44 465.64 87.52 457.40 C 84.16 450.75 85.43 443.05 86.37 435.98 C 90.09 413.45 104.87 394.31 122.61 380.64 C 148.39 360.85 180.05 350.11 211.84 344.84 C 222.93 343.05 234.14 341.96 245.37 341.55 Z" />
</g>
</svg>
