<?xml version="1.0" encoding="UTF-8" ?>
<!DOCTYPE svg PUBLIC "-//W3C//DTD SVG 1.1//EN" "http://www.w3.org/Graphics/SVG/1.1/DTD/svg11.dtd">
<svg width="512pt" height="512pt" viewBox="0 0 512 512" version="1.1" xmlns="http://www.w3.org/2000/svg">
<g id="currentColor">
<path fill="currentColor" opacity="1.00" d=" M 245.44 53.63 C 280.89 51.79 316.85 59.27 348.40 75.61 C 381.16 92.36 409.14 118.28 428.47 149.58 C 456.29 194.14 465.37 249.75 453.62 300.90 C 445.72 336.11 428.05 369.02 403.23 395.21 C 376.78 423.25 342.19 443.57 304.72 452.74 C 254.88 465.16 200.40 457.78 155.84 432.16 C 126.84 415.68 102.04 391.91 84.31 363.66 C 64.64 332.50 53.84 295.85 53.40 259.01 C 52.70 219.64 63.84 180.15 85.14 147.02 C 109.53 108.70 147.14 78.96 190.15 64.33 C 207.96 58.20 226.64 54.61 245.44 53.63 M 112.77 144.81 C 90.37 173.47 77.02 209.02 74.98 245.33 C 103.36 245.34 131.75 245.34 160.13 245.33 C 160.94 219.03 164.23 192.62 172.37 167.52 C 183.11 133.41 203.03 102.78 227.49 76.91 C 182.45 83.88 140.60 108.76 112.77 144.81 M 284.50 76.90 C 302.70 96.31 318.62 118.10 329.76 142.34 C 344.90 174.43 350.92 210.07 351.87 245.33 C 380.25 245.34 408.63 245.34 437.02 245.33 C 434.51 199.28 413.46 154.67 379.63 123.37 C 353.47 98.89 319.92 82.40 284.50 76.90 M 206.14 142.07 C 189.16 173.67 182.43 209.75 181.48 245.33 C 231.16 245.34 280.83 245.34 330.51 245.33 C 329.63 216.26 325.25 186.95 314.18 159.91 C 301.65 128.58 280.28 101.64 256.01 78.54 C 236.48 97.17 218.81 118.12 206.14 142.07 M 74.99 266.67 C 77.48 313.22 99.01 358.29 133.49 389.64 C 159.47 413.57 192.60 429.58 227.49 435.09 C 209.14 415.51 193.11 393.51 181.95 369.03 C 166.98 337.11 161.09 301.70 160.13 266.67 C 131.75 266.66 103.37 266.66 74.99 266.67 M 181.48 266.67 C 182.42 300.03 188.27 333.79 203.10 363.93 C 215.85 390.39 234.90 413.27 256.01 433.47 C 277.27 413.09 296.44 390.01 309.20 363.30 C 323.81 333.31 329.57 299.79 330.51 266.67 C 280.83 266.67 231.16 266.66 181.48 266.67 M 351.87 266.67 C 350.90 305.41 343.50 344.64 325.11 379.07 C 314.42 399.62 300.28 418.20 284.51 435.09 C 327.43 428.46 367.49 405.55 395.20 372.15 C 419.98 342.68 434.84 305.11 437.01 266.67 C 408.63 266.67 380.25 266.66 351.87 266.67 Z" />
</g>
</svg>
